<?xml version="1.0" encoding="UTF-8" standalone="no"?>
<!-- Created with Inkscape (http://www.inkscape.org/) -->

<svg
   xmlns:dc="http://purl.org/dc/elements/1.1/"
   xmlns:cc="http://creativecommons.org/ns#"
   xmlns:rdf="http://www.w3.org/1999/02/22-rdf-syntax-ns#"
   xmlns:svg="http://www.w3.org/2000/svg"
   xmlns="http://www.w3.org/2000/svg" version="1.1" width="50" height="50" viewBox="0 0 50 50" id="dialpad" xml:space="preserve"><metadata id="metadata18"><rdf:RDF><cc:Work rdf:about=""><dc:format>image/svg+xml</dc:format><dc:type rdf:resource="http://purl.org/dc/dcmitype/StillImage" /><dc:title></dc:title></cc:Work></rdf:RDF></metadata><defs id="defs16" />
	<g transform="translate(-700.03805,-555.367)" id="icon-dialpad-open">
		<rect width="50" height="50" x="700.03802" y="555.367" id="rect4" style="fill:none" />
		<g id="g6">
			<polygon points="729.06,600.211 718.667,600.211 716.785,592.873 709.442,591.902 708.332,563.102 738.418,561.675 738.418,591.555 730.905,591.555 "
                     id="polygon8" style="opacity:0.15;fill:#acacac" />
			<path d="m 737.418,562.675 h -27.17 c -2.047,0 -3.688,1.688 -3.688,3.727 v 26.151 c 0,2.021 1.642,3.688 3.688,3.688 h 5.681 v 4.972 c 0,2.061 1.664,3.723 3.683,3.723 h 8.455 c 2.054,0 3.727,-1.67 3.727,-3.723 v -4.972 h 5.629 c 2.059,0 3.728,-1.67 3.728,-3.688 V 566.4 c -0.009,-2.052 -1.683,-3.725 -3.733,-3.725 l 0,0 z m -9.358,29.88 h -8.422 -0.034 v -7.756 h 8.452 l 0.004,7.756 0,0 z m -8.414,-9.636 v -7.826 h 8.419 v 7.826 h -8.419 l 0,0 z m -1.883,0 h -7.516 v -7.826 h 6.576 0.932 v 7.826 h 0.008 z m 1.883,-10.605 v -5.912 h -0.038 l 0,0 h 8.452 v 6.813 h -8.425 v -0.899 l 0.011,-0.002 0,0 z m 10.259,2.777 h 7.514 v 7.827 h -7.514 v -7.827 l 0,0 z m 7.513,-1.877 h -7.514 V 566.4 h 7.514 v 6.814 l 0,0 z m -27.17,-6.812 h 7.516 v 6.813 h -0.933 -6.568 v -6.813 h -0.015 z m 0,26.153 v -7.756 h 7.516 v 7.756 h -7.516 l 0,0 z m 9.398,8.656 v -6.816 h 8.419 v 6.816 h -8.419 l 0,0 z m 10.259,-8.656 v -0.938 l 0,0 v -5.914 l 0,0 V 584.8 h 7.514 v 7.754 l -7.514,10e-4 0,0 z"
   id="path10" style="opacity:0.6" />
			<path d="m 737.444,560.699 h -27.162 c -2.061,0 -3.729,1.687 -3.729,3.703 v 26.151 c 0,2.062 1.688,3.724 3.729,3.724 h 5.633 v 4.979 c 0,2.057 1.686,3.72 3.717,3.72 h 8.457 c 2.052,0 3.689,-1.671 3.689,-3.72 v -4.979 h 5.67 c 2.05,0 3.687,-1.668 3.687,-3.724 V 564.4 c 0.034,-2.027 -1.639,-3.701 -3.691,-3.701 l 0,0 z m -9.357,29.848 h -8.456 l 0,0 v -7.746 h 8.456 v 7.746 l 0,0 z m -8.457,-9.602 v -7.861 h 8.457 v 7.861 h -8.457 l 0,0 z m -1.845,0 h -7.507 v -7.861 h 6.572 0.933 l 0.002,7.861 0,0 z m 1.845,-10.642 v -5.878 l 0,0 v -0.033 h 8.457 v 6.85 h -8.457 v -0.939 l 0,0 z m 10.302,2.781 h 7.516 v 7.861 h -7.516 v -7.861 l 0,0 z m 7.512,-1.844 h -7.52 v -6.851 h 7.52 v 6.851 l 0,0 z m -27.166,-6.846 h 7.512 v 6.852 h -0.931 -6.575 l -0.006,-6.852 0,0 z m 0,26.153 v -7.746 h 7.512 v 7.746 h -7.512 l 0,0 z m 9.352,8.691 v -6.815 h 8.457 v 6.815 h -8.457 l 0,0 z m 10.302,-8.691 v -0.905 l 0,0 v -5.906 l 0,0 v -0.938 h 7.516 v 7.745 l -7.516,0.004 0,0 z"
   id="path12" style="fill:#ffffff" />
		</g>
	</g>
</svg>
