<?xml version="1.0" encoding="UTF-8" standalone="no"?>
<!-- Created with Inkscape (http://www.inkscape.org/) -->

<svg
   xmlns:dc="http://purl.org/dc/elements/1.1/"
   xmlns:cc="http://creativecommons.org/ns#"
   xmlns:rdf="http://www.w3.org/1999/02/22-rdf-syntax-ns#"
   xmlns:svg="http://www.w3.org/2000/svg"
   xmlns="http://www.w3.org/2000/svg"
   xmlns:sodipodi="http://sodipodi.sourceforge.net/DTD/sodipodi-0.dtd"
   xmlns:inkscape="http://www.inkscape.org/namespaces/inkscape"
   id="svg2837"
   version="1.1"
   inkscape:version="0.47 r22583"
   width="48"
   height="48"
   sodipodi:docname="Google.svg">
  <metadata
     id="metadata2843">
    <rdf:RDF>
      <cc:Work
         rdf:about="">
        <dc:format>image/svg+xml</dc:format>
        <dc:type
           rdf:resource="http://purl.org/dc/dcmitype/StillImage" />
      </cc:Work>
    </rdf:RDF>
  </metadata>
  <defs
     id="defs2841">
    <inkscape:perspective
       sodipodi:type="inkscape:persp3d"
       inkscape:vp_x="0 : 0.5 : 1"
       inkscape:vp_y="0 : 1000 : 0"
       inkscape:vp_z="1 : 0.5 : 1"
       inkscape:persp3d-origin="0.5 : 0.33333333 : 1"
       id="perspective2845" />
  </defs>
  <sodipodi:namedview
     pagecolor="#ffffff"
     bordercolor="#666666"
     borderopacity="1"
     objecttolerance="10"
     gridtolerance="10"
     guidetolerance="10"
     inkscape:pageopacity="0"
     inkscape:pageshadow="2"
     inkscape:window-width="899"
     inkscape:window-height="702"
     id="namedview2839"
     showgrid="false"
     inkscape:zoom="4.9166667"
     inkscape:cx="24"
     inkscape:cy="24"
     inkscape:window-x="664"
     inkscape:window-y="247"
     inkscape:window-maximized="0"
     inkscape:current-layer="svg2837" />
  <path
     style="fill:#6c92c4"
     d="m 18.024873,38.363026 c -2.616486,-1.26098 -3.972483,-5.341758 -2.550178,-7.674583 0.534927,-0.877373 2.401191,-2.238933 4.147254,-3.02569 3.811357,-1.717356 4.046708,-3.351171 0.702248,-4.875009 -2.559905,-1.166371 -4.171257,-5.074765 -3.169016,-7.686565 0.947538,-2.469243 6.909178,-5.573088 10.141428,-5.2799936 2.807486,0.2545776 3.019133,0.5664256 3.298158,4.8596226 0.20841,3.206689 -0.167849,4.974339 -1.25,5.872444 -1.986702,1.648817 -1.967048,3.447431 0.05602,5.126426 7.679522,6.373438 -2.022866,17.190925 -11.375912,12.683348 z m 9.787303,-4.288564 c 2.732022,-3.291884 -4.721827,-7.374982 -7.815567,-4.281242 -1.581457,1.581457 -1.514605,2.342538 0.371429,4.228571 1.996793,1.996794 5.808279,2.023762 7.444138,0.05267 z M 26.796609,17.686231 c 0,-3.11762 -1.629025,-5.093011 -4.2,-5.093011 -2.298884,0 -2.488565,5.168578 -0.271061,7.386082 2.128069,2.128069 4.471061,0.92642 4.471061,-2.293071 z"
     id="path2870" />
</svg>
