<?xml version="1.0" encoding="UTF-8" standalone="no"?>
<!-- Created with Inkscape (http://www.inkscape.org/) -->

<svg
   xmlns:dc="http://purl.org/dc/elements/1.1/"
   xmlns:cc="http://creativecommons.org/ns#"
   xmlns:rdf="http://www.w3.org/1999/02/22-rdf-syntax-ns#"
   xmlns:svg="http://www.w3.org/2000/svg"
   xmlns="http://www.w3.org/2000/svg"
   xmlns:sodipodi="http://sodipodi.sourceforge.net/DTD/sodipodi-0.dtd"
   xmlns:inkscape="http://www.inkscape.org/namespaces/inkscape"
   id="svg3002"
   version="1.1"
   inkscape:version="0.47 r22583"
   width="48"
   height="48"
   sodipodi:docname="Google.svg">
  <metadata
     id="metadata3008">
    <rdf:RDF>
      <cc:Work
         rdf:about="">
        <dc:format>image/svg+xml</dc:format>
        <dc:type
           rdf:resource="http://purl.org/dc/dcmitype/StillImage" />
        <dc:title />
      </cc:Work>
    </rdf:RDF>
  </metadata>
  <defs
     id="defs3006">
    <inkscape:perspective
       sodipodi:type="inkscape:persp3d"
       inkscape:vp_x="0 : 0.5 : 1"
       inkscape:vp_y="0 : 1000 : 0"
       inkscape:vp_z="1 : 0.5 : 1"
       inkscape:persp3d-origin="0.5 : 0.33333333 : 1"
       id="perspective3010" />
  </defs>
  <sodipodi:namedview
     pagecolor="#ffffff"
     bordercolor="#666666"
     borderopacity="1"
     objecttolerance="10"
     gridtolerance="10"
     guidetolerance="10"
     inkscape:pageopacity="0"
     inkscape:pageshadow="2"
     inkscape:window-width="707"
     inkscape:window-height="541"
     id="namedview3004"
     showgrid="false"
     inkscape:zoom="4.9166667"
     inkscape:cx="16.319878"
     inkscape:cy="24"
     inkscape:window-x="0"
     inkscape:window-y="0"
     inkscape:window-maximized="0"
     inkscape:current-layer="svg3002" />
  <g
     id="g3016"
     transform="translate(0.20338898,0.2033898)">
    <path
       style="fill:#fcfcfc"
       d="M 0,24 0,0 24,0 48,0 48,24 48,48 24,48 0,48 0,24 z"
       id="path3074" />
    <path
       style="fill:#f3f3f4"
       d="M 2.2,45.8 C 0.63252506,44.232525 0.48395435,3.4369677 2.0422135,2.4739106 3.4027331,1.6330633 44.597267,1.6330633 45.957786,2.4739106 47.516046,3.4369677 47.367475,44.232525 45.8,45.8 44.102531,47.497469 3.8974693,47.497469 2.2,45.8 z M 16.266031,27.162906 c 2.7583,-1.818817 2.760396,-1.829015 0.75,-3.648398 C 14.59848,21.326655 14.304989,15.43728 16.460173,12.360323 18.567379,9.3518652 22.989647,7.8329073 28.6038,8.1892379 L 33.5,8.5 l -0.338574,6 c -0.186215,3.3 -0.748715,6.4275 -1.25,6.95 -1.361953,1.419595 -1.066221,2.784059 1.191326,5.496592 2.946002,3.539738 3.86345,1.366236 3.881935,-9.196592 C 37.005603,5.7980721 36.192841,5 24,5 11.880811,5 11,5.8413925 11,17.418213 c 0,8.194409 0.544532,11.588647 1.856989,11.575198 0.353656,-0.0036 1.887725,-0.827351 3.409042,-1.830505 z M 25,17.5 C 25,16.675 24.55,16 24,16 c -0.55,0 -1,0.675 -1,1.5 0,0.825 0.45,1.5 1,1.5 0.55,0 1,-0.675 1,-1.5 z"
       id="path3072" />
    <path
       style="fill:#edf1f5"
       d="M 2.5714286,45.428571 C 1.2490126,44.106156 1,40.729497 1,24.119701 1,1.3627504 1.2760659,0.38793824 7.25,2.0504219 11.39686,3.2044498 11.604873,3.6161913 9.4681966,6.4411296 8.411632,7.8380331 8,11.10127 8,18.080346 c 0,8.05672 0.3233489,10.097405 1.9105223,12.057481 l 1.9105227,2.359395 2.115563,-2.689502 c 1.163559,-1.479227 3.015257,-2.975055 4.114883,-3.324063 1.936138,-0.614506 1.919513,-0.729405 -0.526085,-3.635833 -3.261382,-3.875933 -3.19549,-7.068934 0.224594,-10.883316 2.248899,-2.5081733 3.757717,-3.170173 8.280268,-3.6330012 7.12722,-0.7293844 8.068553,0.2931024 6.9149,7.5110482 -0.469649,2.938406 -1.390489,5.989097 -2.046311,6.779315 -0.949969,1.144643 -0.75593,1.901366 0.954369,3.721896 C 33.033952,27.600591 34,29.360842 34,30.255434 c 0,2.811874 1.759789,2.865403 3.919925,0.119235 C 39.701114,28.110255 40,26.340224 40,18.056271 40,11.098363 39.587785,7.837262 38.531803,6.4411296 36.395127,3.6161913 36.60314,3.2044498 40.75,2.0504219 46.723934,0.38793824 47,1.3627504 47,24.119701 c 0,16.609796 -0.249013,19.986455 -1.571429,21.30887 -2.341454,2.341455 -40.5156882,2.341455 -42.8571424,0 z M 25.504365,32.992937 c 0.34232,-0.553884 -0.10053,-1.284477 -0.984111,-1.623538 -1.914649,-0.73472 -2.981717,0.07492 -2.061373,1.56407 0.830379,1.343581 2.234909,1.371006 3.045484,0.05947 z M 24.647334,15.314001 c -0.282849,-0.28285 -0.995428,-0.216901 -1.583507,0.146552 -0.745041,0.46046 -0.696077,1.324628 0.161488,2.850135 L 24.45604,20.5 24.808823,18.164136 c 0.19403,-1.284725 0.12136,-2.567286 -0.161489,-2.850135 z"
       id="path3070" />
    <path
       style="fill:#e8ecf2"
       d="M 2.5714286,45.428571 C 1.2490126,44.106156 1,40.729497 1,24.119701 1,2.0077189 1.3896834,0.43023239 6.5,1.8550228 8.7345522,2.4780309 9.3975717,3.1773181 9.0985556,4.5957214 8.8777611,5.6430746 8.5115474,11.372665 8.2847474,17.328144 c -0.3317154,8.710422 -0.1020123,11.3018 1.1744974,13.25 1.9256362,2.938893 3.1976032,3.078393 4.0342202,0.442445 0.345532,-1.088675 1.942685,-2.755871 3.549227,-3.704879 2.872882,-1.697054 2.890242,-1.75915 1.054082,-3.77059 C 15.229992,20.404673 14.718009,17.44599 16.458825,14.079623 18.544572,10.046234 20.801973,9 27.418845,9 l 5.550328,0 -0.41292,5.431832 c -0.227106,2.987507 -0.931037,6.399941 -1.564291,7.583187 -0.914751,1.709228 -0.841028,2.49428 0.358731,3.819998 0.830555,0.917754 1.980284,2.905319 2.554953,4.416813 1.287596,3.386635 2.570722,3.476967 4.635109,0.326314 1.263741,-1.928712 1.518039,-4.626709 1.248871,-13.25 C 39.603732,11.372665 39.097453,5.7661305 38.664563,4.8691789 38.05694,3.6101812 38.630217,2.9759553 41.178965,2.0874572 46.634479,0.18565457 47,1.5691267 47,24.119701 c 0,16.609796 -0.249013,19.986455 -1.571429,21.30887 -2.341454,2.341455 -40.5156882,2.341455 -42.8571424,0 z M 26,32.5 C 26,30.910775 22.487678,30.401903 21.586203,31.86052 20.847732,33.055391 21.987041,34 24.166667,34 25.175,34 26,33.325 26,32.5 z M 25.444227,19.090242 C 26.307196,17.693929 24.956217,15 23.393011,15 c -1.512316,0 -1.731667,0.953901 -0.786022,3.418213 0.67419,1.756911 1.976153,2.065295 2.837238,0.672029 z"
       id="path3068" />
    <path
       style="fill:#ebebeb"
       d="M 2.5714286,45.428571 C 1.2490126,44.106156 1,40.729497 1,24.119701 1,2.0077189 1.3896834,0.43023239 6.5,1.8550228 8.7358153,2.4783831 9.3971808,3.1765164 9.0963575,4.5957214 8.8743541,5.6430746 8.5109906,11.480707 8.2888832,17.568238 7.9303424,27.39514 8.1027348,28.905304 9.826,31.033447 l 1.940948,2.39697 2.660446,-3.161761 c 1.463246,-1.738968 3.502137,-3.428902 4.53087,-3.75541 1.749409,-0.55524 1.714218,-0.749855 -0.54392,-3.007993 -3.59533,-3.59533 -3.295402,-8.586104 0.718993,-11.963995 2.644168,-2.2249206 3.932137,-2.5900627 8.25,-2.3388934 L 32.5,9.5 l -0.294708,5 c -0.162089,2.75 -0.747939,5.914045 -1.301887,7.031211 -0.786323,1.585802 -0.428849,3.065957 1.630202,6.75 C 33.984167,30.876545 35.572143,33 36.062442,33 c 0.490298,0 1.60554,-1.089835 2.478313,-2.421856 1.263741,-1.928712 1.518039,-4.626709 1.248871,-13.25 C 39.603732,11.372665 39.097453,5.7661305 38.664563,4.8691789 38.05694,3.6101812 38.630217,2.9759553 41.178965,2.0874572 46.634479,0.18565457 47,1.5691267 47,24.119701 c 0,16.609796 -0.249013,19.986455 -1.571429,21.30887 -2.341454,2.341455 -40.5156882,2.341455 -42.8571424,0 z M 26,32.5 C 26,30.910775 22.487678,30.401903 21.586203,31.86052 20.847732,33.055391 21.987041,34 24.166667,34 25.175,34 26,33.325 26,32.5 z M 26,19.081787 C 26,17.030299 24.703272,15 23.393011,15 21.975614,15 21.452745,18.119411 22.666667,19.333333 23.652742,20.319409 26,20.142276 26,19.081787 z"
       id="path3066" />
    <path
       style="fill:#e3e3e3"
       d="M 3.852625,46.358935 C 1.3539909,45.652051 1.0284637,43.025614 1.0136547,23.453391 1.0020311,8.0912052 1.2476894,5.1015178 2.6651447,3.3545797 4.1719013,1.4975823 4.4993569,1.4471377 6.1077083,2.8242511 7.4786061,3.9980504 7.650379,4.7847558 6.8587451,6.2639372 6.2679095,7.3679236 5.9740192,12.979967 6.1661815,19.488933 c 0.2779776,9.415725 0.6524835,11.658794 2.2388061,13.409125 2.5928114,2.86088 3.9527194,2.641918 5.2702314,-0.848572 0.612532,-1.622783 2.468682,-3.77453 4.124777,-4.781662 l 3.011081,-1.831148 -2.405538,-2.14267 c -3.619655,-3.224112 -3.301466,-8.362346 0.727798,-11.752748 2.644168,-2.2249206 3.932137,-2.5900627 8.25,-2.3388934 L 32.5,9.5 32.149076,15 c -0.193009,3.025 -0.827162,6.082446 -1.40923,6.794323 -0.769657,0.941302 -0.469384,2.342168 1.100924,5.136155 C 33.028347,29.043485 34,31.948539 34,33.386155 c 0,3.223541 0.686694,3.254621 4.5,0.203669 l 3,-2.400242 0,-13.844791 c 0,-14.7734782 0.745547,-17.52070162 3.799275,-13.9997241 1.643189,1.8946126 1.784556,3.9388297 1.507006,21.7918021 -0.168454,10.835585 -0.680246,20.075029 -1.137314,20.532098 -0.870441,0.87044 -38.9571031,1.498869 -41.816342,0.689968 z M 27,33.122445 C 27,31.528497 24.282157,29.954496 22.626748,30.589736 19.803828,31.672992 20.740872,34 24,34 c 1.65,0 3,-0.3949 3,-0.877555 z m -1,-15 C 26,17.089789 25.330325,15.689108 24.511833,15.009821 23.306635,14.009595 22.906,14.081386 22.404844,15.387376 22.064492,16.274319 22.045044,17.675 22.361626,18.5 23.185701,20.647505 26,20.355464 26,18.122445 z"
       id="path3064" />
    <path
       style="fill:#dae2ec"
       d="M 4.6932135,46.329302 C 1.6438892,45.489124 1,41.532494 1,23.6349 1,7.3460205 1.5105912,4 3.996218,4 4.3241379,4 4.406045,8.2616751 4.1782338,13.470389 3.9504226,18.679103 4.063264,24.936203 4.4289925,27.375055 c 1.1912143,7.943586 8.9345625,13.368603 9.1869135,6.436383 0.110885,-3.046078 3.230154,-6.879298 6.566962,-8.070034 0.896894,-0.320055 0.439731,-1.174578 -1.432868,-2.67829 -3.962095,-3.181597 -3.801775,-8.000317 0.383337,-11.521856 2.644168,-2.2249206 3.932137,-2.5900627 8.25,-2.3388934 L 32.5,9.5 32.198898,14 c -0.165606,2.475 -0.753922,5.668023 -1.307368,7.095607 -0.804196,2.074375 -0.581431,3.315651 1.109312,6.181248 1.625745,2.755431 1.955822,4.437227 1.42559,7.263606 -0.662288,3.530298 -0.594365,3.647719 1.691789,2.924619 7.560206,-2.391256 9.261931,-6.822525 8.718393,-22.702576 C 43.634007,8.8431269 43.757784,4 44.111674,4 c 0.35389,0 1.17671,0.6425547 1.828488,1.4278994 1.724042,2.0773434 1.058128,37.9787606 -0.737755,39.7745646 -0.958337,0.958295 -6.187336,1.340299 -20,1.461099 C 14.916083,46.753522 5.6869461,46.603105 4.6932135,46.329302 z M 26.809629,32.25 C 26.597025,31.146037 25.559812,30.5 24,30.5 c -1.559812,0 -2.597025,0.646037 -2.809629,1.75 C 20.927052,33.617305 21.54147,34 24,34 c 2.45853,0 3.072948,-0.382695 2.809629,-1.75 z M 26,18.581787 C 26,16.06854 24.823023,14 23.393011,14 21.978628,14 21.421819,18.088486 22.666667,19.333333 23.855461,20.522127 26,20.038612 26,18.581787 z"
       id="path3062" />
    <path
       style="fill:#dddddd"
       d="M 4.6932135,46.329302 C 1.6438892,45.489124 1,41.532494 1,23.6349 1,7.3460205 1.5105912,4 3.996218,4 c 0.3279199,0 0.409827,4.2616751 0.1820158,9.470389 -0.537311,12.285169 0.3213055,17.69756 3.320994,20.934277 2.5795562,2.783387 6.8387612,3.639695 5.8970332,1.185591 -0.897546,-2.338967 2.305382,-7.224033 5.642896,-8.606476 l 3.133473,-1.297928 -3.086315,-2.415404 c -3.873857,-3.031749 -4.150818,-7.296855 -0.698043,-10.74963 2.398,-2.398001 7.810813,-4.0102232 11.261864,-3.3543808 2.582019,0.4906905 3.140177,8.9784468 0.822985,12.5149288 -1.564709,2.388048 -1.531658,2.62742 0.68918,4.991395 1.804301,1.92059 2.293559,3.494649 2.159876,6.948834 -0.161034,4.160906 -0.02433,4.418823 2.002495,3.777959 7.332882,-2.318594 9.051002,-6.887841 8.511942,-22.637051 C 43.634007,8.8431269 43.757784,4 44.111674,4 c 0.35389,0 1.17671,0.6425547 1.828488,1.4278994 1.724042,2.0773434 1.058128,37.9787606 -0.737755,39.7745646 -0.958337,0.958295 -6.187336,1.340299 -20,1.461099 C 14.916083,46.753522 5.6869461,46.603105 4.6932135,46.329302 z M 26.5,32.513695 c 0,-2.206158 -3.108898,-3.304797 -4.739002,-1.674693 -1.680755,1.680755 -0.02293,4.337197 2.484531,3.981135 C 25.720704,34.610661 26.5,33.8134 26.5,32.513695 z M 25.607732,16.573216 C 24.797723,13.345882 22,13.134009 22,16.3 c 0,2.799489 2.015052,5.084948 3.326784,3.773216 0.509731,-0.509731 0.636158,-2.084731 0.280948,-3.5 z"
       id="path3060" />
    <path
       style="fill:#d6dce4"
       d="M 3.2,44.8 C 1.9025383,43.502538 1.69289,36.636266 2.8602684,33.673321 3.5127803,32.017169 3.7031815,32.076872 4.8998479,34.312864 6.3131366,36.953618 9.8701687,39 13.047053,39 c 2.110956,0 2.237739,-0.439151 1.010449,-3.5 -1.148776,-2.865035 1.253657,-6.972032 4.981655,-8.516219 l 3.133473,-1.297928 -3.086315,-2.415404 c -3.873857,-3.031749 -4.150818,-7.296855 -0.698043,-10.74963 2.398,-2.398001 7.810813,-4.0102232 11.261864,-3.3543808 2.582019,0.4906905 3.140177,8.9784468 0.822985,12.5149288 -1.546908,2.360879 -1.527699,2.635038 0.32674,4.663487 2.976445,3.255735 3.500701,6.173243 1.725984,9.605167 L 30.94864,39 l 3.07534,0 c 4.153785,0 8.67593,-2.479994 9.553116,-5.239033 0.695065,-2.186211 0.74468,-2.19484 1.500583,-0.260967 1.219386,3.119629 1.051017,9.971304 -0.277679,11.3 -1.694677,1.694677 -39.9053226,1.694677 -41.6,0 z M 26.776206,33.823794 C 28.274517,32.325483 26.547561,30 23.936572,30 c -2.190735,0 -3.317816,1.56411 -2.55657,3.547887 0.670999,1.748593 3.765306,1.906805 5.396204,0.275907 z M 25.607732,16.573216 C 24.797723,13.345882 22,13.134009 22,16.3 c 0,2.799489 2.015052,5.084948 3.326784,3.773216 0.509731,-0.509731 0.636158,-2.084731 0.280948,-3.5 z"
       id="path3058" />
    <path
       style="fill:#c9d6e8"
       d="M 3.2,44.8 C 1.9025383,43.502538 1.69289,36.636266 2.8602684,33.673321 3.5127803,32.017169 3.7031815,32.076872 4.8998479,34.312864 6.3162454,36.959427 9.8714749,39 13.066105,39 c 1.604122,0 1.854946,-0.466376 1.344539,-2.5 -1.060963,-4.227213 0.368264,-7.426926 4.115611,-9.213911 3.948064,-1.882701 4.343614,-2.82535 1.497832,-3.569539 -2.569323,-0.671893 -4.450854,-4.88004 -3.635126,-8.130158 0.901518,-3.591935 5.025512,-5.9660607 10.476507,-6.0311782 L 31.487428,9.5 l 0.175936,4.48173 c 0.103246,2.63005 -0.493104,5.614323 -1.44338,7.223013 -1.53662,2.601291 -1.506983,2.860859 0.58035,5.082722 2.374949,2.528018 2.91327,7.510636 1.164482,10.778276 C 31.045346,38.783787 31.274459,39 34.014476,39 c 4.162326,0 8.684688,-2.477648 9.56262,-5.239033 0.695065,-2.186211 0.74468,-2.19484 1.500583,-0.260967 1.219386,3.119629 1.051017,9.971304 -0.277679,11.3 -1.694677,1.694677 -39.9053226,1.694677 -41.6,0 z M 27.527073,33.956195 C 28.505317,32.373363 26.051382,30 23.436572,30 c -2.890067,0 -3.99158,1.62633 -2.400217,3.543805 1.396881,1.683138 5.542564,1.946536 6.490718,0.41239 z M 26,17.409598 c 0,-2.731835 -2.524572,-4.285026 -4.215871,-2.593727 -0.775248,0.775248 -0.602213,1.812823 0.61115,3.664648 C 24.35215,21.467082 26,20.977525 26,17.409598 z"
       id="path3056" />
    <path
       style="fill:#d3d3d3"
       d="M 3.2,44.8 C 1.9025383,43.502538 1.69289,36.636266 2.8602684,33.673321 3.5127803,32.017169 3.7031815,32.076872 4.8998479,34.312864 6.3090294,36.945944 9.8684453,39 13.022053,39 c 1.607155,0 1.828502,-0.497227 1.330283,-2.988319 -0.740269,-3.701345 1.67566,-7.729619 5.160314,-8.604212 C 22.17255,26.739877 22.987107,24 20.52568,24 19.714804,24 18.320993,22.587625 17.428321,20.861388 14.413536,15.031436 19.334347,9.6235077 27.139842,10.188511 L 31.443051,10.5 31.136822,15.399201 c -0.168426,2.694561 -0.790099,5.673999 -1.381495,6.620974 -0.833992,1.335434 -0.590601,2.40242 1.084704,4.75517 2.337434,3.282622 2.767841,7.220319 1.124785,10.290396 C 31.045346,38.783787 31.274459,39 34.014476,39 c 4.162326,0 8.684688,-2.477648 9.56262,-5.239033 0.695065,-2.186211 0.74468,-2.19484 1.500583,-0.260967 1.219386,3.119629 1.051017,9.971304 -0.277679,11.3 -1.694677,1.694677 -39.9053226,1.694677 -41.6,0 z M 27.527073,33.956195 C 28.505317,32.373363 26.051382,30 23.436572,30 c -2.643627,0 -3.871226,1.424926 -3.05657,3.547887 0.640596,1.669365 6.172379,1.985393 7.147071,0.408308 z M 26.608388,19.578141 C 27.43185,17.432234 25.189958,14 22.964816,14 c -2.168716,0 -2.544584,2.048176 -0.929632,5.065741 1.211816,2.264301 3.790083,2.55318 4.573204,0.5124 z"
       id="path3054" />
    <path
       style="fill:#cbcbcb"
       d="m 3.5705296,44.427672 c -1.0558893,-1.055889 -1.3615991,-2.451821 -0.9307522,-4.25 0.8576581,-3.579513 1.0076617,-3.67309 2.8825307,-1.798221 1.628839,1.628839 2.7384422,1.981151 9.8785239,3.136543 l 3.900832,0.631225 -2.650832,-3.150335 C 15.192874,37.2642 14,34.960621 14,33.87782 14,31.538486 18.259178,27 20.454545,27 22.784004,27 22.328485,25.482331 19,22.153846 15.235713,18.389559 15.231648,16.614505 18.97874,12.867417 21.57769,10.268467 22.56213,9.9276521 26.699895,10.19434 L 31.44231,10.5 31.136451,15.399201 c -0.168222,2.694561 -0.789728,5.673999 -1.381124,6.620974 -0.833992,1.335434 -0.590601,2.40242 1.084704,4.75517 2.841424,3.990411 2.728938,7.395023 -0.365842,11.072961 -1.389196,1.650965 -2.176696,3.204111 -1.75,3.451435 1.507137,0.873573 11.065409,-0.93186 13.549125,-2.559254 2.414004,-1.581716 2.541495,-1.558949 3.108314,0.555073 0.84107,3.136872 0.79501,3.384945 -0.953057,5.133011 -2.338342,2.338343 -38.5195959,2.337547 -40.8580414,-8.99e-4 z M 27.693865,33.355392 C 28.257756,31.885915 25.810174,29 24,29 c -1.810174,0 -4.257756,2.885915 -3.693865,4.355392 0.851575,2.219169 6.536155,2.219169 7.38773,0 z M 26.641336,19.49228 c 0.823993,-2.14729 -2.300022,-6.560485 -4.143325,-5.853143 -1.748837,0.671092 -1.921905,2.700293 -0.462827,5.426604 1.233133,2.30413 3.794631,2.54133 4.606152,0.426539 z"
       id="path3052" />
    <path
       style="fill:#b5c9e2"
       d="M 3.6867772,44.353444 C 2.7458938,43.41256 2.8170043,40 3.7774938,40 c 0.4276215,0 1.8901215,0.784856 3.25,1.744124 3.6438312,2.570386 30.2740672,2.56156 33.9450122,-0.01125 3.295762,-2.30986 4.230692,-2.184185 3.847045,0.517125 -0.317778,2.237518 -0.43085,2.251498 -20.382774,2.520111 C 13.402005,44.918671 4.0645047,44.731171 3.6867772,44.353444 z M 19.308297,40.001583 C 18.102861,39.509881 16.351528,37.93994 15.416447,36.512826 13.207534,33.141598 14.782405,29.285862 19.021907,27.685629 20.659858,27.067372 22,26.244797 22,25.857685 c 0,-0.387111 -1.35,-2.053839 -3,-3.703839 -3.764287,-3.764287 -3.768352,-5.539341 -0.02126,-9.286429 2.59895,-2.59895 3.58339,-2.9397649 7.721155,-2.673077 L 31.44231,10.5 31.136451,15.399201 c -0.168222,2.694561 -0.789728,5.673999 -1.381124,6.620974 -0.833992,1.335434 -0.590601,2.40242 1.084704,4.75517 2.871856,4.033149 2.723008,6.590389 -0.590031,10.136876 -3.004903,3.216638 -7.510762,4.488856 -10.941703,3.089362 z m 8.504719,-7.240579 c 0.207156,-1.093655 -0.638487,-2.179991 -2.278751,-2.927346 -2.155084,-0.981922 -2.886046,-0.910448 -4.207949,0.411455 -0.897015,0.897015 -1.323105,2.320872 -0.969935,3.241217 0.87505,2.280345 7.000166,1.68454 7.456635,-0.725326 z M 26.641336,19.49228 C 27.281507,17.824021 24.5354,13 22.945562,13 c -1.685642,0 -2.274506,2.982631 -1.09846,5.56377 1.240116,2.72176 3.907837,3.238423 4.794234,0.92851 z"
       id="path3050" />
    <path
       style="fill:#b5c4d8"
       d="M 3.6867772,44.353444 C 2.7458938,43.41256 2.8170043,40 3.7774938,40 c 0.4276215,0 1.8901215,0.784856 3.25,1.744124 3.6438312,2.570386 30.2740672,2.56156 33.9450122,-0.01125 3.295762,-2.30986 4.230692,-2.184185 3.847045,0.517125 -0.317778,2.237518 -0.43085,2.251498 -20.382774,2.520111 C 13.402005,44.918671 4.0645047,44.731171 3.6867772,44.353444 z M 19.030227,39.733752 c -1.358375,-0.694473 -3.14345,-2.462918 -3.966833,-3.929877 -1.372364,-2.445037 -1.333431,-2.848006 0.467413,-4.837916 1.080459,-1.193895 3.271914,-2.846822 4.869898,-3.673172 l 2.905426,-1.502454 -3.153066,-2.467644 c -5.702762,-4.463083 -3.382246,-11.438664 4.283628,-12.87679 5.386869,-1.010583 6.568587,-0.146594 6.527872,4.772716 -0.01949,2.354762 -0.650955,5.393163 -1.403256,6.752004 -1.234423,2.229671 -1.133442,2.74916 1.035436,5.326725 3.115853,3.702982 3.033129,5.996846 -0.346745,9.614877 -3.229328,3.456876 -7.752274,4.594299 -11.219773,2.821531 z M 27.081787,35 c 2.027898,0 0.797196,-4.098016 -1.552173,-5.168461 -4.243532,-1.933482 -7.740144,2.777131 -3.779614,5.091872 0.9625,0.562536 2.349304,0.809896 3.081787,0.549691 C 25.564271,35.212896 26.576771,35 27.081787,35 z M 26.79402,18.43461 c 0.33485,-2.328937 -3.124974,-5.966137 -4.731007,-4.973554 -1.446928,0.894251 -1.343484,4.858473 0.166174,6.368131 1.756129,1.756129 4.220059,1.003387 4.564833,-1.394577 z"
       id="path3048" />
    <path
       style="fill:#c4c4c4"
       d="M 3.6867772,44.353444 C 2.7458938,43.41256 2.8170043,40 3.7774938,40 c 0.4276215,0 1.8901215,0.784856 3.25,1.744124 3.6438312,2.570386 30.2740672,2.56156 33.9450122,-0.01125 3.295762,-2.30986 4.230692,-2.184185 3.847045,0.517125 -0.317778,2.237518 -0.43085,2.251498 -20.382774,2.520111 C 13.402005,44.918671 4.0645047,44.731171 3.6867772,44.353444 z M 20,40.301236 C 14.531149,38.25147 13.313709,32.471597 17.634859,29.07258 19.084031,27.932661 20.884031,27 21.634859,27 c 2.404205,0 1.449723,-2.444675 -1.641182,-4.20349 -5.795972,-3.298077 -2.90171,-10.972732 4.673997,-12.393944 1.824496,-0.342277 3.995655,-0.362001 4.824796,-0.04383 2.046579,0.785346 1.984624,7.983492 -0.09605,11.158997 -1.523113,2.324565 -1.469491,2.606718 1.068669,5.62315 3.07099,3.649664 2.825941,6.967884 -0.77639,10.513142 C 27.383264,39.922938 22.529198,41.249198 20,40.301236 z m 7.932638,-6.175369 c 2.060267,-3.849644 -5.676215,-7.193388 -7.812256,-3.376494 -0.707972,1.265075 -0.540401,2.234017 0.605297,3.5 2.082347,2.300967 5.944845,2.234775 7.206959,-0.123506 z M 27,18.015456 c 0,-3.168217 -2.259177,-5.513714 -4.487265,-4.658716 -1.959168,0.751803 -1.949228,5.06391 0.0162,7.029342 C 24.676717,22.53386 27,21.30202 27,18.015456 z"
       id="path3046" />
    <path
       style="fill:#a9b9d0"
       d="m 17.222506,38.443296 c -3.151015,-2.207057 -2.952245,-6.724123 0.412353,-9.370716 1.449172,-1.139919 3.249172,-2.07258 4,-2.07258 2.404205,0 1.449723,-2.444675 -1.641182,-4.20349 -5.795972,-3.298077 -2.90171,-10.972732 4.673997,-12.393944 1.824496,-0.342277 3.995655,-0.362001 4.824796,-0.04383 2.046579,0.785346 1.984624,7.983492 -0.09605,11.158997 -1.521068,2.321444 -1.469616,2.606569 1,5.541542 2.917086,3.466759 2.99041,3.793077 1.646538,7.327728 -1.858578,4.888431 -10.324362,7.205478 -14.820455,4.056292 z m 10.710132,-4.317429 c 2.060267,-3.849644 -5.676215,-7.193388 -7.812256,-3.376494 -0.707972,1.265075 -0.540401,2.234017 0.605297,3.5 2.082347,2.300967 5.944845,2.234775 7.206959,-0.123506 z M 27,18.015456 c 0,-3.168217 -2.259177,-5.513714 -4.487265,-4.658716 -1.959168,0.751803 -1.949228,5.06391 0.0162,7.029342 C 24.676717,22.53386 27,21.30202 27,18.015456 z"
       id="path3044" />
    <path
       style="fill:#b0b4bb"
       d="m 17,38 c -2.495806,-2.495806 -2.571271,-6.173031 -0.171259,-8.345012 2.894696,-2.619665 4.352251,-2.146328 2.939392,0.954559 -1.02066,2.240106 -0.91978,2.806398 0.712569,4 2.484101,1.81642 5.958061,1.771629 7.508729,-0.09681 C 29.628539,32.537732 28.636208,30.247 25.528065,28.830835 24.137629,28.197309 23,26.935828 23,26.027543 23,25.119259 21.65,23.378019 20,22.158121 16.853279,19.83165 16.062874,16.337126 18.2,14.2 19.991428,12.408572 20.878803,12.747452 20.290212,14.998231 19.670878,17.366566 22.439087,22 24.473363,22 c 3.743718,0 3.56021,-6.732266 -0.262678,-9.636702 -1.503813,-1.142521 -1.270659,-1.303537 1.928024,-1.331495 3.378083,-0.02952 3.685933,0.21992 4.298018,3.482617 0.464262,2.474728 0.155713,4.366939 -1.042974,6.396155 -1.635738,2.769084 -1.61807,2.988794 0.451982,5.620439 3.55623,4.521014 2.746038,9.594488 -1.917256,12.005971 C 23.955538,40.591473 19.365958,40.365958 17,38 z"
       id="path3042" />
    <path
       style="fill:#90abcf"
       d="m 17.222506,37.443296 c -2.695584,-1.888061 -2.880129,-5.53818 -0.393765,-7.788308 2.894696,-2.619665 4.352251,-2.146328 2.939392,0.954559 -1.02066,2.240106 -0.91978,2.806398 0.712569,4 2.484101,1.81642 5.958061,1.771629 7.508729,-0.09681 C 29.628539,32.537732 28.636208,30.247 25.528065,28.830835 24.137629,28.197309 23,26.935828 23,26.027543 23,25.119259 21.65,23.378019 20,22.158121 16.853279,19.83165 16.062874,16.337126 18.2,14.2 19.991428,12.408572 20.878803,12.747452 20.290212,14.998231 19.670878,17.366566 22.439087,22 24.473363,22 c 3.743718,0 3.56021,-6.732266 -0.262678,-9.636702 -1.503813,-1.142521 -1.270659,-1.303537 1.928024,-1.331495 3.378083,-0.02952 3.685933,0.21992 4.298018,3.482617 0.464262,2.474728 0.155713,4.366939 -1.042974,6.396155 -1.635738,2.769084 -1.61807,2.988794 0.451982,5.620439 2.976729,3.784297 2.789997,7.823759 -0.480594,10.396406 -3.153789,2.480771 -8.983737,2.728454 -12.142635,0.515876 z"
       id="path3040" />
    <path
       style="fill:#95a4ba"
       d="m 16.880932,37.104668 c -2.011827,-1.629079 -2.200085,-2.294985 -1.340119,-4.740284 1.361297,-3.870825 4.056868,-4.327208 4.001191,-0.677435 -0.03099,2.031352 0.674204,3.101031 2.68889,4.078677 C 27.823456,38.479469 31.6493,32.781994 26.5,29.408043 25.125,28.507108 24,26.910597 24,25.860239 24,24.737905 22.958155,23.55439 21.473156,22.989794 18.338674,21.798066 16.838879,18.230553 18.324421,15.5 c 1.088088,-2 1.088088,-2 1.433382,0 0.684677,3.965771 2.573181,6.5 4.843789,6.5 1.332105,0 2.507629,0.768765 2.85655,1.868116 0.326104,1.027464 1.481429,2.672209 2.567387,3.654988 C 31.111488,28.505883 32,30.55757 32,32.082407 c 0,5.947834 -9.910494,9.239908 -15.119068,5.022261 z M 28,18.89113 c 0,-1.379879 -0.660688,-3.382379 -1.468197,-4.45 -2.072669,-2.740314 -1.876874,-3.62924 0.718197,-3.260681 1.823684,0.259005 2.310295,1.055046 2.568221,4.20133 0.175022,2.134978 -0.162478,4.362478 -0.75,4.95 C 28.310593,21.089407 28,20.670528 28,18.89113 z"
       id="path3038" />
    <path
       style="fill:#7ca4d1"
       d="m 18.272002,37.789323 c -2.78319,-1.343273 -3.716082,-4.091035 -2.292217,-6.75155 1.563511,-2.921447 3.606187,-2.529831 3.559636,0.682444 -0.05032,3.472276 4.291939,5.975588 7.441473,4.290008 C 29.729544,34.539193 29.519387,31.55371 26.5,29.17866 25.125,28.097085 24,26.50098 24,25.63176 24,24.76254 22.707197,23.382826 21.127104,22.565728 17.731401,20.809742 16.674632,17.800922 18.57397,15.296476 19.841086,13.625671 19.940843,13.674885 20,16 c 0.0851,3.344985 2.235775,6 4.860243,6 C 26.037109,22 27,22.415474 27,22.923275 c 0,0.507801 1.157471,2.29885 2.572157,3.98011 3.299743,3.921521 2.852588,6.906195 -1.47004,9.812253 -3.673274,2.469504 -6.33556,2.76029 -9.830115,1.073685 z M 28,18.89113 c 0,-1.379879 -0.660688,-3.382379 -1.468197,-4.45 -2.072669,-2.740314 -1.876874,-3.62924 0.718197,-3.260681 1.823684,0.259005 2.310295,1.055046 2.568221,4.20133 0.175022,2.134978 -0.162478,4.362478 -0.75,4.95 C 28.310593,21.089407 28,20.670528 28,18.89113 z"
       id="path3036" />
    <path
       style="fill:#839dc4"
       d="m 18.272002,37.789323 c -3.084392,-1.488645 -3.835861,-4.508784 -1.707147,-6.860987 2.357959,-2.605515 3.021241,-2.428938 2.974566,0.791881 -0.05032,3.472276 4.291939,5.975588 7.441473,4.290008 C 29.729544,34.539193 29.519387,31.55371 26.5,29.17866 25.125,28.097085 24,26.50098 24,25.63176 24,24.76254 22.65,23.353248 21,22.5 c -2.253459,-1.165309 -2.985366,-2.229299 -2.941193,-4.27568 0.05433,-2.517015 0.149451,-2.578809 1.25,-0.812069 2.252021,3.615225 4.648427,5.54139 6.168512,4.958079 C 26.325006,22.045042 27,22.323574 27,22.998655 c 0,0.666948 1.148166,2.577151 2.551479,4.244894 3.249077,3.861308 2.830853,6.594545 -1.449362,9.472089 -3.673274,2.469504 -6.33556,2.76029 -9.830115,1.073685 z M 28,18.271429 c 0,-1.720715 -0.707143,-3.835715 -1.571429,-4.7 C 25,12.142857 25.041335,12 26.883258,12 c 1.531891,0 2.189698,0.871966 2.696733,3.574696 0.411757,2.194856 0.236247,4.009066 -0.454687,4.7 C 28.291565,21.108435 28,20.58939 28,18.271429 z"
       id="path3034" />
    <path
       style="fill:#7699c7"
       d="M 18.336798,37.818236 C 15.244689,36.322493 14.634258,32.921969 17.028081,30.527778 18.990715,28.564841 19,28.568106 19,31.221074 c 0,2.936516 3.164335,5.769254 6.472506,5.794239 C 27.147874,37.027966 27.239487,37.198982 26,38 c -1.903534,1.230158 -4.890852,1.159302 -7.663202,-0.181764 z m 10.374281,-2.210269 c 1.431447,-2.636125 0.557939,-5.126033 -2.342965,-6.67855 -1.777557,-0.95132 -2.380552,-2.008421 -2.165769,-3.796782 C 24.499608,22.6575 27,20.771407 27,23.022311 c 0,0.653937 1.125,2.525964 2.5,4.160058 3.067563,3.645592 3.160181,5.92492 0.341841,8.412643 -2.103582,1.856813 -2.132177,1.85714 -1.130762,0.01296 z m -9.67121,-15.059928 c -0.662761,-0.798578 -1.032725,-2.261078 -0.822142,-3.25 0.301434,-1.415571 0.74989,-1.106718 2.108256,1.451961 1.749656,3.295733 0.919763,4.455958 -1.286114,1.798039 z M 28,18.134259 c 0,-1.246158 -0.465833,-3.136158 -1.035184,-4.2 C 26.161718,12.433655 26.256002,12 27.385361,12 c 1.854144,0 3.217038,5.797601 1.715802,7.298837 C 28.299612,20.100388 28,19.783521 28,18.134259 z"
       id="path3032" />
    <path
       style="fill:#8699b6"
       d="M 18.25,37.779505 C 15.889641,36.641147 15.042821,31.709603 17,30.5 c 0.55,-0.339919 1,0.08352 1,0.940983 0,2.468001 3.74119,5.557576 6.75,5.57433 2.142937,0.01193 2.418875,0.229302 1.25,0.984687 -1.92075,1.241284 -4.894463,1.156679 -7.75,-0.220495 z M 28.849852,35.797988 C 30.581931,33.556804 29.568702,30.642319 26.48343,28.991132 24.929229,28.159349 24,26.789839 24,25.33102 c 0,-3.100075 1.99453,-2.862103 4.68959,0.559526 3.457208,4.389247 3.807355,7.369129 1.134286,9.653205 -1.635978,1.397907 -1.913979,1.470469 -0.974024,0.254237 z M 19.059925,20.572205 c -0.673792,-0.811869 -1.033743,-2.285244 -0.799891,-3.274166 0.339005,-1.433597 0.665446,-1.212534 1.610554,1.090649 1.359896,3.314004 0.979004,4.339934 -0.810663,2.183517 z M 27.704882,15.25 C 27.200246,12.623045 27.523465,11.190132 28.418716,12.085383 29.465333,13.132 30.128929,18 29.224985,18 28.679478,18 27.995432,16.7625 27.704882,15.25 z"
       id="path3030" />
    <path
       style="fill:#6893ca"
       d="m 17.2,36.8 c -1.402718,-1.402718 -1.601035,-5.434113 -0.306674,-6.234072 0.49133,-0.303659 1.172048,0.558408 1.512708,1.915704 0.340659,1.357295 1.851162,3.136168 3.356673,3.953051 L 24.5,37.919925 21.45,37.959962 C 19.7725,37.981983 17.86,37.46 17.2,36.8 z M 29.651685,32.748339 C 29.306178,31.371729 27.893205,29.50482 26.511745,28.599653 24.014526,26.963412 23.008014,23 25.089707,23 c 2.854804,0 7.475312,8.16795 6.055597,10.70484 -0.703358,1.25683 -0.983065,1.077708 -1.493619,-0.956501 z M 19.059925,20.572205 c -0.673792,-0.811869 -1.033743,-2.285244 -0.799891,-3.274166 0.339005,-1.433597 0.665446,-1.212534 1.610554,1.090649 1.359896,3.314004 0.979004,4.339934 -0.810663,2.183517 z M 27.704882,15.25 C 27.200246,12.623045 27.523465,11.190132 28.418716,12.085383 29.465333,13.132 30.128929,18 29.224985,18 28.679478,18 27.995432,16.7625 27.704882,15.25 z"
       id="path3028" />
    <path
       style="fill:#6f8bb6"
       d="m 17.2,36.8 c -1.304376,-1.304376 -1.595377,-4.071289 -0.539259,-5.127407 0.363407,-0.363408 1.159776,0.340224 1.769707,1.563625 0.609932,1.223402 2.225099,2.789101 3.58926,3.479333 L 24.5,37.970516 21.45,37.985258 C 19.7725,37.993366 17.86,37.46 17.2,36.8 z m 12.451685,-4.051661 c -0.345507,-1.37661 -1.720198,-3.218436 -3.054868,-4.092945 -1.756758,-1.151072 -2.270757,-2.186246 -1.861888,-3.749765 l 0.564787,-2.159747 1.896565,2.377059 c 4.365579,5.471596 4.974291,6.749846 4.023439,8.448925 -0.813347,1.45337 -1.024389,1.342532 -1.568035,-0.823527 z"
       id="path3026" />
    <path
       style="fill:#5387c3"
       d="m 17.944025,36.155758 c -1.660219,-1.344365 -2.065262,-2.360794 -1.494359,-3.75 0.631135,-1.53577 0.882363,-1.614545 1.29404,-0.405758 0.28097,0.825 1.432021,2.5125 2.557889,3.75 2.464988,2.709396 0.833968,2.990108 -2.35757,0.405758 z m 9.728104,-6.83927 c -1.555328,-1.7981 -2.680328,-3.96163 -2.5,-4.807845 0.232287,-1.090032 1.149214,-0.504822 3.145228,2.007379 3.682299,4.634576 3.105755,7.13694 -0.645228,2.800466 z"
       id="path3024" />
    <path
       style="fill:#5882b9"
       d="m 17.944025,36.155758 c -1.660219,-1.344365 -2.065262,-2.360794 -1.494359,-3.75 0.631135,-1.53577 0.882363,-1.614545 1.29404,-0.405758 0.28097,0.825 1.432021,2.5125 2.557889,3.75 2.464988,2.709396 0.833968,2.990108 -2.35757,0.405758 z m 9.707483,-6.727955 C 26.084838,27.542511 25.212485,26 25.712947,26 27.212201,26 31,29.968269 31,31.538955 c 0,1.906343 -0.02094,1.893141 -3.348492,-2.111152 z"
       id="path3022" />
    <path
       style="fill:#4c79b5"
       d="M 17.2,35.8 C 15.823163,34.423163 15.593272,32 16.839485,32 c 0.461717,0 1.352069,1.125 1.978561,2.5 1.205907,2.646678 0.386763,3.304809 -1.618046,1.3 z M 27.5,28.469004 C 25.85,27.116516 24.977647,26.007699 25.561439,26.004967 26.615171,26.000036 31,29.655555 31,30.538955 c 0,0.727272 -0.314061,0.541531 -3.5,-2.069951 z"
       id="path3020" />
    <path
       style="fill:#3c6bae"
       d="m 17,34.5 c 0,-0.825 0.176855,-1.5 0.393011,-1.5 0.216156,0 0.652033,0.675 0.968615,1.5 0.316583,0.825 0.139728,1.5 -0.393011,1.5 C 17.435877,36 17,35.325 17,34.5 z"
       id="path3018" />
  </g>
</svg>
