<?xml version="1.0" encoding="UTF-8" standalone="no"?>
<!-- Created with Inkscape (http://www.inkscape.org/) -->

<svg
   xmlns:dc="http://purl.org/dc/elements/1.1/"
   xmlns:cc="http://creativecommons.org/ns#"
   xmlns:rdf="http://www.w3.org/1999/02/22-rdf-syntax-ns#"
   xmlns:svg="http://www.w3.org/2000/svg"
   xmlns="http://www.w3.org/2000/svg"
   xmlns:xlink="http://www.w3.org/1999/xlink"
   version="1.1" width="46.20425" height="48.242001" viewBox="0 0 46.204249 48.242001" id="history" xml:space="preserve"><metadata id="metadata14"><rdf:RDF><cc:Work rdf:about=""><dc:format>image/svg+xml</dc:format><dc:type rdf:resource="http://purl.org/dc/dcmitype/StillImage" /><dc:title></dc:title></cc:Work></rdf:RDF></metadata><defs id="defs12" />
	<g transform="translate(-696.87027,-283.714)" id="icon-dialer-history-on">
	    <use transform="matrix(1,0,0,-1,719.9736,307.8379)" id="use4" style="overflow:visible" x="-25" y="-25" width="50" height="50" xlink:href="#Icon-bounder-box" />
		<path d="m 736.317,292.485 c -4.369,-4.365 -10.184,-6.771 -16.354,-6.771 -6.17,0 -11.979,2.404 -16.352,6.773 -8.988,9.02 -8.988,23.688 0.002,32.698 4.366,4.366 10.176,6.771 16.35,6.771 6.176,0 11.984,-2.404 16.354,-6.771 9.01,-9.013 9.01,-23.687 0,-32.7 l 0,0 z m -2.973,29.732 c -3.574,3.571 -8.328,5.541 -13.381,5.541 -5.051,0 -9.805,-1.97 -13.373,-5.539 -7.354,-7.377 -7.354,-19.381 -0.004,-26.761 3.572,-3.569 8.326,-5.538 13.377,-5.538 5.055,0 9.807,1.969 13.381,5.538 7.371,7.377 7.371,19.379 0,26.759 z"
            id="path8982" style="opacity:0.6" />
		<path d="m 729.12,311.071 -8.104,-2.973 v -14.6 c 0,-0.581 -0.469,-1.053 -1.051,-1.053 -0.578,0 -1.051,0.472 -1.051,1.053 v 15.335 c 0,0.009 0.004,0.016 0.004,0.023 0.002,0.082 0.025,0.153 0.049,0.23 0.021,0.061 0.021,0.112 0.039,0.164 0.027,0.063 0.072,0.104 0.105,0.157 0.043,0.058 0.068,0.12 0.125,0.171 0.039,0.039 0.094,0.063 0.137,0.092 0.068,0.048 0.131,0.104 0.209,0.13 0.008,0.004 0.014,0.016 0.021,0.018 l 8.784,3.222 c 0.121,0.045 0.24,0.063 0.363,0.063 0.428,0 0.832,-0.268 0.986,-0.688 0.206,-0.54 -0.069,-1.143 -0.616,-1.344 l 0,0 z"
            id="path8984" style="opacity:0.6" />
		<path d="m 736.317,290.485 c -4.369,-4.365 -10.184,-6.771 -16.354,-6.771 -6.17,0 -11.979,2.404 -16.352,6.773 -8.988,9.02 -8.988,23.688 0.002,32.698 4.366,4.366 10.176,6.771 16.35,6.771 6.176,0 11.984,-2.404 16.354,-6.771 9.01,-9.013 9.01,-23.687 0,-32.7 l 0,0 z m -2.973,29.732 c -3.574,3.571 -8.328,5.541 -13.381,5.541 -5.051,0 -9.805,-1.97 -13.373,-5.539 -7.354,-7.377 -7.354,-19.381 -0.004,-26.761 3.572,-3.569 8.326,-5.538 13.377,-5.538 5.055,0 9.807,1.969 13.381,5.538 7.371,7.377 7.371,19.379 0,26.759 z"
            id="path8986" style="fill:#ffffff" />
		<path d="m 729.12,309.071 -8.104,-2.969 v -14.601 c 0,-0.581 -0.469,-1.053 -1.051,-1.053 -0.578,0 -1.051,0.472 -1.051,1.053 v 15.335 c 0,0.009 0.004,0.016 0.004,0.023 0.002,0.082 0.025,0.153 0.049,0.23 0.021,0.061 0.021,0.112 0.039,0.164 0.027,0.063 0.072,0.104 0.105,0.157 0.043,0.058 0.068,0.12 0.125,0.171 0.039,0.039 0.094,0.063 0.137,0.092 0.068,0.048 0.131,0.104 0.209,0.13 0.008,0.004 0.014,0.016 0.021,0.018 l 8.784,3.222 c 0.121,0.045 0.24,0.063 0.363,0.063 0.428,0 0.832,-0.269 0.986,-0.688 0.206,-0.543 -0.069,-1.146 -0.616,-1.347 l 0,0 z"
            id="path8988" style="fill:#ffffff" />
	</g>
</svg>
