<?xml version="1.0" encoding="UTF-8" standalone="no"?>
<!-- Created with Inkscape (http://www.inkscape.org/) -->

<svg
   xmlns:dc="http://purl.org/dc/elements/1.1/"
   xmlns:cc="http://creativecommons.org/ns#"
   xmlns:rdf="http://www.w3.org/1999/02/22-rdf-syntax-ns#"
   xmlns:svg="http://www.w3.org/2000/svg"
   xmlns="http://www.w3.org/2000/svg"
   xmlns:xlink="http://www.w3.org/1999/xlink"
   version="1.1"
   width="46.301998" height="43.201" viewBox="0 0 46.301998 43.201" id="people-icon"
   xml:space="preserve"><metadata id="metadata13"><rdf:RDF><cc:Work rdf:about=""><dc:format>image/svg+xml</dc:format><dc:type
         rdf:resource="http://purl.org/dc/dcmitype/StillImage" /><dc:title></dc:title></cc:Work></rdf:RDF></metadata><defs id="defs11" />
<g transform="translate(-696.488,-190.631)" id="dialer">
	<g id="icon-people">
		<use id="use5" style="overflow:visible" x="0" y="0" width="50" height="50" />
		<path
   d="m 739.614,214.605 c -1.275,-1.367 -2.813,-2.358 -4.441,-2.896 0.736,-2.18 1.097,-4.897 1.097,-8.22 -0.005,-5.719 -4.354,-10.37 -9.703,-10.372 -5.349,0 -9.698,4.652 -9.709,10.375 0,1.582 0.108,3.069 0.326,4.446 -0.864,-0.845 -1.866,-1.477 -2.938,-1.825 0.537,-1.584 0.797,-3.561 0.797,-5.97 -0.002,-4.149 -3.166,-7.529 -7.049,-7.531 -3.879,0 -7.041,3.381 -7.049,7.532 0,2.313 0.319,4.352 0.939,6.011 -3.047,1.063 -5.396,4.283 -5.396,7.826 v 3.516 l 0.047,0.363 c 0.193,0.722 1.658,4.315 11.586,4.315 0.959,0 1.83,-0.036 2.633,-0.099 -0.006,0.158 -0.037,0.31 -0.037,0.469 v 4.841 l 0.066,0.502 c 0.268,0.992 2.285,5.944 15.959,5.944 13.674,0 15.69,-4.952 15.957,-5.944 l 0.063,-5.342 c 0.009,-2.94 -1.111,-5.76 -3.148,-7.941 z m -15.338,0.097 -1.639,-2.546 c -1.252,-1.955 -1.907,-4.949 -1.907,-8.661 0.007,-3.58 2.614,-6.497 5.823,-6.497 3.209,0.001 5.824,2.917 5.828,6.494 0,3.937 -0.563,6.86 -1.668,8.691 l -1.604,2.684 c -0.701,0.282 -1.492,0.427 -2.363,0.427 -0.908,0.002 -1.732,-0.208 -2.47,-0.592 z m -17.899,-6.347 -1.229,-1.919 c -0.909,-1.421 -1.396,-3.595 -1.396,-6.287 0.004,-2.602 1.902,-4.721 4.23,-4.721 2.329,0.001 4.229,2.119 4.229,4.717 0,2.857 -0.412,4.981 -1.213,6.313 l -1.104,1.848 c -0.781,0.427 -1.535,0.43 -1.971,0.43 -0.559,0 -1.071,-0.152 -1.546,-0.381 z m 4.864,10.853 c -0.898,0.094 -1.918,0.154 -3.117,0.154 -6.863,0 -8.535,-1.796 -8.818,-2.162 v -3.22 c -0.002,-3.035 2.472,-5.344 4.684,-5.375 l 0.12,-0.003 c 1.005,1.079 2.282,1.682 3.826,1.682 1.688,0 3.021,-0.584 4.021,-1.688 h 0.271 c 1.104,0 2.271,0.563 3.188,1.545 0.615,0.661 1.037,1.447 1.283,2.285 -2.538,1.381 -4.556,3.864 -5.458,6.782 l 0,0 z m 27.646,7.718 c -0.484,0.663 -2.895,3.026 -12.145,3.026 -9.453,0 -11.756,-2.472 -12.146,-2.977 v -4.432 c -0.004,-4.183 3.396,-7.358 6.441,-7.399 l 1.104,-0.019 c 1.262,1.115 2.803,1.717 4.6,1.717 1.969,0 3.586,-0.58 4.854,-1.714 h 0.791 c 1.521,0 3.123,0.776 4.389,2.126 1.361,1.459 2.105,3.338 2.105,5.292 v 4.379 l 0.007,10e-4 0,0 z"
   id="path8807"
   style="opacity:0.6" />
		<path
   d="m 739.631,212.624 c -1.271,-1.368 -2.813,-2.358 -4.438,-2.896 0.732,-2.181 1.098,-4.896 1.098,-8.221 -0.004,-5.718 -4.359,-10.37 -9.707,-10.372 -5.344,0 -9.699,4.653 -9.709,10.375 0,1.582 0.113,3.07 0.33,4.447 -0.869,-0.844 -1.869,-1.477 -2.938,-1.826 0.534,-1.584 0.8,-3.559 0.8,-5.968 -0.007,-4.151 -3.166,-7.531 -7.055,-7.532 -3.879,0 -7.041,3.381 -7.049,7.534 0,2.313 0.324,4.352 0.947,6.009 -3.047,1.064 -5.402,4.284 -5.398,7.827 v 3.516 l 0.048,0.362 c 0.192,0.722 1.657,4.317 11.591,4.317 0.959,0 1.825,-0.037 2.633,-0.102 -0.006,0.158 -0.037,0.313 -0.037,0.471 v 4.841 l 0.063,0.503 c 0.271,0.992 2.283,5.943 15.955,5.943 13.682,0 15.695,-4.951 15.959,-5.943 l 0.066,-5.342 c 0,-2.942 -1.123,-5.763 -3.159,-7.943 z m -15.339,0.096 -1.631,-2.545 c -1.252,-1.955 -1.912,-4.948 -1.912,-8.661 0.006,-3.579 2.621,-6.496 5.828,-6.496 3.211,0.001 5.824,2.916 5.828,6.493 0,3.938 -0.563,6.861 -1.666,8.694 l -1.611,2.681 c -0.701,0.283 -1.49,0.429 -2.363,0.429 -0.909,-0.002 -1.731,-0.211 -2.473,-0.595 z m -17.897,-6.346 -1.229,-1.919 c -0.908,-1.419 -1.389,-3.593 -1.389,-6.286 0.004,-2.603 1.896,-4.72 4.229,-4.72 2.332,10e-4 4.23,2.119 4.232,4.717 0,2.856 -0.41,4.981 -1.213,6.313 l -1.105,1.849 c -0.783,0.425 -1.539,0.427 -1.969,0.427 -0.57,-0.002 -1.079,-0.152 -1.556,-0.381 z m 4.863,10.854 c -0.896,0.095 -1.918,0.151 -3.117,0.151 -6.857,0 -8.537,-1.794 -8.813,-2.161 V 212 c -0.002,-3.037 2.467,-5.344 4.678,-5.375 l 0.121,-0.003 c 1.002,1.08 2.287,1.681 3.83,1.681 1.688,0 3.018,-0.584 4.02,-1.688 h 0.273 c 1.104,0 2.27,0.562 3.186,1.544 0.617,0.662 1.037,1.446 1.285,2.286 -2.543,1.379 -4.558,3.864 -5.463,6.783 z m 27.649,7.716 c -0.49,0.662 -2.896,3.024 -12.146,3.024 -9.451,0 -11.756,-2.471 -12.145,-2.976 v -4.433 c -0.004,-4.185 3.396,-7.358 6.438,-7.399 l 1.113,-0.021 c 1.254,1.115 2.795,1.72 4.592,1.72 1.967,0 3.586,-0.581 4.859,-1.715 h 0.789 c 1.521,0 3.125,0.774 4.387,2.126 1.363,1.458 2.109,3.339 2.109,5.292 l 0.004,4.382 0,0 z"
   id="path8809"
   style="fill:#ffffff" />
	</g>
</g>
</svg>
