<?xml version="1.0" encoding="UTF-8" standalone="no"?>
<!-- Created with Inkscape (http://www.inkscape.org/) -->

<svg
   xmlns:dc="http://purl.org/dc/elements/1.1/"
   xmlns:cc="http://creativecommons.org/ns#"
   xmlns:rdf="http://www.w3.org/1999/02/22-rdf-syntax-ns#"
   xmlns:svg="http://www.w3.org/2000/svg"
   xmlns="http://www.w3.org/2000/svg"
   xmlns:xlink="http://www.w3.org/1999/xlink"
   xmlns:sodipodi="http://sodipodi.sourceforge.net/DTD/sodipodi-0.dtd"
   xmlns:inkscape="http://www.inkscape.org/namespaces/inkscape"
   width="750"
   height="750"
   id="svg2"
   version="1.1"
   inkscape:version="0.48.1 r9760"
   sodipodi:docname="qgv.svg"
   inkscape:export-xdpi="90"
   inkscape:export-ydpi="90">
  <defs
     id="defs4">
    <linearGradient
       id="linearGradient2198">
      <stop
         style="stop-color:#767676;stop-opacity:1;"
         offset="0"
         id="stop2218" />
      <stop
         id="stop2220"
         offset="0.66666669"
         style="stop-color:#bbbbbb;stop-opacity:1;" />
      <stop
         id="stop2202"
         offset="1"
         style="stop-color:#dfdfdf;stop-opacity:1;" />
    </linearGradient>
    <linearGradient
       y2="74.703911"
       x2="68.138245"
       y1="65.934799"
       x1="61.794144"
       spreadMethod="reflect"
       gradientTransform="translate(189.19114,-126.09953)"
       gradientUnits="userSpaceOnUse"
       id="linearGradient5649"
       xlink:href="#linearGradient2198-1"
       inkscape:collect="always" />
    <linearGradient
       y2="67.469398"
       x2="45.680885"
       y1="54.347397"
       x1="36.311325"
       spreadMethod="reflect"
       gradientTransform="translate(202.00013,-100.48155)"
       gradientUnits="userSpaceOnUse"
       id="linearGradient5647"
       xlink:href="#linearGradient2198-1"
       inkscape:collect="always" />
    <linearGradient
       id="linearGradient2198-1">
      <stop
         style="stop-color:#767676;stop-opacity:1;"
         offset="0"
         id="stop2218-7" />
      <stop
         id="stop2220-0"
         offset="0.66666669"
         style="stop-color:#bbbbbb;stop-opacity:1;" />
      <stop
         id="stop2202-4"
         offset="1"
         style="stop-color:#dfdfdf;stop-opacity:1;" />
    </linearGradient>
    <linearGradient
       y2="74.703911"
       x2="68.138245"
       y1="65.934799"
       x1="61.794144"
       spreadMethod="reflect"
       gradientTransform="translate(300.56728,-112.21049)"
       gradientUnits="userSpaceOnUse"
       id="linearGradient2581-0"
       xlink:href="#linearGradient2198-8"
       inkscape:collect="always" />
    <linearGradient
       y2="67.469398"
       x2="45.680885"
       y1="54.347397"
       x1="36.311325"
       spreadMethod="reflect"
       gradientTransform="translate(313.37627,-86.592517)"
       gradientUnits="userSpaceOnUse"
       id="linearGradient2579-21"
       xlink:href="#linearGradient2198-8"
       inkscape:collect="always" />
    <linearGradient
       id="linearGradient2198-8">
      <stop
         style="stop-color:#767676;stop-opacity:1;"
         offset="0"
         id="stop2218-6" />
      <stop
         id="stop2220-08"
         offset="0.66666669"
         style="stop-color:#bbbbbb;stop-opacity:1;" />
      <stop
         id="stop2202-9"
         offset="1"
         style="stop-color:#dfdfdf;stop-opacity:1;" />
    </linearGradient>
    <linearGradient
       inkscape:collect="always"
       xlink:href="#linearGradient2198"
       id="linearGradient4205"
       gradientUnits="userSpaceOnUse"
       gradientTransform="translate(530.39244,-320.96998)"
       spreadMethod="reflect"
       x1="36.311325"
       y1="54.347397"
       x2="45.680885"
       y2="67.469398" />
    <linearGradient
       inkscape:collect="always"
       xlink:href="#linearGradient2198"
       id="linearGradient4207"
       gradientUnits="userSpaceOnUse"
       gradientTransform="translate(517.58345,-346.58796)"
       spreadMethod="reflect"
       x1="61.794144"
       y1="65.934799"
       x2="68.138245"
       y2="74.703911" />
  </defs>
  <sodipodi:namedview
     id="base"
     pagecolor="#ffffff"
     bordercolor="#666666"
     borderopacity="1.0"
     inkscape:pageopacity="0.0"
     inkscape:pageshadow="2"
     inkscape:zoom="0.53533333"
     inkscape:cx="375"
     inkscape:cy="485.4565"
     inkscape:document-units="px"
     inkscape:current-layer="layer1"
     showgrid="false"
     inkscape:window-width="967"
     inkscape:window-height="782"
     inkscape:window-x="14"
     inkscape:window-y="0"
     inkscape:window-maximized="0" />
  <metadata
     id="metadata7">
    <rdf:RDF>
      <cc:Work
         rdf:about="">
        <dc:format>image/svg+xml</dc:format>
        <dc:type
           rdf:resource="http://purl.org/dc/dcmitype/StillImage" />
        <dc:title></dc:title>
        <dc:creator>
          <cc:Agent>
            <dc:title>Yuvraaj Kelkar</dc:title>
          </cc:Agent>
        </dc:creator>
      </cc:Work>
    </rdf:RDF>
  </metadata>
  <g
     inkscape:label="Layer 1"
     inkscape:groupmode="layer"
     id="layer1"
     transform="translate(0,-302.36217)">
    <g
       transform="matrix(6.2774519,0,0,5.2109601,-3466.4994,-103.10008)"
       id="layer1-0"
       inkscape:label="Ebene 1">
      <path
         id="path2599"
         d="m 669.05453,152.64981 -28.1222,63.19196 -25.8107,-63.19196 15.5739,-1.77902 10.9485,33.19846 12.1924,-33.19846 15.2181,1.77902 z"
         style="font-size:89px;color:#000000;fill:url(#linearGradient2579-21);fill-opacity:1;fill-rule:nonzero;stroke:url(#linearGradient2581-0);stroke-width:2;stroke-linecap:butt;stroke-linejoin:miter;stroke-miterlimit:4;stroke-opacity:1;stroke-dasharray:none;stroke-dashoffset:0;marker:none;visibility:visible;display:inline;overflow:visible;enable-background:accumulate"
         inkscape:connector-curvature="0" />
    </g>
    <g
       transform="matrix(5.0620135,0,0,5.2500458,-2610.5332,768.05803)"
       id="layer1-1"
       inkscape:label="Ebene 1">
      <path
         d="m 588.3547,-84.128653 c 9.55145,6e-5 17.26507,3.08551 23.14087,9.25635 5.63487,5.93193 8.45233,13.28884 8.4524,22.07074 -7e-5,3.26293 -0.50435,6.45203 -1.51285,9.56734 -1.00863,3.11534 -2.46172,6.03737 -4.35929,8.7661 l -0.17926,0.26889 10.59263,9.16671 -12.46128,5.60596 -6.67337,-6.85263 c -2.49339,1.54273 -5.16374,2.66989 -8.01103,3.3815 -2.84738,0.71161 -5.84365,1.06741 -8.98882,1.06741 -8.66246,0 -15.98994,-2.99627 -21.98246,-8.98881 -5.99255,-5.99253 -8.98882,-13.32001 -8.98882,-21.98247 0,-8.7819 2.96639,-16.19856 8.89919,-22.25 5.93277,-6.05133 13.29013,-9.07703 22.07209,-9.07709 l 0,0 z m 0.0896,13.97144 c -4.2733,5e-5 -7.98208,1.80985 -11.12635,5.42941 -3.14432,3.61965 -4.71647,7.62493 -4.71645,12.01587 -2e-5,4.33124 1.57213,8.2469 4.71645,11.74698 3.14427,3.50012 6.88202,5.25016 11.21327,5.25015 1.95915,1e-5 3.82871,-0.35579 5.60867,-1.06741 l -7.47732,-7.02918 11.21463,-5.60867 5.0736,4.98398 c 1.18597,-2.55127 1.77898,-5.25103 1.77903,-8.09931 -5e-5,-4.68608 -1.5129,-8.75021 -4.53855,-12.19241 -3.20319,-3.61956 -7.11884,-5.42936 -11.74698,-5.42941 l 0,0 z"
         style="font-size:89px;color:#000000;fill:url(#linearGradient4205);fill-opacity:1;fill-rule:nonzero;stroke:url(#linearGradient4207);stroke-width:2;stroke-linecap:butt;stroke-linejoin:miter;stroke-miterlimit:4;stroke-opacity:1;stroke-dasharray:none;stroke-dashoffset:0;marker:none;visibility:visible;display:inline;overflow:visible;enable-background:accumulate"
         id="path2613"
         inkscape:connector-curvature="0" />
    </g>
    <g
       transform="matrix(6.125716,0,0,5.5611198,-3392.5582,1097.4732)"
       id="layer1-7"
       inkscape:label="Ebene 1">
      <path
         id="text2160"
         d="m 613.77829,-19.563146 c -0.6329,0.63281 -2.6251,1.51758 -5.9766,2.65429 -2.5665,0.87891 -4.7051,1.5293 -6.416,1.95118 -3.504,0.86718 -7.2481,1.30078 -11.2324,1.30078 -5.7774,0 -11.0626,-1.28907 -15.8555,-3.86719 -4.9453,-2.67187 -8.8301,-6.45116 -11.6543,-11.33789 -2.7422,-4.71092 -4.1074,-9.84373 -4.0957,-15.39844 0,-8.28512 2.9297,-15.39253 8.789,-21.32226 2.7539,-2.78901 5.9707,-4.96284 9.6504,-6.52149 3.7383,-1.58197 7.6758,-2.37885 11.8125,-2.39062 9.1406,6e-5 16.8691,2.80669 23.1856,8.41992 l -8.8594,11.0918 c -0.9727,-1.1484 -2.3086,-2.23824 -4.0078,-3.26954 -1.1836,-0.70308 -2.6602,-1.31831 -4.4297,-1.8457 -1.8985,-0.56245 -3.9141,-0.82612 -6.0469,-0.79101 -2.5547,0.04692 -5.0215,0.87309 -7.4004,2.47851 -2.332,1.57036 -4.1836,3.5977 -5.5546,6.08203 -1.3946,2.51957 -2.0919,5.16214 -2.0918,7.92774 -10e-5,6.76174 2.7421,11.68947 8.2265,14.7832 2.5898,1.47658 5.5137,2.21486 8.7715,2.21484 0.7148,2e-5 2.1621,-0.18162 4.3418,-0.54492 2.3671,-0.3867 3.6796,-0.70897 3.9375,-0.9668 l 0,-8.64843 -14.9062,0 4.2539,-11.95313 25.5586,0 0,29.95313 z"
         style="font-size:12px;font-style:normal;font-weight:normal;color:#000000;fill:url(#linearGradient5647);fill-opacity:1;fill-rule:nonzero;stroke:url(#linearGradient5649);stroke-width:2;stroke-linecap:butt;stroke-linejoin:miter;stroke-miterlimit:4;stroke-opacity:1;stroke-dasharray:none;stroke-dashoffset:0;marker:none;visibility:visible;display:inline;overflow:visible;enable-background:accumulate;font-family:Pleasantly Plump"
         inkscape:connector-curvature="0" />
    </g>
  </g>
</svg>
