<?xml version="1.0" encoding="UTF-8" standalone="no"?>
<!-- Created with Inkscape (http://www.inkscape.org/) -->

<svg
   xmlns:dc="http://purl.org/dc/elements/1.1/"
   xmlns:cc="http://creativecommons.org/ns#"
   xmlns:rdf="http://www.w3.org/1999/02/22-rdf-syntax-ns#"
   xmlns:svg="http://www.w3.org/2000/svg"
   xmlns="http://www.w3.org/2000/svg"
   xmlns:xlink="http://www.w3.org/1999/xlink"
   version="1.1"
   width="500"
   height="500"
   id="svg2">
  <defs
     id="defs4">
    <linearGradient
       id="linearGradient3753">
      <stop
         id="stop3755"
         style="stop-color:#0000ff;stop-opacity:1"
         offset="0" />
      <stop
         id="stop3757"
         style="stop-color:#00ff00;stop-opacity:1"
         offset="1" />
    </linearGradient>
    <linearGradient
       x1="2.487951"
       y1="835.40344"
       x2="512.67224"
       y2="835.40344"
       id="linearGradient3796"
       xlink:href="#linearGradient3753"
       gradientUnits="userSpaceOnUse" />
    <linearGradient
       x1="-3.8406947"
       y1="835.40344"
       x2="519.00085"
       y2="835.40344"
       id="linearGradient3830"
       xlink:href="#linearGradient3753"
       gradientUnits="userSpaceOnUse" />
  </defs>
  <metadata
     id="metadata7">
    <rdf:RDF>
      <cc:Work
         rdf:about="">
        <dc:format>image/svg+xml</dc:format>
        <dc:type
           rdf:resource="http://purl.org/dc/dcmitype/StillImage" />
        <dc:title></dc:title>
      </cc:Work>
    </rdf:RDF>
  </metadata>
  <g
     transform="translate(0,-552.36218)"
     id="layer1"
     style="fill:#0044fe;fill-opacity:1;stroke:#00ff01;stroke-width:5;stroke-linejoin:round;stroke-miterlimit:4;stroke-opacity:1;stroke-dasharray:none">
    <text
       x="-780.45563"
       y="727.49945"
       transform="matrix(0.58114071,-0.58991008,0.8475868,0.86037682,0,0)"
       id="text2985"
       xml:space="preserve"
       style="font-size:268.38833618px;font-style:normal;font-weight:normal;line-height:125%;letter-spacing:0px;word-spacing:0px;fill:#0044fe;fill-opacity:1;stroke:#00ff01;stroke-width:5;stroke-linejoin:round;stroke-miterlimit:4;stroke-opacity:1;stroke-dasharray:none;font-family:Bitstream Vera Sans"><tspan
         x="-780.45563"
         y="727.49945"
         id="tspan2989"
         style="fill:#0044fe;fill-opacity:1;stroke:#00ff01;stroke-width:5;stroke-linejoin:round;stroke-miterlimit:4;stroke-opacity:1;stroke-dasharray:none">QGV</tspan></text>
  </g>
  <path
     d="m 175.55389,489.04942 c -19.7471,-2.84562 -42.19586,-13.84256 -63.80208,-31.25465 -10.09108,-8.13223 -31.429024,-29.82131 -39.186875,-39.83172 -17.029894,-21.97468 -27.125337,-42.87158 -30.28658,-62.69121 -1.436127,-9.0039 -0.675947,-22.96254 1.644173,-30.19074 5.24201,-16.33118 19.430414,-30.84981 35.711225,-36.54238 8.278033,-2.8944 23.617967,-3.28777 34.534197,-0.88556 23.17597,5.10005 47.69593,19.736 71.87849,42.90423 39.22217,37.57701 59.22438,77.25033 55.11253,109.3128 -0.67498,5.26327 -0.72162,8.16728 -0.14051,8.7484 0.47842,0.47842 11.13992,3.27901 23.69223,6.22353 12.5523,2.94452 23.31755,5.52157 23.92278,5.72679 0.64767,0.21961 -1.72036,3.17734 -5.75559,7.1889 l -6.85599,6.81579 -19.85206,-4.47057 c -10.91863,-2.45882 -20.52289,-4.6716 -21.34281,-4.91728 -1.03247,-0.30938 -3.70966,1.77015 -8.70833,6.76425 -10.55428,10.54464 -19.56438,15.30188 -32.53315,17.17718 -6.80509,0.98402 -10.78244,0.96687 -18.03165,-0.0778 l 0,2e-5 z m 20.87103,-20.81212 c 17.64267,-6.54746 28.39419,-23.69351 26.96612,-43.00442 -1.82645,-24.6979 -18.92493,-53.34283 -49.00305,-82.09438 -40.66761,-38.87399 -78.740508,-48.9997 -101.742913,-27.05912 -21.816193,20.80912 -15.358559,56.90684 17.172456,95.99281 26.375227,31.68979 57.402517,53.2972 83.270867,57.98983 6.59525,1.19641 17.49162,0.3444 23.33652,-1.82472 l 0,0 z"
     id="path3765"
     style="fill:#ffffff;fill-opacity:1;stroke:#000000;stroke-width:4.34027767;stroke-linejoin:round;stroke-miterlimit:4;stroke-opacity:1;stroke-dasharray:none" />
  <path
     d="m 291.43931,362.89743 c -24.5113,-5.12783 -49.78102,-20.82581 -76.15243,-47.30718 -22.94178,-23.03744 -38.29526,-45.62702 -45.37607,-66.76183 -9.0544,-27.02556 -5.93233,-49.59457 9.55701,-69.08627 11.9521,-15.04045 28.49346,-24.76635 47.69386,-28.04275 l 8.74988,-1.4931 8.74863,8.74863 8.74864,8.74864 -8.78517,0.60507 c -10.26413,0.70693 -19.26496,2.8363 -27.05014,6.39938 -15.26141,6.98477 -28.39513,22.16896 -32.49242,37.56522 -1.83106,6.88051 -1.63093,19.9798 0.4316,28.25061 7.72136,30.96275 50.0102,78.58402 85.5273,96.31191 19.98129,9.97339 37.00617,10.95969 52.91203,3.06535 17.17484,-8.52416 32.96636,-30.51178 33.6025,-46.78706 l 0.14678,-3.75526 -22.9252,-22.93745 c -12.60887,-12.6156 -23.59205,-22.93746 -24.40709,-22.93746 -0.81503,0 -6.75697,5.37109 -13.2043,11.93576 l -11.72243,11.93577 -7.12291,-7.0898 -7.12291,-7.0898 17.67227,-18.30083 c 9.71974,-10.06545 17.95284,-18.30082 18.29579,-18.30082 0.34294,0 15.79272,15.46202 34.33283,34.36005 l 33.70931,34.36004 -0.186,6.77941 c -0.83404,30.39892 -21.73151,59.7019 -49.29317,69.12016 -5.83574,1.99418 -8.67679,2.41382 -17.79514,2.62852 -6.7921,0.15993 -12.96116,-0.18603 -16.49305,-0.92491 l 0,0 z"
     id="path3767"
     style="fill:#ffffff;fill-opacity:1;stroke:#000000;stroke-width:4.34027767;stroke-linejoin:round;stroke-miterlimit:4;stroke-opacity:1;stroke-dasharray:none" />
  <path
     d="m 349.0155,177.20708 c -55.46418,-33.0139 -101.05856,-60.24207 -101.32087,-60.50703 -0.2623,-0.26495 2.14873,-3.08527 5.35784,-6.26736 l 5.83476,-5.78561 86.37152,51.77758 c 49.55398,29.70638 87.29659,51.80432 88.54167,51.84028 1.85825,0.0537 2.16212,-0.31157 2.11432,-2.54148 -0.0387,-1.80664 -15.66129,-29.44294 -51.01272,-90.24141 l -50.95692,-87.637248 5.84338,-5.888505 c 3.92832,-3.958652 6.04137,-5.535263 6.4475,-4.810669 0.33225,0.59281 27.19611,47.168764 59.69747,103.502122 l 59.09338,102.42428 -7.1305,7.16774 c -3.92178,3.94224 -7.33443,7.12832 -7.58369,7.08016 -0.24926,-0.0482 -45.83297,-27.09893 -101.29714,-60.11285 l 0,0 z"
     id="path3769"
     style="fill:#0000ff;fill-opacity:1;stroke:#000000;stroke-width:4.34027767;stroke-linejoin:round;stroke-miterlimit:4;stroke-opacity:1;stroke-dasharray:none" />
  <path
     d="M 177.07271,486.48194 C 159.95343,484.2562 141.06756,475.78839 121.30042,461.47547 111.13801,454.1171 88.143051,432.12724 78.068493,420.13319 53.9369,391.40382 41.751834,360.56124 44.784353,335.88508 c 1.206534,-9.81777 3.816694,-16.7016 9.18567,-24.22555 21.230745,-29.75222 59.219347,-30.56701 101.781497,-2.18303 24.89012,16.59879 52.99011,46.49326 67.75889,72.08602 12.16002,21.07204 16.15809,37.27326 15.07087,61.07105 -0.25973,5.68497 -0.0609,7.06051 1.14816,7.94462 0.80424,0.58808 10.71719,3.33679 22.02877,6.10825 11.31158,2.77147 20.88386,5.29498 21.27171,5.60781 0.38787,0.31283 -1.17463,2.58241 -3.47222,5.0435 l -4.17742,4.47472 -20.3993,-4.68224 c -13.93483,-3.19846 -20.99617,-4.4563 -22.28277,-3.96921 -1.0359,0.39216 -4.94215,3.5102 -8.68055,6.92897 -12.03487,11.00588 -19.01245,14.59218 -31.87029,16.38055 -7.3792,1.02634 -7.26883,1.02627 -15.07466,0.0114 l 0,3e-5 z m 19.31452,-15.74041 c 6.99362,-2.28039 12.47528,-5.90833 17.9882,-11.90517 5.82193,-6.33299 9.13603,-12.99783 10.88989,-21.9002 1.18327,-6.0061 1.22977,-8.13343 0.3175,-14.52404 -3.54346,-24.82264 -16.4252,-47.15518 -43.00107,-74.54918 -29.00886,-29.90189 -56.48216,-45.37155 -80.52318,-45.34098 -13.116485,0.0167 -22.320756,3.45355 -30.848652,11.51889 -9.501579,8.98619 -13.567325,18.90511 -13.598642,33.17567 -0.04885,22.25688 12.351657,47.00775 37.511459,74.87127 24.216755,26.81912 54.701475,46.65798 77.535245,50.45843 6.41407,1.06755 17.50812,0.22381 23.72925,-1.80469 l 0,0 z"
     id="path3773"
     style="fill:#0000ff;fill-opacity:1;stroke:#000000;stroke-width:4.34027767;stroke-linejoin:round;stroke-miterlimit:4;stroke-opacity:1;stroke-dasharray:none" />
  <path
     d="m 294.35756,360.72471 c -5.60536,-0.88992 -14.57402,-3.75815 -22.4495,-7.1795 -33.5383,-14.57006 -76.76377,-57.05454 -93.71986,-92.11326 -8.18043,-16.914 -11.82573,-34.05267 -10.10186,-47.49468 2.91,-22.69096 16.94535,-41.7427 38.89413,-52.79535 5.98229,-3.01247 17.47225,-6.5565 24.12898,-7.44247 l 4.34028,-0.57766 5.98206,6.04696 5.98207,6.04696 -4.24595,0.53683 c -18.55106,2.34551 -29.22117,6.35586 -39.81521,14.96449 -10.39631,8.44795 -19.56926,22.95238 -21.30448,33.68699 -2.45436,15.18342 0.79449,31.92628 9.05748,46.67758 8.39357,14.98441 23.39913,33.99227 37.27519,47.21726 29.25459,27.88197 54.76624,40.76716 77.32706,39.05565 11.41592,-0.86604 20.20169,-4.44248 30.21003,-12.29769 13.20619,-10.36508 24.09772,-29.80039 24.09772,-43.001 l 0,-4.0147 -23.25663,-23.03077 c -12.79113,-12.66692 -24.13781,-23.31045 -25.21483,-23.65229 -2.53573,-0.8048 -4.92077,1.03308 -16.89838,13.02164 l -9.38024,9.38882 -5.26787,-5.26787 -5.26789,-5.26788 16.13874,-16.37618 16.13872,-16.37618 32.58058,32.61956 32.58058,32.61957 0,6.49468 c 0,28.30072 -22.98741,59.42493 -49.47917,66.99319 -5.70835,1.63078 -22.09069,2.50813 -28.33175,1.5173 z"
     id="path3775"
     style="fill:#0000ff;fill-opacity:1;stroke:#000000;stroke-width:4.34027767;stroke-linejoin:round;stroke-miterlimit:4;stroke-opacity:1;stroke-dasharray:none" />
</svg>
