<?xml version="1.0" encoding="UTF-8" standalone="no"?>
<!-- Created with Inkscape (http://www.inkscape.org/) -->

<svg
   xmlns:dc="http://purl.org/dc/elements/1.1/"
   xmlns:cc="http://creativecommons.org/ns#"
   xmlns:rdf="http://www.w3.org/1999/02/22-rdf-syntax-ns#"
   xmlns:svg="http://www.w3.org/2000/svg"
   xmlns="http://www.w3.org/2000/svg"
   version="1.1"
   width="750"
   height="750"
   id="svg2">
  <defs
     id="defs4" />
  <metadata
     id="metadata7">
    <rdf:RDF>
      <cc:Work
         rdf:about="">
        <dc:format>image/svg+xml</dc:format>
        <dc:type
           rdf:resource="http://purl.org/dc/dcmitype/StillImage" />
        <dc:title></dc:title>
      </cc:Work>
    </rdf:RDF>
  </metadata>
  <g
     transform="translate(-5.0000472,-0.2193211)"
     id="layer1">
    <g
       transform="translate(5.7143286,-2.8571471)"
       id="g2996">
      <path
         d="m -0.71428138,378.07647 0,-375.0000018 375.00000138,0 375,0 0,375.0000018 0,375 -375,0 -375.00000138,0 0,-375 z"
         id="path3012"
         style="fill:#fefefe" />
      <path
         d="m 543.88443,712.36765 c -11.49566,-22.26412 -27.33117,-55.10933 -33.64809,-69.79118 -2.12976,-4.95 -6.38408,-13.5 -9.45404,-19 -7.51174,-13.45766 -32.68658,-64.40325 -41.01457,-83 -3.69452,-8.25 -10.30456,-21.65052 -14.68898,-29.77894 -9.45879,-17.53595 -31.30785,-62.09669 -39.0889,-79.72106 -3.03526,-6.875 -8.93349,-18.8 -13.10717,-26.5 -7.69973,-14.2052 -8.36351,-15.90822 -6.62032,-16.98556 1.08312,-0.66941 22.28795,-2.60501 55.02336,-5.02261 11.825,-0.87331 28.7,-2.43917 37.5,-3.4797 12.3748,-1.46322 16.27423,-1.62228 17.21031,-0.702 2.4725,2.43074 38.28969,92.67692 38.28969,96.47596 0,0.50697 1.95773,5.15 4.35052,10.31784 2.39278,5.16784 8.31255,18.95857 13.15505,30.64607 4.84249,11.6875 9.08462,21.25 9.42695,21.25 0.34234,0 1.93485,-3.0375 3.5389,-6.75 5.27613,-12.21127 28.48398,-63.361 37.99938,-83.75 5.13362,-11 13.14614,-29.225 17.80559,-40.5 4.65945,-11.275 9.33001,-22.3 10.37902,-24.5 l 1.90729,-4 7.46865,0.22126 c 4.10776,0.12169 16.46865,1.37441 27.46865,2.78384 11,1.40942 29.225,3.20939 40.5,3.99993 28.27684,1.98261 32.79529,2.51913 33.34811,3.95973 0.69025,1.79878 -40.33451,78.81399 -70.59939,132.53524 -6.04214,10.725 -16.12018,29.54087 -22.39566,41.81305 -17.96127,35.12461 -39.87639,76.45733 -62.3991,117.68695 -27.12193,49.64885 -28.44837,51.94837 -30.16338,52.29118 -0.99212,0.19831 -4.88065,-6.34005 -12.19187,-20.5 z M 196.28572,727.96098 C 163.33839,724.20049 123.03179,709.74968 97.126247,692.41011 72.112596,675.66752 56.460301,657.47905 39.996632,626.02368 27.747687,602.62092 22.779636,585.0253 21.659054,561.07647 c -1.338987,-28.61652 3.330507,-51.03888 16.231933,-77.94385 19.711687,-41.10726 51.230456,-70.64277 95.894733,-89.86074 22.6399,-9.7414 54.11025,-15.19541 87.67951,-15.19541 28.99909,0 57.6623,5.01616 80.61259,14.10746 12.489,4.94728 32.10421,15.49288 40.7079,21.88553 4.4,3.26926 10.80314,7.87076 14.22919,10.22556 3.42606,2.3548 6.23856,4.89387 6.25,5.64239 0.0114,0.74852 -5.26669,7.4965 -11.72919,14.99551 -29.36378,34.07342 -47.4579,54.71924 -48.71587,55.58599 -1.00266,0.69083 -3.10574,-0.68329 -7.87751,-5.14705 -14.43918,-13.50715 -24.44205,-18.89791 -45.27881,-24.40174 -10.31367,-2.72426 -14.05676,-3.20335 -28.42442,-3.63814 -14.6169,-0.44233 -17.53246,-0.2525 -25,1.62778 -27.34469,6.88521 -52.30241,28.18654 -62.92701,53.70799 -4.90196,11.77503 -6.3399,20.79811 -5.79908,36.38926 0.42264,12.18424 0.781,14.3176 3.6285,21.60088 6.18758,15.82644 14.5228,27.00033 27.09414,36.32142 19.44148,14.41497 42.3845,22.08602 66.07992,22.09397 10.00175,0.003 29.62962,-2.15408 38.97014,-4.28347 l 5.5,-1.25386 0.32652,-7.47974 c 0.17958,-4.11386 0.0227,-12.54224 -0.34865,-18.72974 l -0.67517,-11.25 -46.40135,0 c -46.0543,0 -46.40135,-0.0153 -46.40135,-2.0422 0,-1.87502 15.59291,-40.9263 26.33649,-65.9578 l 4.50663,-10.5 18.82844,-0.74478 c 10.35564,-0.40964 47.85344,-0.63464 83.32844,-0.5 l 64.5,0.24478 0.28881,87.6695 0.28882,87.66951 -3.3605,2.56318 c -5.35788,4.08665 -16.89509,8.95674 -35.71713,15.07692 -31.77442,10.33179 -58.06447,16.15793 -83.5,18.50443 -12.86782,1.1871 -43.72286,1.13103 -54.5,-0.099 z M 476.94156,364.32647 c -4.11395,-4.8125 -11.32423,-12.5449 -16.02283,-17.18311 l -8.54292,-8.43311 -11.79504,5.61368 c -23.93508,11.39157 -44.71962,15.89536 -73.25563,15.87376 -28.00643,-0.0212 -44.75424,-4.16511 -73.66295,-18.22637 -15.50281,-7.54061 -27.15437,-15.84232 -39.85254,-28.39485 -12.36311,-12.22132 -22.07264,-25.58431 -28.70062,-39.5 -2.7506,-5.775 -5.59807,-11.63005 -6.3277,-13.01123 -5.28724,-10.00867 -10.69342,-27.98853 -13.07621,-43.48877 -1.85402,-12.06064 -1.79927,-37.96442 0.10729,-50.75658 5.42029,-36.36759 21.98625,-71.249514 45.77034,-96.375766 27.86095,-29.433174 58.72617,-44.194066 99.20297,-47.44254 44.93737,-3.606459 77.35084,3.377417 107.62363,23.188823 13.20569,8.642188 38.06862,33.645378 47.19409,47.460324 11.87461,17.976849 19.92351,38.330349 23.10475,58.425739 4.32053,27.29212 4.5665,57.64396 0.61761,76.21146 -3.68122,17.3089 -11.4208,37.02881 -21.207,54.03399 l -3.30642,5.74545 10.48667,10.58387 c 5.76767,5.82112 13.86167,13.32413 17.98667,16.67334 14.33017,11.63511 26,22.04671 26,23.19671 0,1.37839 -0.81959,1.78475 -40.68508,20.17178 -17.15179,7.91087 -31.85874,14.3834 -32.68212,14.3834 -0.82337,0 -4.863,-3.9375 -8.97696,-8.75 z m -92.75155,-90.75145 c 0.66574,-0.66764 -4.98518,-6.59932 -16.95284,-17.79512 -9.8733,-9.23651 -17.95145,-17.4147 -17.95145,-18.17376 0,-0.78793 9.33238,-6.18488 21.75,-12.5781 11.9625,-6.15889 27.07547,-13.95505 33.58437,-17.32478 l 11.83438,-6.12679 10.84872,11.48357 c 5.96679,6.31597 11.13228,11.20002 11.47885,10.85344 1.92067,-1.92066 3.70742,-12.97538 4.176,-25.83701 0.43858,-12.03848 0.19216,-16.11272 -1.45162,-24 -3.85262,-18.48588 -10.93952,-32.37978 -23.82578,-46.71056 -7.11319,-7.91056 -15.49629,-13.21002 -26.89492,-17.00191 -7.08293,-2.35622 -9.60487,-2.66803 -22,-2.72001 -12.6946,-0.0532 -14.66912,0.18556 -21.17615,2.56099 -22.49658,8.21254 -42.96174,31.75701 -50.91406,58.5749 -3.55352,11.98364 -4.54779,33.85747 -1.94732,42.84046 4.29108,14.82298 11.98203,27.72931 24.03113,40.32715 11.43529,11.95606 21.82565,18.5121 34.23913,21.60398 6.56782,1.63587 29.54648,1.65323 31.17156,0.0236 z"
         id="path3010"
         style="fill:#d6d6d6" />
      <path
         d="m 552.75911,726.03432 c -11.20872,-17.75577 -40.47339,-79.02223 -40.47339,-84.73226 0,-1.0382 1.16207,-2.50955 2.58239,-3.26968 2.15711,-1.15445 2.48462,-1.87088 1.98872,-4.35037 -0.32652,-1.63257 -1.75671,-4.9529 -3.17821,-7.3785 -2.00411,-3.41976 -3.01217,-4.27733 -4.48872,-3.81861 -1.0473,0.32536 -2.77538,0.86152 -3.84017,1.19146 -1.51881,0.47063 -2.59313,-0.44518 -4.9856,-4.25 -9.48052,-15.07719 -36.80846,-71.02779 -40.15895,-82.22054 -1.27505,-4.25947 -1.23979,-4.42057 1.38611,-6.3334 3.22869,-2.35194 3.3775,-4.75347 0.6444,-10.3993 -2.97797,-6.15166 -4.34552,-7.02272 -7.63829,-4.86522 -2.67789,1.75463 -2.71794,1.74451 -5.28945,-1.33574 -7.15303,-8.56818 -40.66339,-76.88825 -42.56887,-86.78833 -0.47999,-2.49383 -0.10731,-3.15999 2.62013,-4.68351 3.38298,-1.88969 3.39032,-1.94922 1.39608,-11.32341 -0.64784,-3.04525 -0.48763,-3.20013 9.14141,-8.83756 9.0357,-5.29004 10.69645,-5.88876 21.27351,-7.66933 16.92824,-2.84975 22.48543,-4.52946 29.80268,-9.00811 5.9005,-3.61151 16.78479,-6.88544 22.89084,-6.88544 3.64049,0 35.42199,79.94389 35.42199,89.10125 0,2.16732 -0.65806,3.24146 -2.5,4.0807 -3.23208,1.47264 -3.24213,4.68204 -0.0362,11.56805 2.64734,5.68626 3.3657,6.06308 7.00844,3.67626 2.32952,-1.52636 2.47704,-1.45862 4.9,2.25 1.98318,3.03549 18.26707,40.02305 20.94449,47.57374 1.11965,3.15754 2.36132,1.85648 5.60662,-5.87479 5.24271,-12.48967 25.25608,-55.78164 33.19102,-71.79723 6.18783,-12.4893 8.0344,-15.35749 11.38567,-17.68484 8.15885,-5.66608 9.66247,-7.26574 12.92989,-13.75575 3.71655,-7.3821 6.21283,-14.82801 5.28293,-15.7579 -0.33419,-0.3342 -2.22996,0.39504 -4.21282,1.62051 -1.98286,1.22547 -3.85238,1.98096 -4.15448,1.67885 -1.13933,-1.13932 11.49392,-33.84589 14.1096,-36.52874 1.10451,-1.13288 3.38423,-1.08939 14.18049,0.27049 13.21684,1.66478 23.21013,3.40905 24.71997,4.31472 0.47057,0.28227 -1.28961,1.76608 -3.91152,3.29735 l -4.76709,2.78413 3.91152,1.1352 c 2.15133,0.62437 7.96151,1.38544 12.91151,1.69128 8.81152,0.54443 9.12565,0.48593 15,-2.7936 5.7754,-3.22429 6.37433,-3.34346 16,-3.18356 17.91854,0.29767 28.5,1.37259 28.5,2.89519 0,4.10498 -65.33452,123.91328 -74.08549,135.85554 -1.57859,2.15427 -5.51562,5.58953 -8.74895,7.63392 -4.62261,2.92281 -6.86227,5.29501 -10.48137,11.10163 -5.00942,8.03727 -9.31973,17.54539 -8.3799,18.48522 0.32478,0.32478 2.1298,-0.36082 4.01114,-1.52355 3.99505,-2.4691 4.68453,-2.5849 4.68453,-0.78679 0,6.49704 -87.70726,169.67272 -91.19944,169.67272 -0.42651,0 -1.92373,-1.81897 -3.32717,-4.04215 z M 516.2965,552.00558 c 14.01907,-8.28898 25.88131,-15.45357 26.36052,-15.9213 1.72853,-1.68709 -6.10955,-23.00781 -8.4583,-23.00781 -0.76583,0 -52.60975,30.54002 -54.57825,32.15075 -1.2281,1.00489 -0.69061,3.84498 1.76935,9.34925 2.48836,5.56781 7.05942,12.5 8.24245,12.5 0.64626,0 12.64516,-6.7819 26.66423,-15.07089 z m 131.48922,-77.91974 c 25.3,-14.95696 46.78185,-28.16532 47.73745,-29.35192 5.1667,-6.41565 22.44211,-38.31123 21.34468,-39.40866 -0.22596,-0.22596 -1.46188,0.14343 -2.74648,0.82086 -6.16387,3.25048 -100.74912,59.52493 -103.60905,61.64325 -3.66412,2.71398 -9.45631,13.47659 -14.82728,27.55092 -4.52784,11.86498 -4.4524,12.35815 1.35068,8.82885 2.6125,-1.58886 25.45,-15.12635 50.75,-30.0833 z m -447.5,253.31641 c -14.81528,-1.49908 -38.2337,-6.85881 -44.89065,-10.27403 l -3.43174,-1.76058 3.83561,-2.60636 3.8356,-2.60636 -4.92441,-2.11761 c -2.70842,-1.16469 -7.17441,-2.71298 -9.92441,-3.44065 -4.68323,-1.23921 -5.25342,-1.17779 -9,0.96944 -3.9626,2.27103 -4.05143,2.27621 -9.5,0.55452 -25.73368,-8.13158 -57.894766,-34.35516 -73.363313,-59.81914 -5.021473,-8.26623 -5.548867,-11.39887 -2.219074,-13.18092 1.420312,-0.76013 2.582386,-1.99894 2.582386,-2.75291 0,-1.96939 -3.872459,-9.40546 -6.250114,-12.00174 -1.832399,-2.00089 -2.222195,-2.07203 -4.109655,-0.75 -3.455777,2.42052 -4.468143,1.75236 -8.014296,-5.28944 -14.102747,-28.00462 -16.53403,-69.94647 -5.956206,-102.75 3.60176,-11.16964 5.750594,-14.63373 11.143541,-17.9643 2.577701,-1.59193 7.136105,-4.95121 10.129786,-7.46506 4.269812,-3.58544 90.427035,-59.81424 149.556945,-97.60535 8.35218,-5.33805 9.61183,-5.82408 17.5,-6.75231 15.47301,-1.82078 48.04538,1.90698 68.37894,7.82567 21.51021,6.26118 50.43105,20.86154 57.95526,29.25806 1.79159,1.99931 1.77417,2.08618 -0.75,3.74008 -3.40951,2.23399 -3.26509,3.41093 0.9158,7.46321 1.925,1.86578 3.5,3.78408 3.5,4.26289 0,0.4788 -1.05861,2.30303 -2.35247,4.05383 -1.29386,1.7508 -2.71339,3.81531 -3.15451,4.58779 -0.9315,1.63121 -1.12762,1.7379 9.4085,-5.11836 4.07083,-2.64905 7.62188,-4.59608 7.89123,-4.32674 0.26934,0.26935 -1.45535,3.01089 -3.83266,6.09232 -9.86327,12.78463 -52.63983,62.44827 -53.78828,62.44827 -0.39122,0 -4.92137,-4.22764 -10.067,-9.39475 l -9.35569,-9.39476 2.62544,-1.72025 c 1.44399,-0.94614 2.62544,-2.28371 2.62544,-2.97236 0,-1.63217 -6.43459,-5.85485 -11.42296,-7.49629 -3.58435,-1.17944 -4.29221,-1.08914 -8.20111,1.04618 l -4.27815,2.33704 -12.79889,-2.89335 c -17.75182,-4.01303 -41.66844,-4.74302 -54.03054,-1.64913 -39.10768,9.78755 -68.3009,43.98776 -70.76688,82.90422 -0.82548,13.02717 -0.95524,13.47957 -4.4603,15.55006 -2.70792,1.59961 -3.03876,2.31076 -3.01921,6.48993 0.0121,2.5814 0.90772,6.64536 1.99031,9.03101 l 1.96834,4.33755 3.41184,-2.10863 3.41184,-2.10863 3.76183,6.77108 c 7.59178,13.66479 17.10524,23.93468 30.17126,32.57025 17.82988,11.78408 35.74806,17.78078 57.75037,19.32738 5.26877,0.37036 9.78953,1.01308 10.04613,1.42827 0.2566,0.41519 -1.61417,1.97427 -4.15727,3.46462 -5.26628,3.08625 -4.6003,4.4397 2.19717,4.46525 4.77597,0.018 21.06047,-2.66932 26.99037,-4.45396 5.54628,-1.66918 22.28595,-12.54026 23.07133,-14.98298 0.78897,-2.45389 0.82901,-17.41659 0.0487,-18.19691 -0.31844,-0.31843 -2.11873,0.37264 -4.00064,1.53572 l -3.42165,2.1147 -0.61994,-3.75063 c -0.34097,-2.06285 -0.63178,-6.22563 -0.64626,-9.25063 -0.0145,-3.025 -0.42245,-6.12556 -0.90662,-6.89013 -0.73023,-1.15313 -6.73729,-1.33552 -35.23469,-1.06984 -49.73088,0.46364 -57.85438,0.26116 -57.85438,-1.44202 0,-1.89435 13.91496,-35.50267 20.20407,-48.79819 l 5.06145,-10.70019 9.61724,-6.40079 c 5.28948,-3.52043 10.66009,-6.94992 11.93469,-7.62109 1.2746,-0.67117 9.1496,-1.64284 17.5,-2.15925 17.9595,-1.11067 128.85641,-1.54711 130.52851,-0.5137 1.37473,0.84963 1.44974,9.98499 0.19716,24.01135 -0.70584,7.90393 -1.24975,10.11998 -2.68038,10.9206 -5.27682,2.95306 -6.36339,5.2414 -6.34743,13.3678 0.0196,9.97063 0.76842,11.2977 4.76796,8.44978 l 2.99006,-2.12912 0.64168,2.2374 c 0.35293,1.23056 1.04219,15.51239 1.5317,31.73739 1.04149,34.52048 -0.0307,84.1913 -1.86499,86.40153 -3.86262,4.65418 -41.48745,18.56996 -70.27302,25.99092 -14.49171,3.73599 -32.89135,7.04111 -47.8087,8.58786 -8.82555,0.9151 -44.05712,1.14917 -52,0.34547 z m -73.71553,-73.32578 c 15.75456,-10.175 28.6606,-18.95897 28.68009,-19.51993 0.0488,-1.40539 -17.73542,-16.48007 -19.44224,-16.48007 -1.17818,0 -55.593928,34.73779 -57.808829,36.90385 -1.971727,1.92825 15.59345,18.53554 18.856417,17.82811 0.58845,-0.12758 13.960002,-8.55696 29.714562,-18.73196 z m 150.53085,-97.64892 38.31532,-24.85108 -4.81532,-0.66239 c -6.47072,-0.89012 -31.58316,-0.86964 -37.81532,0.0308 -4.26879,0.61679 -10.14409,4.05511 -40.17534,23.51125 -19.34644,12.53384 -35.44918,23.50242 -35.78387,24.37461 -0.33469,0.87219 -0.0308,1.98966 0.67534,2.48326 0.70978,0.49616 10.227,0.6889 21.28387,0.43103 l 20,-0.46644 38.31532,-24.85107 z M 53.700015,459.2422 c 0.80611,-1.55884 3.376143,-5.27134 5.711183,-8.25 19.516664,-24.89609 42.564562,-42.62621 71.382522,-54.91261 10.82477,-4.6151 26.9325,-9.49992 34.492,-10.46003 l 5.5,-0.69855 -8.12372,5.51065 c -4.46805,3.03085 -15.71805,9.34992 -25,14.04237 -24.33973,12.30486 -40.469803,23.09281 -59.376281,39.71145 -6.539067,5.74779 -23.652067,17.89099 -25.213159,17.89099 -0.461011,0 -0.178656,-1.27542 0.627455,-2.83427 z M 396.51695,407.36444 c -4.35123,-6.19239 -10.26038,-17.65882 -9.49487,-18.42433 0.99915,-0.99915 18.7677,-2.57853 38.26364,-3.40111 l 14.5,-0.61179 -5,3.23395 c -9.01272,5.82934 -13.45236,7.76667 -19.26779,8.40788 -11.40338,1.25736 -11.28148,1.19524 -10.99119,5.60081 0.22705,3.446 -0.12993,4.18027 -2.89589,5.95654 l -3.15487,2.02602 -1.95903,-2.78797 z m 86.26068,-38.47996 c -4.42522,-5.25907 -5.10543,-7.4726 -3.00835,-9.78984 1.74192,-1.92481 1.71933,-2.11319 -0.69016,-5.75417 -3.2593,-4.92514 -7.20158,-7.11469 -9.84154,-5.46601 -2.95705,1.84671 -3.54342,1.59347 -9.95186,-4.29799 -3.29044,-3.025 -6.52474,-5.5 -7.18733,-5.5 -0.66259,0 -5.054,1.98344 -9.75869,4.40765 -29.9317,15.42304 -70.02566,20.90391 -104.05398,14.22425 -9.5532,-1.87527 -22.81512,-6.09227 -25.823,-8.21115 l -2.32301,-1.63643 2.17777,-2.31813 c 1.19778,-1.27497 1.89708,-2.77232 1.554,-3.32742 -0.80671,-1.30529 -11.04097,-5.13877 -13.71898,-5.13877 -1.13201,0 -3.36472,0.77178 -4.96159,1.71508 -2.84446,1.68026 -3.04041,1.64752 -9.65429,-1.61324 -22.78554,-11.23365 -49.14148,-38.72164 -57.9779,-60.46821 l -2.44993,-6.02931 2.58847,-1.88557 c 3.11223,-2.2671 3.20296,-4.02034 0.59245,-11.44772 -1.09781,-3.12346 -1.66031,-5.95982 -1.25,-6.30304 4.7474,-3.97113 54.25207,-39.96799 54.96598,-39.96799 0.5299,0 1.4906,1.6875 2.13489,3.75 0.64429,2.0625 1.8584,4.64796 2.69802,5.74547 1.46559,1.91574 1.64567,1.92713 4.50674,0.2851 l 2.98015,-1.71038 2.73012,5.10655 c 12.06955,22.57552 29.58923,40.86285 45.9039,47.91524 6.51826,2.81767 18.72531,5.8922 23.73617,5.97831 2.24952,0.0387 4.92446,0.3985 5.9443,0.79965 1.62689,0.63994 1.41967,1.02716 -1.68988,3.15786 -4.2371,2.90331 -3.27474,3.93492 3.69128,3.95689 9.19482,0.029 26.64434,-6.1174 26.64434,-9.38517 0,-1.74506 -7.53701,-8.59952 -9.45583,-8.59952 -0.79753,0 -2.59593,0.52209 -3.99643,1.1602 -2.20412,1.00427 -3.04498,0.80543 -6.25619,-1.47938 -5.14401,-3.66002 -31.29155,-27.69505 -31.29155,-28.76345 0,-1.31239 2.04079,-2.44491 34.82159,-19.3239 19.1034,-9.83643 30.82081,-15.33168 31.67094,-14.8531 1.18157,0.66517 6.60271,6.47266 18.33426,19.6409 1.82973,2.05381 3.85473,3.55857 4.5,3.3439 0.64527,-0.21466 1.96928,-4.40314 2.94225,-9.30773 2.67176,-13.46797 1.89072,-37.59574 -1.62235,-50.11708 -3.48293,-12.41393 -7.45692,-20.8594 -15.32051,-32.55897 l -6.60056,-9.82042 2.13719,-2.27494 c 2.77271,-2.95141 2.7083,-3.55343 -0.82217,-7.6838 -1.62765,-1.90423 -2.97765,-3.9823 -3,-4.61793 -0.0367,-1.04226 48.60463,-37.887214 51.46759,-38.985834 0.65822,-0.252583 3.55786,1.008492 6.44364,2.80239 5.16305,3.209533 5.29437,3.234366 8.22115,1.554624 2.15152,-1.234803 3.48145,-1.435585 4.80766,-0.725822 5.20913,2.787844 19.6986,22.275704 26.40237,35.510342 4.79744,9.47113 10.31553,26.69409 12.1229,37.83779 2.027,12.4978 1.9417,13.44163 -1.50595,16.66221 -2.81065,2.62554 -2.99903,3.26624 -2.98469,10.15121 0.0192,9.21543 0.84103,10.82816 4.3472,8.53083 3.47676,-2.27806 3.8958,-1.25333 4.43375,10.84231 1.18112,26.55715 -6.12399,55.16101 -20.85568,81.66238 -3.26732,5.87771 -5.94058,11.28897 -5.94058,12.02503 0,0.73606 3.4065,4.70203 7.56999,8.81327 9.64762,9.52652 10.35844,10.76605 7.43735,12.96943 l -2.23014,1.6822 3.25985,3.71275 c 1.79291,2.04202 4.58395,4.39748 6.20232,5.23437 2.64699,1.36881 3.117,1.36368 4.6803,-0.0511 0.9558,-0.86498 2.2102,-1.5727 2.78757,-1.5727 1.25452,0 14.68394,10.1902 20.40332,15.48196 2.23043,2.06368 3.68051,4.12643 3.22239,4.5839 -0.87098,0.86974 -66.98718,31.37223 -70.23748,32.40384 -1.31273,0.41664 -2.67709,-0.3722 -4.60356,-2.66169 z m -39.89516,-70.57265 65.09675,-48.21276 3.11298,-6.7613 c 4.6456,-10.09011 8.64789,-28.2613 6.22469,-28.2613 -0.75039,0 -168.1454,123.10529 -174.94784,128.65977 -0.78233,0.63881 0.81206,1.57128 4.11592,2.40718 1.81541,0.45931 9.60075,0.73297 17.30075,0.60814 l 14,-0.22697 65.09675,-48.21276 z m 2.43689,-61.98536 c 1.19753,-3.1625 2.42487,-7.51767 2.72741,-9.67815 l 0.55008,-3.92815 -6.40557,4.85473 c -3.52306,2.67011 -6.55915,4.96636 -6.74687,5.10279 -1.40984,1.02465 4.57907,9.39878 6.72171,9.39878 0.53675,0 1.9557,-2.5875 3.15324,-5.75 z m -230.3073,11.90459 c -6.441,-14.85169 -9.71666,-33.39429 -9.72232,-55.03526 -0.005,-17.78332 1.81087,-31.36294 6.05377,-45.28063 2.68825,-8.81807 3.37367,-10.03999 7.85311,-14 3.91825,-3.4639 6.33385,-7.14831 11.98047,-18.27334 3.88997,-7.66406 6.87655,-14.13077 6.63684,-14.37048 -0.23971,-0.23971 -2.3374,0.96259 -4.66154,2.67179 -2.32414,1.70919 -4.40018,2.93315 -4.61342,2.71991 -0.66271,-0.66271 4.79405,-10.738359 9.98114,-18.429718 6.54048,-9.698145 23.83391,-27.490668 34.59667,-35.595141 9.75199,-7.343351 26.72074,-16.508059 37.10403,-20.039646 7.69622,-2.617653 22.95513,-5.965192 23.71718,-5.203138 0.26664,0.266635 -1.63576,2.103952 -4.22754,4.082926 -5.43128,4.147094 -5.07202,4.240254 8.07527,2.093985 16.30607,-2.661934 19.92189,-3.681021 24.36283,-6.866448 l 4.36283,-3.129402 13.63717,0.07223 c 28.0953,0.148804 54.56687,7.979148 76.57938,22.652329 6.58282,4.388002 17.55779,14.563335 17.55779,16.27853 0,0.586133 -1.27863,1.820999 -2.84139,2.744148 -2.78675,1.646172 -2.94542,1.610708 -8.25,-1.843992 -5.62257,-3.66179 -11.31936,-6.403245 -13.30605,-6.403245 -1.33223,0 -53.94691,38.655568 -54.41147,39.975651 -0.16989,0.482782 3.31761,3.204091 7.75,6.047361 4.4324,2.84326 8.05891,5.74949 8.05891,6.45827 0,0.70879 -1.16984,2.05521 -2.59965,2.99205 -2.5127,1.64639 -2.97256,1.57919 -13.75,-2.00929 -17.79602,-5.9254 -36.19902,-6.00129 -50.15035,-0.20681 -8.15496,3.38705 -17.5338,10.08513 -25.07216,17.90578 -16.63737,17.26038 -24.9692,35.39215 -27.84875,60.60464 -1.22211,10.70041 -1.69992,12.51664 -3.7401,14.21673 -4.5689,3.80727 -5.14003,2.87624 -6.43144,-10.48438 -0.37213,-3.85 -0.95599,-7.76719 -1.29746,-8.70487 -0.50207,-1.3787 -6.16807,2.40708 -29.61547,19.78783 l -28.99462,21.49271 0.0685,6.71216 c 0.0377,3.6917 0.88839,9.15604 1.89043,12.143 l 1.8219,5.43083 -2.69619,2.31917 c -1.48288,1.27554 -3.28725,2.31917 -4.00969,2.31917 -0.72244,0 -2.45431,-2.63043 -3.84861,-5.84541 z"
         id="path3008"
         style="fill:#c7c7c7" />
      <path
         d="m 200.90221,727.04702 c -14.31482,-1.63341 -37.61649,-6.85489 -37.61649,-8.42917 0,-0.20804 1.60794,-1.37202 3.5732,-2.58662 1.96526,-1.2146 3.20276,-2.56689 2.75,-3.0051 -1.02914,-0.99607 -25.84092,-10.1802 -33.52575,-12.40963 -5.60496,-1.62605 -5.77053,-1.61524 -9.67386,0.63123 -3.64091,2.09544 -4.28961,2.1752 -7.79744,0.95869 -2.10438,-0.72979 -7.87615,-3.54224 -12.82615,-6.24988 -19.841562,-10.85331 -36.739838,-26.35446 -48.900273,-44.85727 -4.275374,-6.50523 -4.555466,-9.26631 -1.099728,-10.84085 1.375,-0.62649 2.5,-1.89923 2.5,-2.82832 0,-1.84845 -7.27544,-15.73035 -12.678082,-24.19041 -3.356814,-5.25647 -3.444537,-5.3129 -5.829824,-3.75 -1.33195,0.87273 -2.878414,1.58678 -3.436587,1.58678 -2.44348,0 -8.407591,-16.28205 -11.721593,-32 -2.534588,-12.02128 -2.28942,-37.66479 0.493678,-51.63648 2.868684,-14.40135 5.159507,-19.21253 10.867349,-22.82358 2.561954,-1.62082 5.591164,-2.87731 6.731578,-2.7922 1.224045,0.0913 36.69032,-22.29805 86.573482,-54.6527 68.49646,-44.42739 84.50525,-55.21528 84.52772,-56.96091 0.0189,-1.47093 1.76219,-3.339 5.5,-5.89381 l 5.47228,-3.74032 12.31743,0.17575 c 20.30212,0.28969 44.24397,4.84304 62.46409,11.87966 11.03303,4.26096 26.68587,12.33338 33.15522,17.09867 l 4.93674,3.63639 -2.80852,2.23943 c -1.54468,1.23169 -2.64122,2.67843 -2.43674,3.21499 0.20448,0.53656 3.40928,3.54164 7.12178,6.67796 3.7125,3.13632 6.75,6.02918 6.75,6.42859 0,0.39941 -4.95785,6.55873 -11.01744,13.68738 -11.37625,13.3833 -16.57309,20.21588 -15.88111,20.87979 0.2192,0.21031 3.77355,-1.83644 7.89855,-4.54833 10.94709,-7.19693 11.35682,-7.40552 10.16236,-5.17366 -1.27452,2.38146 -31.20923,38.2031 -34.00416,40.69139 -2.50307,2.22845 -3.06304,1.89199 -9.3515,-5.61888 l -4.13169,-4.93486 2.91249,-2.34988 c 3.70157,-2.98653 2.92182,-4.46149 -5.35468,-10.1288 -5.90454,-4.04312 -13.36011,-7.32748 -21.69242,-9.55603 -3.76376,-1.00665 -4.47346,-0.87223 -8.11364,1.53672 l -3.9891,2.63986 -8.96883,-1.66553 c -5.94441,-1.10389 -14.53288,-1.6826 -25.46883,-1.71613 -14.18879,-0.0435 -17.59096,0.26255 -24.2885,2.18496 -37.3298,10.7149 -64.32671,40.98116 -69.77195,78.2214 -1.10265,7.54104 -1.43447,8.3052 -4.47066,10.29547 -2.31772,1.5193 -3.44188,3.14982 -3.83289,5.55934 -1.23573,7.61488 2.67221,24.85809 6.93565,30.60257 1.39121,1.8745 1.577,1.88519 4.34514,0.25 4.0223,-2.37603 4.60954,-2.2107 7.23466,2.03684 12.56307,20.32747 40.24423,38.24118 68.56083,44.36874 5.38325,1.16491 10.15816,2.45879 10.61092,2.87531 0.45276,0.41651 -0.78474,1.75105 -2.75,2.96565 -5.85798,3.62043 -4.78461,4.36877 8.02433,5.59445 11.07206,1.05948 43.98638,-4.19695 54.52597,-8.70783 4.3364,-1.85595 4.66239,-2.26265 5.25,-6.54967 0.81028,-5.9117 0.81079,-27.12028 7.3e-4,-31.17054 l -0.62576,-3.12883 -3.24227,2.00383 c -1.78325,1.10211 -3.46868,2.00383 -3.7454,2.00383 -0.27673,0 -0.80161,-2.25 -1.16641,-5 -0.36892,-2.78104 -1.20273,-5.05155 -1.87883,-5.11616 -0.66856,-0.0639 -21.52336,-0.0183 -46.344,0.10119 -29.10862,0.1402 -45.34684,-0.13602 -45.74369,-0.77813 -0.61958,-1.0025 11.12288,-29.80246 16.47823,-40.41508 2.23095,-4.42104 4.20147,-6.60525 8.73884,-9.68652 4.59533,-3.12063 6.48325,-5.23171 8.75672,-9.79182 2.47899,-4.97234 3.3324,-5.85078 5.89834,-6.07127 8.97192,-0.77094 11.78705,-1.62815 17.52377,-5.33597 l 6.18063,-3.99473 20.6478,-0.9295 c 27.72286,-1.248 108.46655,-1.26326 109.70908,-0.0207 0.58057,0.58057 0.69745,5.21968 0.29513,11.71375 -0.59934,9.67427 -0.9013,10.93697 -3.01127,12.59238 -1.28983,1.01194 -3.09576,2.45478 -4.01319,3.20629 -0.99946,0.81871 -1.95808,3.68762 -2.39161,7.15747 -0.91383,7.31408 0.10666,31.31583 1.38585,32.59502 0.61334,0.61334 1.91265,0.33581 3.59812,-0.76855 1.45096,-0.95071 2.92836,-1.4383 3.28311,-1.08355 1.59393,1.59393 2.41654,29.16676 1.8833,63.12591 -0.31955,20.35 -0.84374,38.35678 -1.16487,40.01507 -0.4598,2.37433 -2.10781,4.01182 -7.75487,7.70542 -8.53975,5.58563 -16.61109,9.01329 -36.97623,15.70276 -26.4421,8.6856 -43.06213,12.69986 -64.69475,15.62581 -13.68549,1.85105 -49.27627,2.6889 -60.38351,1.42149 z M 345.76755,691.5537 c 4.78807,-1.38753 10.04324,-3.21451 11.67816,-4.05996 2.63888,-1.36462 2.89719,-1.8953 2.30094,-4.72723 -0.3694,-1.75452 -0.96173,-3.47275 -1.31628,-3.81828 -0.35456,-0.34552 -6.04465,2.90784 -12.64465,7.22971 -6.6,4.32187 -11.26284,7.86708 -10.36187,7.87824 0.90098,0.0112 5.55564,-1.11496 10.3437,-2.50248 z M 138.23298,661.77212 c 16.196,-10.55761 29.471,-19.64565 29.5,-20.19565 0.029,-0.55 -2.87226,-2.95324 -6.44726,-5.34054 -9.72534,-6.49435 -20.27649,-15.48666 -26.69063,-22.74733 -3.14368,-3.55858 -6.22098,-6.27629 -6.83843,-6.03935 -1.79558,0.68903 -55.817893,35.72806 -57.443753,37.25818 -1.293926,1.21774 -1.241979,1.81473 0.427693,4.91512 4.920317,9.13647 31.52274,31.69428 37.02952,31.39957 0.55858,-0.0299 14.26687,-8.6924 30.46286,-19.25 z m 99.67588,-79.57669 24.12314,-0.745 38.52026,-24.93698 c 32.09028,-20.77438 38.13449,-25.04406 36.20921,-25.57847 -4.22693,-1.1733 -64.76878,-1.99289 -78.10729,-1.05739 l -13.13155,0.92099 -18.86845,12.23221 c -10.37765,6.72771 -19.86592,13.15454 -21.08503,14.28185 -2.58028,2.38597 -11.68278,23.30865 -10.77766,24.77316 0.70189,1.13569 9.19445,1.15728 43.11737,0.10963 z m 309.90345,133.7195 c -6.75505,-11.35602 -20.09747,-37.97679 -26.31746,-52.50853 -4.83,-11.2843 -6.36505,-17.32993 -4.40026,-17.32993 0.44488,0 1.5831,-0.56613 2.52938,-1.25806 1.62292,-1.18671 1.61329,-1.56957 -0.16966,-6.75 -2.30621,-6.70077 -8.23563,-18.6192 -10.89927,-21.90809 -1.87257,-2.31213 -2.05922,-2.34442 -4.33557,-0.75 -1.30832,0.91638 -2.73422,1.66615 -3.16868,1.66615 -3.36101,0 -35.87236,-64.72399 -37.47638,-74.60844 -0.45699,-2.8161 -0.13997,-3.41711 2.53103,-4.79833 1.6794,-0.86846 3.32167,-2.01299 3.6495,-2.54342 0.71685,-1.1599 -6.20231,-15.17247 -11.23368,-22.75026 -2.96011,-4.45825 -3.97966,-5.31738 -5.67216,-4.77969 -4.57584,1.45372 -5.94176,0.97593 -8.63335,-3.01986 -6.87837,-10.21128 -28.00871,-53.22917 -32.57493,-66.31721 l -1.8551,-5.3172 3.25901,-2.6828 c 2.74174,-2.25697 3.25759,-3.3508 3.25,-6.89144 l -0.009,-4.20865 19.75,-11.74954 c 19.1017,-11.36385 20.19378,-11.86653 33.26923,-15.31358 8.79017,-2.31733 15.35421,-4.69312 18.76502,-6.79181 6.245,-3.84259 6.55963,-3.87808 8.4742,-0.95607 6.1974,9.45842 29.74155,69.80918 29.74155,76.23656 0,1.30902 -1.05307,2.95172 -2.5,3.89978 -3.16811,2.07583 -3.16624,4.37971 0.0117,14.43971 3.28483,10.39833 6.30942,17.14639 7.97111,17.78403 0.73516,0.28211 2.68201,-0.18278 4.32633,-1.03309 2.33308,-1.20649 3.2057,-1.27728 3.97334,-0.32235 1.91094,2.37715 7.61555,14.39688 13.63236,28.72366 3.34926,7.975 6.53856,14.6801 7.08735,14.90023 1.18676,0.47603 2.05875,-1.12872 8.09645,-14.90023 7.90624,-18.03349 25.51159,-55.21543 29.17877,-61.62464 2.88373,-5.03995 4.61546,-6.77461 9.77802,-9.79458 3.45051,-2.01847 6.70521,-4.21238 7.23267,-4.87536 2.88234,-3.62293 17.45255,-39.65879 18.84005,-46.59625 l 0.67412,-3.37063 -4.80621,2.81662 -4.80621,2.81663 0.71821,-2.86157 c 0.39501,-1.57386 2.34641,-7.11541 4.33644,-12.31455 l 3.61823,-9.45297 7.56862,0.65543 c 4.16275,0.36049 10.04363,1.22689 13.06863,1.92534 l 5.5,1.26992 -4.2423,2.4533 c -4.65222,2.69037 -5.15061,3.55279 -2.5077,4.33937 4.96434,1.47748 20.65701,3.84583 33.86935,5.1116 l 14.88065,1.42559 6.67483,-3.96162 c 6.5123,-3.86515 6.90499,-3.96163 16.12502,-3.96163 5.19759,0 10.86502,0.28297 12.59428,0.62882 l 3.14411,0.62882 -12.88103,25.12118 c -17.32598,33.78992 -43.80221,81.52345 -52.8869,95.34884 -2.32586,3.53957 -5.3196,6.37243 -9.27103,8.77279 -4.72094,2.86782 -6.85249,5.11698 -11.15675,11.77234 -5.94865,9.19794 -23.84251,44.01214 -23.84251,46.38785 0,1.20454 0.97254,0.95946 4.57851,-1.15378 2.51817,-1.47575 4.74257,-2.51912 4.94309,-2.31859 1.73463,1.73463 -43.5832,88.22547 -68.80224,131.31173 -7.11777,12.16058 -13.35468,19.5 -16.57075,19.5 -1.14867,0 -3.46639,-2.85656 -6.62202,-8.16154 z m 13.6738,-17.33846 c 4.12471,-9.2847 5.36107,-12.93883 4.15674,-12.28541 -0.47142,0.25577 -3.71841,2.17434 -7.21554,4.26348 -6.0204,3.59652 -6.33107,3.96686 -5.84427,6.96668 0.7717,4.75543 3.63561,11.04021 4.54883,9.9823 0.44015,-0.50988 2.39955,-4.52705 4.35424,-8.92705 z M 519.6187,564.40918 c 12.74186,-7.517 24.36844,-14.49696 25.83685,-15.511 l 2.66983,-1.84373 -2.02354,-7.23899 c -4.08089,-14.59893 -13.81942,-38.73899 -15.62799,-38.73899 -1.60546,0 -56.63242,32.88854 -57.67227,34.4696 -0.72316,1.09952 0.28966,4.08652 3.81912,11.26337 7.71992,15.69781 16.89132,31.26703 18.41855,31.26703 0.77684,0 11.83759,-6.15028 24.57945,-13.66729 z m 112.89119,-66.86679 c 32.90327,-19.44792 49.39034,-29.76065 51.77583,-32.38601 1.925,-2.11856 8.74086,-13.01573 15.14636,-24.21592 17.02209,-29.76363 23.12134,-41.58051 21.86305,-42.35817 -0.59188,-0.3658 -4.40838,-0.91711 -8.48111,-1.22513 l -7.40497,-0.56004 -45.49613,26.88968 -45.49613,26.88967 -8.50814,19 c -11.13022,24.85552 -23.57303,56.5 -22.21615,56.5 0.29786,0 22.26569,-12.84034 48.81739,-28.53408 z M 73.169551,437.23961 c 5.91797,-8.31102 24.787336,-23.10845 40.697989,-31.91552 8.75755,-4.84759 25.23526,-11.76388 26.06057,-10.93856 0.32653,0.32653 -60.758129,41.1523 -67.460278,45.0869 -0.96048,0.56387 -0.700381,-0.26375 0.701719,-2.23282 z M 391.95589,398.32647 c -3.81798,-6.07978 -4.87327,-8.38023 -4.16787,-9.08563 0.79658,-0.79659 15.05908,-1.95711 25.4977,-2.07472 l 7.5,-0.0845 -5.84074,3.52192 c -3.21241,1.93706 -7.26241,4.18946 -9,5.00533 -1.73759,0.81588 -4.68831,2.60485 -6.55714,3.97551 -1.86884,1.37065 -3.77569,2.4921 -4.23746,2.4921 -0.46176,0 -1.89929,-1.6875 -3.19449,-3.75 z m 92.23189,-29.433 c -0.99555,-1.86021 -0.83397,-2.45372 1.09278,-4.01391 l 2.26109,-1.83091 -5.55812,-7.23609 c -8.42891,-10.97354 -16.25449,-16.88045 -18.19781,-13.73609 -1.09027,1.7641 -3.51866,1.07925 -7.49023,-2.11239 l -3.87295,-3.11239 -11.31841,5.59326 c -21.34909,10.55015 -41.46427,15.47098 -66.81841,16.34596 -11.56029,0.39895 -18.42301,0.11239 -27,-1.1274 -11.09852,-1.60427 -26.41852,-5.83717 -27.50833,-7.60052 -0.29103,-0.47089 1.02375,-2.04061 2.92173,-3.48826 l 3.45086,-2.63211 12.81787,2.18294 c 10.7917,1.83788 15.26802,2.09882 28.31787,1.65077 14.8041,-0.50827 30.26931,-2.70326 34.31981,-4.87102 3.88964,-2.08167 95.25028,-70.11898 96.92446,-72.18075 6.57797,-8.10081 17.37889,-34.80444 20.11497,-49.73114 2.0603,-11.24003 2.53777,-22.49413 0.94118,-22.18376 -0.65977,0.12826 -44.66131,32.41576 -97.78121,71.75 -53.1199,39.33425 -97.37074,71.51681 -98.33521,71.51681 -0.96447,0 -7.93353,-2.25 -15.48681,-5 -13.70357,-4.9892 -18.02884,-5.89043 -19.19719,-4 -1.06252,1.71919 -5.82793,1.07432 -10.09517,-1.36612 -17.3032,-9.89572 -37.83611,-31.25215 -46.5469,-48.41379 l -3.28351,-6.46902 2.81146,-2.24177 c 2.79187,-2.22617 2.80315,-2.28175 1.61969,-7.98245 -0.65546,-3.15736 -0.81236,-6.07282 -0.34866,-6.47878 0.4637,-0.40596 12.29357,-9.1854 26.2886,-19.50987 l 25.44552,-18.77176 2.90148,3.61678 c 3.1503,3.92694 4.7787,4.44084 6.70749,2.11678 0.68469,-0.825 1.62818,-1.5 2.09665,-1.5 0.46847,0 3.62783,4.1625 7.02079,9.25 7.64247,11.45931 23.95004,27.84182 32.83366,32.98453 3.54811,2.054 10.68735,5.14584 15.86497,6.87077 l 9.41386,3.13623 -2.86496,2.3556 c -2.3976,1.97132 -2.62167,2.51577 -1.37358,3.33744 2.372,1.56158 11.59189,2.37537 20.39598,1.80024 9.40769,-0.61456 27.61263,-6.01361 27.61263,-8.18909 0,-1.56386 -8.37626,-9.33248 -14.90761,-13.82617 -4.34369,-2.98853 -4.50584,-3.01881 -7.3685,-1.37587 -2.86558,1.64462 -3.01395,1.61603 -7.06191,-1.36088 -6.33534,-4.65906 -24.66198,-21.97821 -24.66198,-23.30621 0,-1.25013 62.08726,-33.67659 64.48091,-33.67659 1.47591,0 14.48396,14.19733 16.55688,18.07061 1.04048,1.94416 0.88922,2.47585 -1.1398,4.00634 l -2.3395,1.76468 3.69995,5.37216 c 2.03497,2.95469 5.09274,6.70282 6.79504,8.32919 2.88994,2.76103 3.18119,2.83983 4.3943,1.18889 2.40429,-3.27203 6.69537,-18.05133 7.28576,-25.09352 l 0.58547,-6.98345 -3.40951,2.60056 -3.4095,2.60056 -0.0294,-17.67801 c -0.0247,-14.81115 -0.38488,-19.0901 -2.22113,-26.38541 -3.021,-12.00225 -7.3689,-22.75225 -13.25614,-32.77527 l -4.98249,-8.48267 2.42387,-2.42387 c 2.35806,-2.35805 2.38123,-2.53044 0.85355,-6.3485 -1.47615,-3.68926 -1.45691,-4.03311 0.32073,-5.73365 1.04008,-0.99496 12.59742,-9.71843 25.68298,-19.385473 l 23.79192,-17.576445 4.38424,2.13003 c 4.26923,2.074153 4.45685,2.082452 7.15224,0.316367 l 2.768,-1.813662 5.67685,6.039647 c 14.26693,15.178706 26.35808,41.881966 28.5771,63.112456 0.58692,5.61529 0.48,6.02222 -2.0112,7.65452 l -2.63112,1.72394 0,18.32597 c 0,10.07929 0.36557,18.55191 0.81238,18.82806 0.44681,0.27614 2.13431,-0.36934 3.75,-1.4344 1.61569,-1.06506 3.27512,-1.93944 3.68762,-1.94306 0.4125,-0.004 0.74938,5.05591 0.74863,11.24341 -0.003,25.5395 -8.18403,52.97394 -23.1409,77.6022 -2.12175,3.49372 -3.85773,6.79517 -3.85773,7.33656 0,0.54139 2.7,3.79612 6,7.23272 3.3,3.43661 6,6.58803 6,7.00316 0,0.41513 -0.99173,1.55783 -2.20384,2.53934 l -2.20385,1.78456 6.3266,6.5885 c 3.47963,3.62367 8.77183,8.27259 11.76044,10.33093 4.64065,3.19613 5.71556,3.5665 7.36368,2.53723 1.06141,-0.66286 2.7359,-1.2052 3.7211,-1.2052 2.18627,0 16.73587,11.42304 16.73587,13.1395 0,0.67565 -5.85,3.89726 -13,7.15912 -31.62862,14.42914 -56.90752,25.70138 -57.6374,25.70138 -0.43573,0 -1.31797,-0.98235 -1.96054,-2.183 z M 214.87337,244.85058 c -2.36252,-3.60565 -6.22782,-17.70899 -8.16019,-29.77411 -2.81121,-17.55223 -0.86636,-46.99602 4.09528,-62 1.01063,-3.05614 2.59156,-5.25109 4.9272,-6.84089 2.58157,-1.75719 4.22357,-4.25065 6.5852,-10 3.84091,-9.35058 15.94249,-32.7782 20.17835,-39.063513 1.7034,-2.527579 5.57007,-7.865246 8.59259,-11.861481 3.02252,-3.996236 5.30603,-7.455343 5.07447,-7.686905 -0.23157,-0.231563 -3.67442,2.040575 -7.65079,5.049194 -3.97637,3.008618 -7.22976,5.034706 -7.22976,4.502416 0,-1.919702 11.84356,-15.772709 20.3609,-23.81545 9.52186,-8.991289 24.73659,-19.598309 34.1391,-23.800231 6.78219,-3.03092 16.2899,-6.483142 17.85512,-6.483142 0.57311,0 -2.41179,2.560555 -6.6331,5.690122 -4.22131,3.129568 -7.53864,5.826591 -7.37184,5.993386 0.16679,0.166795 4.07272,-1.072418 8.67983,-2.753808 13.66738,-4.987976 33.9604,-9.142024 55.96999,-11.457243 4.76303,-0.50103 7.43529,-1.390384 10,-3.3281 3.31457,-2.504262 4.05663,-2.63471 14.00672,-2.462262 16.40188,0.284266 38.3331,5.540814 52.49328,12.581764 7.76619,3.861629 21.47302,13.054765 25.08389,16.823704 l 2.82467,2.94832 -2.17568,2.17568 -2.17568,2.175679 -11.2786,-5.203459 c -6.20323,-2.861902 -12.28689,-5.199032 -13.51924,-5.193621 -2.66396,0.0117 -59.78033,41.94138 -58.56828,42.995549 0.44491,0.386955 3.61755,1.726891 7.05033,2.977634 6.90415,2.515553 15.25859,7.438657 15.25859,8.991577 0,0.54944 -1.05757,1.69192 -2.35016,2.53886 -2.14422,1.40495 -3.13006,1.34864 -11.25,-0.6426 -11.20155,-2.74694 -27.92023,-2.99751 -37.12451,-0.55641 -30.1382,7.99306 -54.87069,39.22685 -61.22326,77.3167 -0.99925,5.99148 -1.64443,7.45036 -4.09665,9.26337 l -2.9106,2.1519 -0.77241,-2.76337 c -0.42483,-1.51985 -0.71351,-8.45946 -0.64152,-15.42134 l 0.13088,-12.65798 -19.13088,14.19497 c -10.52199,7.80723 -24.86839,18.42968 -31.88089,23.60545 l -12.75,9.41049 0.0309,7.55252 c 0.017,4.15389 0.46742,10.91685 1.00099,15.0288 0.93252,7.18655 0.87722,7.56917 -1.42698,9.87338 l -2.3971,2.3971 -1.62014,-2.47265 z"
         id="path3006"
         style="fill:#b7b7b7" />
      <path
         d="m 208.28572,726.99762 c -11.90621,-0.90052 -27.82005,-3.54641 -30.02498,-4.99207 -1.2579,-0.82473 -1.18062,-1.19517 0.52498,-2.51655 1.1,-0.8522 2.67125,-1.9349 3.49167,-2.40599 0.82042,-0.4711 1.27042,-1.04575 1,-1.27702 -0.27042,-0.23127 -7.69167,-2.74409 -16.49167,-5.58405 -8.8,-2.83996 -22.525,-7.81321 -30.5,-11.05166 l -14.5,-5.88809 -4.75713,2.64714 -4.75712,2.64714 -6.58687,-3.40785 C 95.144445,689.71544 82.998604,680.52019 73.98426,671.16924 66.527105,663.43362 58.285719,652.79688 58.285719,650.90791 c 0,-0.38239 1.389163,-1.68442 3.087029,-2.89341 l 3.087028,-2.19816 9.662972,9.89842 c 13.651576,13.98422 29.378002,26.37583 40.927192,32.24853 3.53099,1.7955 4.64865,1.96542 6.5,0.98826 3.23694,-1.7085 63.73578,-40.99638 63.73578,-41.38995 0,-0.18197 -4.76203,-2.60563 -10.5823,-5.38591 -13.58683,-6.49029 -22.7081,-12.59001 -31.29644,-20.92908 -6.46859,-6.28083 -13.12126,-15.2298 -13.12126,-17.65031 0,-0.59874 1.37904,-1.90324 3.06454,-2.89888 l 3.06455,-1.81027 6.89434,7.00458 c 13.85411,14.07562 32.03317,25.52783 49.47657,31.16862 3.85,1.245 7.35567,2.58612 7.79039,2.98027 0.43471,0.39414 -1.07811,1.95313 -3.36182,3.46442 -2.37613,1.57245 -3.77752,3.12248 -3.27625,3.62375 1.98961,1.98961 16.37077,4.11128 28.34768,4.18216 18.8859,0.11176 53.44803,-6.45462 57.09343,-10.84706 0.99097,-1.19404 1.43746,-7.21183 1.7399,-23.45028 0.51754,-27.78738 0.21024,-29.1469 -5.67896,-25.1239 -2.29752,1.56947 -5.4776,1.87196 -23.65437,2.25 -32.78878,0.68194 -73.25698,0.51353 -74.07857,-0.30828 -0.40967,-0.40977 1.13701,-5.13477 3.43705,-10.5 7.56817,-17.654 9.20653,-20.32428 14.44238,-23.53897 2.64047,-1.62118 5.03921,-2.70926 5.33053,-2.41794 0.29131,0.29132 -1.35645,5.99356 -3.66169,12.67165 -2.30525,6.67808 -4.0078,12.32553 -3.78345,12.54988 0.22435,0.22436 20.93502,0.45836 46.02371,0.52001 l 45.6158,0.1121 35.83712,-23.19328 c 19.71042,-12.75631 36.64443,-23.90311 37.63114,-24.77067 0.98671,-0.86757 1.66171,-2.50222 1.5,-3.63257 -0.29106,-2.03448 -0.82564,-2.0617 -53.09422,-2.7033 -50.24933,-0.61681 -59.72289,-1.03701 -59.68183,-2.64718 0.01,-0.38758 2.28513,-2.18736 5.0561,-3.9995 l 5.03814,-3.29481 29.19389,-1.05064 c 29.43771,-1.05941 82.50897,-0.38695 83.99773,1.06433 0.44211,0.43098 0.49706,3.09618 0.12211,5.92268 -0.63837,4.81226 -0.99157,5.32973 -5.55383,8.13692 l -4.87211,2.99784 0.0158,17.25925 c 0.0151,16.50177 1.3724,39.25637 2.56587,43.01664 0.52591,1.65701 0.76255,1.63366 3.54847,-0.35009 1.64174,-1.16902 3.23379,-1.87668 3.5379,-1.57258 1.28151,1.28151 2.45106,34.7084 1.87766,53.66527 -0.89005,29.42535 -1.0483,30.41718 -5.2108,32.65883 -4.3525,2.34397 -4.79425,1.69485 -6.36183,-9.34831 -0.64965,-4.5766 -1.57483,-8.56438 -2.05596,-8.86173 -0.88012,-0.54394 -70.05998,43.73703 -69.38669,44.41336 0.63749,0.64037 13.46601,-1.84507 33.33905,-6.45923 10.65323,-2.47349 19.55671,-4.31004 19.78551,-4.08124 0.2288,0.2288 -4.3483,3.4532 -10.17134,7.16534 -19.44201,12.3941 -52.36194,20.88854 -90.98367,23.4768 -16.49142,1.10519 -17.33833,1.10408 -32.5,-0.0427 z m 339.78715,-12.63588 c -4.56578,-5.1373 -23.82167,-43.99306 -26.90979,-54.30028 -1.24523,-4.15621 -1.20689,-4.3105 1.63414,-6.57586 l 2.90929,-2.31978 -4.89677,-12.13213 c -4.45917,-11.04792 -14.08784,-29.92104 -16.49127,-32.32447 -0.87153,-0.87153 -2.21452,-0.47267 -7.1287,2.11715 -2.38689,1.25791 -29.90405,-53.41654 -29.90405,-59.41702 0,-1.88148 2.80459,-4.25529 5.0816,-4.30108 1.4593,-0.0293 8.75548,12.04046 21.84118,36.13109 2.28931,4.2146 4.75953,8.15849 5.48939,8.76422 1.01871,0.84545 7.22362,-2.38301 26.70742,-13.89607 13.95923,-8.24856 25.7717,-15.59052 26.24993,-16.31547 0.56212,-0.8521 -2.22957,-10.45131 -7.89649,-27.15203 l -8.76601,-25.83394 2.39649,-1.84256 c 1.31807,-1.01341 2.99115,-1.85257 3.71796,-1.8648 1.32678,-0.0223 10.80682,19.04578 15.27683,30.72776 2.60049,6.79614 4.30208,7.77154 6.10581,3.5 7.81939,-18.51764 28.51829,-62.02967 31.0747,-65.32342 0.67165,-0.86538 3.38132,-2.8339 6.02149,-4.3745 l 4.8003,-2.80108 -0.71607,2.8745 c -0.73875,2.96556 -13.76018,35.71312 -22.61504,56.8745 -6.56228,15.68258 -8.8893,22.5 -7.68001,22.5 0.53997,0 22.67824,-12.85951 49.19614,-28.57669 38.09005,-22.576 48.76658,-29.34804 50.84406,-32.25 1.44633,-2.02032 8.01809,-13.34831 14.60391,-25.17331 6.58583,-11.825 16.98997,-30.36704 23.12032,-41.20453 10.68895,-18.89636 12.48044,-23.18402 10.0284,-24.00137 -1.772,-0.59066 6.24079,-5.41312 10.23345,-6.15894 7.99428,-1.49332 7.9835,-1.44711 -6.04872,25.92322 -13.42684,26.18951 -32.12263,60.08639 -41.51728,75.27396 -4.01033,6.48318 -6.42836,9.29318 -9.46593,11.00039 -5.86641,3.2971 -9.90735,6.92745 -12.78498,11.48591 -9.56155,15.14647 -38.1229,70.25017 -40.82528,78.76463 -0.7025,2.2134 -0.64251,2.20578 3.9851,-0.50618 2.58409,-1.51438 4.95393,-2.49782 5.26631,-2.18544 1.2778,1.27779 -24.82957,52.1081 -44.7476,87.12234 -15.39145,27.05688 -15.86443,27.67951 -25.4031,33.44114 -10.49729,6.34067 -10.88391,6.47159 -12.78713,4.33014 z m 10.88749,-6.03527 c 0.33653,-0.9625 4.84587,-11.1296 10.02077,-22.59355 5.17489,-11.46395 9.27292,-21.2252 9.10674,-21.69166 -0.36848,-1.0343 -29.92716,16.36304 -31.2274,18.3795 -0.81264,1.26027 1.70182,9.7351 7.53781,25.40571 0.99589,2.67412 3.69836,2.97031 4.56208,0.5 z M 58.5103,631.76527 c -2.398487,-2.61307 -8.075899,-11.93116 -14.585648,-23.9388 -2.609021,-4.8125 -4.960939,-8.75 -5.226487,-8.75 -0.265547,0 -1.572191,0.71379 -2.903653,1.5862 -1.331463,0.8724 -2.876728,1.30444 -3.433922,0.96007 -1.46029,-0.90251 -5.685895,-14.82589 -7.639529,-25.17227 -2.157592,-11.42654 -1.559955,-37.36298 1.099673,-47.72399 1.529946,-5.96014 2.278417,-7.22671 5.761713,-9.75 2.201842,-1.59501 4.287175,-2.90001 4.634073,-2.90001 0.346898,0 1.154077,1.38652 1.793731,3.08116 0.841261,2.22875 1.547534,2.85122 2.552944,2.25 C 52.86193,514.0532 237.28572,393.60005 237.28572,392.92177 c 0,-0.52213 -1.35,-1.41995 -3,-1.99514 -4.08988,-1.42575 -3.77068,-2.86103 1.35665,-6.10016 5.24826,-3.31553 12.22608,-3.61936 27.40412,-1.19324 21.36745,3.41547 38.27681,8.94095 54.6135,17.84609 10.79726,5.88559 11.63657,6.88696 7.71432,9.20389 -3.74781,2.21388 -3.79641,2.15058 9.57626,12.47389 5.68433,4.38814 10.33515,8.3213 10.33515,8.74036 0,1.21964 -28.99694,33.07506 -36.26921,39.84459 -3.64291,3.39107 -7.55692,6.46185 -8.6978,6.82395 -1.36796,0.43417 -3.68478,-0.27254 -6.80365,-2.07536 -16.45263,-9.51019 -27.75834,-13.97752 -38.11251,-15.05975 -5.01033,-0.52368 -6.5718,-0.28353 -9.53877,1.46702 -3.2726,1.93088 -4.96418,2.08488 -21.81289,1.98579 -25.49758,-0.14995 -36.95817,2.8195 -55.38667,14.35074 -20.0751,12.56156 -35.37546,33.00387 -42.30635,56.52415 -1.79135,6.079 -2.65084,7.51241 -5.59596,9.33259 -4.31244,2.66524 -4.87402,4.7482 -4.84894,17.98529 0.0155,8.17932 0.62198,12.79172 2.74404,20.86895 1.49827,5.70293 2.57879,10.5143 2.40114,10.69195 -0.32863,0.32864 -50.270326,32.81497 -56.905612,37.01626 l -3.63318,2.30044 -2.009058,-2.1888 z m 155.77542,-99.0946 c 0,-1.98088 1.92744,-3.06676 3.19449,-1.79971 0.69364,0.69364 0.34563,1.38126 -1.08713,2.14805 -1.70077,0.91023 -2.10736,0.84302 -2.10736,-0.34834 z m 244.57799,-22.00665 c -4.23003,-6.51518 -8.19783,-11.58755 -9.06422,-11.58755 -0.8475,0 -2.48137,0.5625 -3.63082,1.25 -1.84305,1.10235 -2.34344,0.91734 -4.23643,-1.56638 -5.89549,-7.73527 -25.84886,-48.44531 -27.29934,-55.69771 -0.45892,-2.29461 -0.0391,-3.05482 2.5226,-4.56806 1.69022,-0.99844 3.48558,-2.99848 3.98968,-4.44453 0.72236,-2.07217 7.66678,-6.63733 32.77854,-21.54813 21.71729,-12.89523 32.81719,-18.93581 34.862,-18.97194 1.65,-0.0292 4.4539,-0.82518 6.23089,-1.76893 l 3.2309,-1.71592 3.89758,7.7658 c 6.06193,12.07817 11.53464,25.46974 16.79482,41.09646 l 4.82391,14.33065 -3.26964,2.66935 -3.26964,2.66934 3.74045,14.7068 c 2.05726,8.08874 3.53352,14.88876 3.2806,15.11116 -0.88577,0.77885 -55.35402,32.89606 -56.59998,33.37418 -0.76219,0.29248 -4.22584,-4.08725 -8.7819,-11.10459 z M 298.89859,495.60839 c -1.61367,-2.46278 -1.60156,-2.47852 5.63499,-7.32315 10.6125,-7.10473 10.5364,-7.07123 8.33817,-3.67009 -2.72729,4.21972 -10.68589,13.46132 -11.59249,13.46132 -0.41994,0 -1.49124,-1.11064 -2.38067,-2.46808 z m 328.38713,-69.44837 c 0,-1.53699 12.05872,-35.39565 12.95377,-36.37182 0.75252,-0.82072 36.99533,5.04253 38.2756,6.1921 0.5856,0.52582 -19.77253,13.00929 -47.47937,29.11402 -2.11808,1.23114 -3.75,1.69491 -3.75,1.0657 z M 389.52627,392.09004 c -0.6823,-1.09254 -1.24055,-2.21754 -1.24055,-2.5 0,-0.28246 2.5875,-0.51126 5.75,-0.50845 l 5.75,0.005 -4,2.46366 c -4.86991,2.99947 -4.73077,2.98747 -6.25945,0.53966 z m 242.27695,-5.1103 c 2.4746,-7.93413 2.72597,-8.13646 8.33839,-6.71188 l 4.23519,1.07501 -3.29554,1.97208 c -1.81255,1.08465 -4.81026,2.89368 -6.66157,4.02008 l -3.36604,2.04799 0.74957,-2.40328 z m -152.5258,-35.41277 c -7.30184,-8.35691 -13.81219,-14.55093 -17.71345,-16.85276 -0.67197,-0.39647 -2.29606,-0.017 -3.6091,0.84339 -1.31304,0.86033 -3.09836,1.2914 -3.96739,0.95792 -0.91389,-0.35069 -7.19206,2.1421 -14.89091,5.91255 -18.06599,8.84767 -32.50014,12.9867 -54.81085,15.71717 -14.86327,1.81902 -39.76946,-0.19734 -51.90386,-4.20206 l -3.48035,-1.14862 2.9421,-2.38493 c 2.91552,-2.36338 3.09122,-2.37911 19.44211,-1.74059 37.19239,1.45241 70.35143,-6.25938 93.12261,-21.65749 3.50756,-2.37185 15.03989,-10.74298 25.62739,-18.60251 16.60329,-12.32529 19.25,-14.65619 19.25,-16.953 0,-1.50163 2.37674,-6.4297 5.44993,-11.30022 11.547,-18.30014 20.99905,-41.16282 25.48738,-61.64905 2.53356,-11.56401 2.59535,-11.70866 6.11131,-14.30812 l 2.95138,-2.18205 -0.003,7.77993 c -0.009,20.74421 -8.64796,47.99162 -22.36115,70.52356 -5.01632,8.24223 -5.07159,9.24192 -0.72828,13.17256 2.52777,2.2876 2.60736,3.35756 0.42884,5.76479 -1.41667,1.56541 -1.47165,2.19746 -0.37014,4.25566 2.29273,4.28399 31.65775,29.56337 34.3414,29.56337 0.68613,0 2.2049,-0.67059 3.37505,-1.49019 1.96323,-1.3751 2.50176,-1.23232 6.97251,1.84863 2.66473,1.83636 4.84496,3.90591 4.84496,4.59901 0,0.69311 -4.95,3.50301 -11,6.24423 -17.99713,8.15439 -38.716,16.91565 -39.09838,16.53328 -0.19619,-0.1962 3.45818,-3.18219 8.12083,-6.63555 4.66265,-3.45335 8.47755,-6.45958 8.47755,-6.68052 0,-0.61752 -11.35091,3.82796 -22.87896,8.96033 -5.70861,2.54143 -10.70347,4.62078 -11.09988,4.62078 -0.39641,0 -4.45975,-4.27928 -9.02965,-9.5095 z m -177.9917,-18.36611 c -4.125,-1.55825 -9.17305,-3.57369 -11.21788,-4.47878 -4.5826,-2.02835 -8.15708,-2.10366 -9.73279,-0.20505 -1.42122,1.71247 -2.91488,1.25262 -9.54933,-2.93989 -12.10049,-7.64667 -28.34449,-24.85685 -34.2391,-36.27562 l -2.7609,-5.34829 2.18557,-1.7965 c 1.50604,-1.23794 2.28333,-3.15034 2.5,-6.15086 l 0.31443,-4.35437 25.36503,-18.7761 25.36503,-18.7761 2.80423,1.6565 c 2.63088,1.5541 2.9749,1.54467 5.56519,-0.15256 3.15196,-2.06524 1.7602,-3.1815 12.40052,9.94594 7.80423,9.62843 21.1288,20.84948 30.5,25.68502 4.4,2.2704 8.225,4.32745 8.5,4.57121 0.275,0.24377 -0.5125,1.26412 -1.75,2.26743 -1.2375,1.00332 -2.25,2.08044 -2.25,2.3936 0,0.81213 6.94644,4.18404 10.5,5.09685 1.65,0.42385 6.88942,1.2752 11.64316,1.8919 l 8.64317,1.12128 -31.64317,23.43548 c -17.40374,12.88952 -32.54316,23.56747 -33.64316,23.72878 -1.1,0.16131 -5.375,-0.98163 -9.5,-2.53987 z m 88.88469,-71.11659 c -9.69208,-7.22122 -11.77367,-8.05143 -13.86605,-5.53025 -1.01055,1.21763 -1.64223,1.25959 -3.59103,0.23851 -3.91833,-2.05302 -21.52798,-17.91494 -21.14949,-19.05043 0.19361,-0.58083 14.68446,-8.40955 32.20188,-17.39715 l 31.84987,-16.3411 3.33489,3.23231 c 1.83419,1.77777 4.53389,4.96246 5.99933,7.0771 l 2.66445,3.84479 -2.16427,1.51591 c -1.19035,0.83376 -2.16427,1.89456 -2.16427,2.35734 0,0.46278 3.15,5.11454 7,10.33724 3.85,5.2227 6.97513,9.88105 6.94473,10.35188 -0.0835,1.29278 -34.51237,26.35605 -36.20477,26.35605 -0.80882,0 -5.69369,-3.14649 -10.85527,-6.9922 z M 212.21479,235.43698 c -5.13746,-13.29381 -7.57125,-34.25069 -5.99,-51.57866 1.54651,-16.94722 2.57645,-20.59618 7.01064,-24.83805 3.0617,-2.92891 4.37243,-5.57484 7.43065,-15 4.68919,-14.4517 15.80711,-36.80846 23.99323,-48.247422 19.05806,-26.630984 41.8526,-44.50085 69.7533,-54.683343 15.10857,-5.513947 42.71819,-10.009996 61.48356,-10.012201 5.93459,-6.98e-4 7.71968,-0.414263 10.79441,-2.500836 4.63827,-3.147613 10.94006,-3.283986 24.43806,-0.528847 12.78964,2.610553 22.78937,6.098093 32.05472,11.179511 8.00714,4.391377 18.10236,11.559982 18.10236,12.854471 0,0.420665 -1.05038,1.453079 -2.33417,2.294253 -2.14671,1.406576 -2.8093,1.331126 -8.25,-0.939451 -13.43913,-5.608568 -21.97434,-8.43978 -24.59501,-8.158404 -3.94263,0.423314 -66.47109,46.770857 -64.65376,47.922875 0.73311,0.464731 3.13294,0.859671 5.33294,0.877643 8.39193,0.06855 27.5,5.672007 27.5,8.064391 0,0.45108 -0.96113,1.49335 -2.13583,2.31615 -1.75068,1.22622 -4.59975,1.39062 -15.79916,0.91164 -16.02113,-0.6852 -24.63514,0.78707 -35.6667,6.09601 -20.46558,9.84905 -38.42483,32.45526 -46.91648,59.05613 -2.55871,8.01541 -3.7873,10.41847 -6.32848,12.37816 l -3.15335,2.43179 0.007,-7.37816 c 0.007,-7.74212 2.50289,-19.93508 5.92163,-28.93247 1.11314,-2.92956 1.88773,-5.46265 1.72129,-5.62909 -0.65971,-0.65971 -72.23518,52.9096 -73.45259,54.97421 -0.9697,1.64451 -1.2253,6.64812 -1,19.57558 0.2966,17.01895 0.25799,17.39628 -1.93008,18.86051 -2.10582,1.40919 -2.29557,1.33153 -3.33819,-1.36639 z m 238.10606,-4.05149 c 0.0193,-0.99496 0.67851,-4.73402 1.46487,-8.30902 1.59146,-7.2352 1.98648,-21.58131 0.61754,-22.42736 -0.48536,-0.29996 -1.99399,0.32894 -3.35253,1.39756 l -2.47006,1.94295 -0.64408,-9.82822 c -1.18873,-18.13911 -5.33949,-34.46975 -12.27895,-48.30997 -3.92963,-7.83734 -4.05271,-8.84888 -1.37192,-11.27496 1.1,-0.99549 2,-3.02049 2,-4.5 0,-3.35219 -1.19165,-2.32982 27.34515,-23.46048 21.10604,-15.628411 24.17142,-17.584974 26.68553,-17.032784 1.82892,0.401699 3.70341,0.05837 5.26395,-0.964128 3.16841,-2.076025 4.39107,-1.450619 9.31946,4.767049 9.40407,11.864183 19.23566,34.051103 20.94073,47.256863 0.60714,4.7023 0.4659,5.18988 -1.96459,6.7824 l -2.61875,1.71587 0.0824,16.59946 c 0.0453,9.1297 -0.28576,16.92156 -0.73574,17.31524 -1.40087,1.22562 -65.74696,48.62173 -67.06815,49.40114 -0.81428,0.48036 -1.23775,0.10682 -1.21487,-1.07161 z"
         id="path3004"
         style="fill:#a7a7a7" />
      <path
         d="m 202.87454,726.00122 c -3.80115,-0.5231 -8.24647,-1.29711 -9.87849,-1.72001 l -2.96731,-0.7689 4.22024,-2.79283 c 2.32114,-1.53606 3.99893,-3.01415 3.72843,-3.28466 -0.27051,-0.2705 -6.2743,-1.7699 -13.34176,-3.33198 -18.31877,-4.04891 -45.77455,-13.66833 -47.64354,-16.69242 -0.44243,-0.71588 42.21863,-29.08142 62.40501,-41.49338 l 5.95156,-3.65943 13.21852,0.11208 c 13.43739,0.11392 18.27086,-0.46642 41.01284,-4.92435 13.30157,-2.60739 18.58156,-4.30946 20.4857,-6.60381 0.65448,-0.7886 1.39768,-7.98963 1.78627,-17.30777 0.36601,-8.77651 0.95083,-17.42046 1.29959,-19.20879 0.5847,-2.99807 3.51696,-5.1182 37.6214,-27.20169 24.24294,-15.69792 37.2018,-23.53614 37.60988,-22.74851 0.34243,0.66094 1.15492,11.1017 1.80554,23.2017 1.37829,25.63321 1.99696,31.5 3.32176,31.5 0.53174,0 2.21261,-0.8871 3.73527,-1.97133 l 2.76848,-1.97133 0.6272,5.22133 c 0.81536,6.78767 0.81243,44.67921 -0.004,51.47621 -0.55244,4.59931 -1.05694,5.51802 -4.04391,7.36407 -1.877,1.16005 -3.64823,1.87368 -3.93607,1.58585 -0.28784,-0.28784 -1.29303,-5.94304 -2.23377,-12.56711 -0.94073,-6.62406 -1.99892,-12.33226 -2.35154,-12.68487 -0.35261,-0.35261 -23.80438,14.36375 -52.11504,32.70303 -32.03971,20.75491 -50.99862,33.61597 -50.21501,34.0641 1.7136,0.97997 22.54044,-0.91098 36.0248,-3.27083 17.90913,-3.13421 18.44497,-2.91566 8.75592,3.5712 -7.01022,4.69338 -9.78017,5.88492 -18.4911,7.9542 -5.63514,1.33864 -14.97072,3.16548 -20.74572,4.05965 -12.42381,1.92363 -48.32684,2.77837 -58.41118,1.39058 z M 543.4694,705.32647 c -5.56406,-7.83668 -19.18368,-36.74253 -19.18368,-40.71483 0,-0.86793 1.125,-2.09063 2.5,-2.71712 1.64255,-0.7484 2.5,-1.95157 2.5,-3.508 0,-1.30291 -4.95,-13.30725 -11,-26.67631 -6.05,-13.36906 -11,-25.22467 -11,-26.34581 0,-1.60086 5.18404,-5.10294 24.15043,-16.31487 13.28274,-7.85204 25.54524,-14.94905 27.25,-15.77113 1.70476,-0.82208 3.77457,-2.0618 4.59957,-2.75493 1.15592,-0.97114 62.31371,-37.45798 90.90506,-54.2341 l 4.40507,-2.58469 -0.71647,2.85466 c -0.39406,1.57006 -10.04463,21.11621 -21.4457,43.43589 -22.2396,43.53808 -24.76874,48.7938 -23.89891,49.66362 0.30909,0.3091 2.44702,-0.62797 4.75095,-2.08238 2.30393,-1.45441 4.43709,-2.39624 4.74037,-2.09297 1.2342,1.23421 -14.1119,31.94769 -29.02636,58.09297 -12.5977,22.08395 -15.2121,25.71196 -20.78664,28.84556 -2.71005,1.5234 -4.92737,2.26919 -4.92737,1.65731 0,-1.68853 4.77015,-12.46689 14.96859,-33.82217 5.07438,-10.62561 8.97454,-19.5709 8.66703,-19.87842 -0.48322,-0.48321 -44.9482,25.28093 -49.97612,28.95744 -1.73545,1.26898 -1.54042,2.07149 3.80057,15.63885 7.24239,18.39735 7.4172,19.2966 4.16529,21.42733 -3.26573,2.1398 -3.14102,2.16445 -5.44168,-1.0759 z M 96.063602,688.70164 C 83.813067,681.32475 72.810144,671.30396 66.447876,661.72944 l -2.55635,-3.84703 2.447096,-1.88073 c 1.345904,-1.03441 2.763447,-1.89074 3.150098,-1.90297 0.38665,-0.0122 4.892609,3.69026 10.013242,8.22776 5.120633,4.5375 13.804282,11.83092 19.296999,16.2076 5.492719,4.37668 10.321669,8.42668 10.730999,9 0.99988,1.40043 -2.9178,4.5424 -5.66385,4.5424 -1.20893,0 -4.720055,-1.51867 -7.802508,-3.37483 z m 77.297978,-48.64805 c -12.63124,-4.54267 -29.69844,-17.17149 -35.61915,-26.35626 -1.83857,-2.85216 -1.83431,-2.89668 0.45445,-4.75 1.27072,-1.02897 2.83078,-1.87086 3.4668,-1.87086 0.63602,0 3.47029,2.02414 6.29838,4.49809 6.95691,6.08573 22.32558,16.12563 32.14887,21.00191 4.43192,2.2 8.0843,4.3008 8.11641,4.66844 0.0843,0.96545 -6.42447,4.83817 -8.05965,4.79548 -0.76009,-0.0198 -3.82283,-0.9139 -6.80611,-1.9868 z M 50.898447,617.81315 C 49.48507,615.96012 45.617135,608.707 42.303036,601.6951 l -6.025635,-12.7489 -3.01324,2.14562 -3.013239,2.14562 -1.513249,-3.62172 c -4.368071,-10.45426 -6.188013,-31.98393 -4.123414,-48.77941 0.80284,-6.53109 0.957928,-6.81757 5,-9.23608 4.709286,-2.81773 4.950339,-2.62972 6.166672,4.80982 0.489973,2.99686 0.980192,3.69797 2.245999,3.21223 0.890573,-0.34174 51.019474,-32.64322 111.39756,-71.78106 73.92379,-47.91834 109.48458,-71.51365 108.87894,-72.24341 -0.49467,-0.59604 -3.17778,-1.903 -5.96248,-2.90436 -2.78469,-1.00137 -5.27893,-2.16992 -5.54275,-2.59679 -0.26382,-0.42687 1.39287,-2.01532 3.68153,-3.52988 3.90883,-2.58675 4.61715,-2.71521 11.67912,-2.11826 10.96555,0.92693 28.25205,5.28276 39.0434,9.83811 8.53158,3.60144 17.08347,8.209 17.08347,9.20418 0,0.21409 -1.38778,1.26794 -3.08395,2.34188 l -3.08395,1.95261 2.83395,2.21422 c 1.55867,1.21781 7.55895,5.5177 13.33395,9.5553 5.775,4.0376 11.60138,8.51783 12.94752,9.95607 2.42382,2.58966 2.42866,2.63345 0.5,4.52256 -1.07114,1.04917 -13.85929,9.64833 -28.41812,19.10924 l -26.4706,17.20166 -4.5294,-1.73733 c -27.61312,-10.5915 -42.13289,-12.89837 -50.46185,-8.01727 -3.62133,2.12224 -6.29405,2.66592 -17.17807,3.4943 -25.49305,1.94029 -43.82695,9.96478 -61.82258,27.05887 -8.96679,8.51757 -14.49991,16.0158 -21.53669,29.18557 -3.80325,7.11802 -6.10195,10.24723 -8.71296,11.86092 -1.95069,1.2056 -4.16181,3.66412 -4.91359,5.46339 -2.16819,5.18921 -3.51874,20.8045 -2.84142,32.85285 l 0.62237,11.07082 -30.215296,19.5 c -16.618411,10.725 -30.568885,19.63631 -31.001052,19.80292 -0.432167,0.1666 -1.942158,-1.21321 -3.355535,-3.06624 z M 490.84387,598.14072 c -2.45479,-2.71251 -15.89195,-29.54244 -18.05064,-36.04164 l -1.7864,-5.37836 2.25023,-1.82212 c 1.23762,-1.00217 2.62726,-1.82213 3.08808,-1.82213 2.13923,0 17.66786,28.30697 21.52343,39.23482 1.43081,4.05535 1.40215,4.26914 -0.79942,5.96343 -2.9401,2.26264 -4.07853,2.23814 -6.22528,-0.134 z m -312.53003,-5.69567 c 0.0613,-4.07666 6.43822,-13.75619 11.38971,-17.28854 l 4.91783,-3.50834 -0.79703,3.46415 c -0.43836,1.90528 -0.85139,4.58915 -0.91783,5.96415 l -0.1208,2.5 36.16795,0.5 c 31.60789,0.43696 39.01899,0.90212 37.24872,2.33795 -0.22917,0.18587 -2.66667,1.86119 -5.41667,3.72293 l -5,3.38498 -38.75,0.39565 c -37.32388,0.38109 -38.74897,0.32688 -38.72188,-1.47293 z m 374.784,-40.11858 c -3.87126,-8.34601 -12.81212,-33.84525 -12.81212,-36.54006 0,-0.7033 1.36498,-2.08504 3.03329,-3.07054 l 3.0333,-1.79181 5.34326,11.32621 c 2.93879,6.22941 5.89186,13.0384 6.56237,15.1311 0.80355,2.5079 1.73897,3.70097 2.74415,3.5 0.88103,-0.17615 3.92294,-5.79462 7.20343,-13.3049 3.12312,-7.15 8.8063,-19.3 12.6293,-27 6.32136,-12.73202 7.39426,-14.2963 11.84608,-17.27149 2.69235,-1.79931 5.05388,-3.11278 5.24785,-2.91882 1.39244,1.39245 -17.65375,47.84877 -28.23669,68.87325 -3.1522,6.26229 -8.47113,11.81706 -11.31534,11.81706 -0.67112,0 -3.04661,-3.9375 -5.27888,-8.75 z M 271.78572,527.33623 c -2.75,-0.20886 -5.36375,-0.739 -5.80833,-1.17808 -0.44458,-0.43908 1.55299,-2.31358 4.43904,-4.16556 l 5.24737,-3.36722 35.82853,-0.39271 c 19.70569,-0.21598 40.58393,-0.0686 46.3961,0.32759 l 10.56757,0.72029 -5.17795,3.48704 c -3.68638,2.48254 -6.95162,3.74365 -11.33514,4.37786 -5.84292,0.84535 -69.54249,0.99697 -80.15719,0.19079 z m 182.66429,-26.01542 c -7.63802,-11.35938 -8.26812,-11.87764 -11.70374,-9.62653 -2.61275,1.71194 -2.71498,1.69646 -4.51401,-0.6831 -5.2402,-6.9312 -19.94654,-37.45925 -19.94654,-41.40587 0,-0.75996 2.5875,-2.6231 5.75,-4.14032 9.23969,-4.43276 66.46194,-38.40297 69.75,-41.40735 2.66373,-2.43392 6.64113,-4.98117 7.77784,-4.98117 0.94063,0 10.83789,22.28405 14.14447,31.84678 4.30411,12.4476 4.45894,14.79457 1.07769,16.33517 -3.1768,1.44745 -3.16282,2.7326 0.17994,16.53642 1.49417,6.1701 2.51493,11.39092 2.26836,11.60182 -0.65964,0.56423 -54.06361,32.1838 -56.66194,33.54856 -2.06865,1.08654 -2.60061,0.58718 -8.12207,-7.62441 z m 222.39115,-13.49434 c 2.20534,-7.18906 30.646,-59.65497 41.73226,-76.98557 3.71582,-5.80877 13.7123,-13.27802 13.7123,-10.24566 0,3.76184 -34.28299,68.51061 -42.27029,79.83404 -1.76382,2.50052 -11.57876,9.64719 -13.24906,9.64719 -0.33848,0 -0.30483,-1.0125 0.0748,-2.25 z m -39.97093,-84.34741 c 1.58954,-6.59865 4.05903,-11.90284 5.68767,-12.21649 2.40769,-0.46368 12.72782,1.783 12.72782,2.77083 0,0.44833 -3.2625,2.74188 -7.25,5.09679 -3.9875,2.35491 -8.28831,4.94986 -9.55735,5.76655 -2.25399,1.45056 -2.29118,1.41777 -1.60814,-1.41768 z m -161.0434,-56.65259 c -6.45492,-7.2875 -12.14055,-14.00463 -12.63475,-14.92695 -0.74233,-1.38542 2.32028,-4.05457 17.61685,-15.35357 14.61242,-10.79364 18.9856,-13.55204 20.74608,-13.08564 1.22689,0.32504 5.15571,3.11458 8.73071,6.19898 3.575,3.0844 11.58495,9.89481 17.79989,15.13425 6.89338,5.81139 11.18295,10.1298 11,11.07396 -0.18291,0.94401 -9.98271,5.96736 -25.12367,12.87834 -13.65308,6.23185 -25.17818,11.33063 -25.61134,11.33063 -0.43316,0 -6.06886,-5.9625 -12.52377,-13.25 z m -125.04111,10.22746 c -2.75,-0.42516 -6.07295,-1.18882 -7.38432,-1.697 l -2.38433,-0.92398 2.56612,-2.01851 c 2.24144,-1.76312 4.63078,-2.10153 18.88432,-2.67469 34.99163,-1.40707 57.93206,-6.69854 81.47091,-18.79219 5.28708,-2.71637 9.86062,-4.6911 10.16342,-4.3883 0.7002,0.7002 0.61988,0.76914 -11.35306,9.74397 -11.77135,8.82372 -16.93531,11.58572 -28.44278,15.21292 -13.76268,4.33805 -29.37419,6.57718 -44.86965,6.43556 -7.50785,-0.0686 -15.90063,-0.47261 -18.65063,-0.89778 z m 196.78892,-17.47189 c 4.10561,-3.13487 7.71108,-3.8537 7.71108,-1.53736 0,0.653 -10.21016,5.03179 -11.73279,5.03179 -0.30515,0 1.50462,-1.5725 4.02171,-3.49443 z M 286.78572,325.55319 c -9.91954,-4.47729 -10.02539,-4.49996 -13.15585,-2.81846 -2.99014,1.60613 -3.30519,1.59892 -6,-0.1373 -8.89755,-5.73256 -22.68311,-20.11663 -26.94236,-28.11209 l -1.90179,-3.57004 2.59513,-2.16942 c 1.42732,-1.19317 2.87378,-2.95191 3.21435,-3.90831 0.77615,-2.17956 51.16093,-39.7611 53.30687,-39.7611 0.8662,0 2.80314,-0.87458 4.30432,-1.94351 l 2.72941,-1.94351 9.92496,10.00771 c 5.45873,5.50424 13.18746,12.47906 17.17496,15.49961 3.9875,3.02055 7.25,5.90083 7.25,6.40062 0,0.49979 -0.993,1.44015 -2.20666,2.08968 -2.20186,1.1784 -2.19955,1.18691 1.06626,3.91333 1.8001,1.50279 6.18617,3.9705 9.7468,5.48379 3.56063,1.51329 6.34332,3.13078 6.18374,3.59442 -0.36403,1.05767 -55.4632,41.89962 -56.51715,41.89302 -0.42514,-0.003 -5.27299,-2.03596 -10.77299,-4.51844 z m 207.27361,-32.22062 c -1.49952,-0.92988 -2.91887,-2.19226 -3.15411,-2.8053 -0.23525,-0.61303 2.1536,-5.41204 5.30854,-10.66445 7.58549,-12.62847 16.35595,-32.24753 21.56521,-48.24019 3.52806,-10.83133 4.73452,-13.35108 7.36309,-15.37816 l 3.14366,-2.42432 0,2.99717 c 0,5.17794 -2.87582,19.76181 -5.60617,28.43009 -3.16155,10.0372 -10.67141,25.94224 -16.43712,34.81197 -2.31779,3.56561 -4.27609,7.71411 -4.35177,9.2189 -0.0757,1.50479 -1.03025,3.41066 -2.12127,4.23528 -2.46716,1.86474 -2.40811,1.86661 -5.71006,-0.18099 z M 382.32522,254.57529 c -7.57702,-5.5847 -9.74723,-6.39109 -11.76628,-4.37204 -1.93928,1.93928 -5.54366,0.15521 -12.27322,-6.07491 -6.25554,-5.79129 -6.42635,-6.07514 -4.54175,-7.54726 1.07703,-0.8413 15.44736,-8.33512 31.93406,-16.65294 l 29.97581,-15.12329 2.89369,3.2386 2.89368,3.2386 -2.16342,2.30286 c -2.52885,2.69183 -2.2813,3.377 4.67284,12.93404 2.3843,3.27673 4.33509,6.26571 4.33509,6.64219 0,1.18706 -34.40291,26.24763 -36.5,26.58818 -1.21274,0.19695 -4.93666,-1.8397 -9.4605,-5.17403 z M 210.31435,226.65178 c -3.52967,-9.28374 -5.07544,-33.5302 -2.96637,-46.52943 0.89569,-5.52051 1.59385,-6.96704 4.82648,-10 3.13942,-2.9455 4.08104,-4.81575 5.56131,-11.04588 9.07512,-38.19529 24.13737,-64.442812 50.97844,-88.835142 15.02403,-13.653373 31.10111,-23.222487 49.57151,-29.505065 18.28975,-6.22113 30.30797,-7.971856 55.51382,-8.086837 21.46605,-0.09792 22.09649,-0.159283 25.33594,-2.465979 2.95684,-2.105457 4.01568,-2.294502 9.62984,-1.719314 13.16718,1.349017 33.46453,9.280195 42.5204,16.614826 l 2.5,2.024826 -2.29838,1.935813 c -2.28835,1.927362 -2.34074,1.921169 -12,-1.418654 -15.94756,-5.514088 -24.10593,-7.676802 -27.7332,-7.351836 -2.75149,0.246506 -22.22649,14.226931 -98.36344,70.611702 -52.21299,38.66738 -95.28394,71.06738 -95.71322,72 -0.42928,0.93261 -0.95701,11.00694 -1.17274,22.38739 -0.39058,20.60534 -0.40235,20.69837 -2.81842,22.28144 -2.31883,1.51936 -2.46805,1.47963 -3.37197,-0.89786 z m 244.91176,-20.32531 c -0.0621,-7.03313 -1.21296,-15.8559 -2.19655,-16.83949 -0.31367,-0.31367 -1.69565,0.16704 -3.07107,1.06824 -2.8741,1.88319 -2.98361,1.7138 -4.18847,-6.47875 -1.0987,-7.4707 -5.30418,-23.37505 -8.40384,-31.78178 l -2.91863,-7.91575 5.66909,-4.9676 c 5.32919,-4.66976 45.95393,-35.04499 56.48622,-42.234897 4.67387,-3.190641 4.87636,-3.234839 6.80863,-1.486158 5.83739,5.282775 15.97919,26.234845 17.45158,36.053445 0.56389,3.76025 0.32488,4.80791 -1.55281,6.80662 -2.10366,2.23924 -2.20119,3.05431 -1.87191,15.64391 l 0.34737,13.28158 -30.5,22.73959 c -16.775,12.50677 -30.8375,22.76692 -31.25,22.80031 -0.4125,0.0334 -0.77682,-2.97677 -0.80961,-6.68927 z M 286.28572,169.83631 c 0,-9.49428 8.63645,-29.70762 17.92862,-41.96138 6.28268,-8.2851 17.28869,-18.57072 24.66806,-23.05346 15.50153,-9.416678 38.34436,-12.280308 53.12668,-6.660082 l 2.67948,1.018738 -2.95142,2.412204 c -2.50693,2.04893 -4.04964,2.41763 -10.24358,2.44818 -26.31724,0.12979 -48.24824,13.25264 -65.51416,39.20173 -3.06765,4.61039 -7.34173,12.19666 -9.49795,16.85838 -2.59025,5.60009 -4.98497,9.24941 -7.05806,10.75579 l -3.13767,2.27993 0,-3.30003 z"
         id="path3002"
         style="fill:#979797" />
      <path
         d="m 213.51975,726.09034 c -3.44628,-0.39186 -6.50441,-0.95092 -6.79584,-1.24235 -0.29143,-0.29143 1.51495,-1.82174 4.01418,-3.40069 7.17026,-4.53 7.54183,-4.35077 -14.12769,-6.81457 -14.57146,-1.65676 -32.34933,-5.9977 -39.49731,-9.64433 -2.21165,-1.1283 -3.86507,-2.18908 -3.67428,-2.35729 0.1908,-0.1682 17.13916,-11.17728 37.66301,-24.4646 l 37.31611,-24.15878 8.68389,-1.48503 c 28.65478,-4.90025 42.33942,-8.5185 44.3836,-11.73511 0.42332,-0.66612 0.81599,-3.91112 0.87259,-7.21112 0.0566,-3.3 0.401,-8.13025 0.76532,-10.73388 l 0.66239,-4.73389 37,-23.9867 37,-23.98671 0.75604,2.72059 c 0.41583,1.49632 1.12578,12.73054 1.57767,24.96493 0.4519,12.23438 1.12921,22.55192 1.50515,22.92785 0.37593,0.37593 2.41651,-0.29048 4.53462,-1.48093 l 3.85111,-2.16444 0.62902,5.23659 c 0.80304,6.68548 0.80714,18.38451 0.009,26.82914 -0.58649,6.20823 -0.81961,6.69855 -3.99887,8.41069 -1.85684,0.99998 -3.57227,1.62194 -3.81207,1.38214 -0.93487,-0.93487 -2.54086,-13.76259 -2.61478,-20.88538 -0.0428,-4.125 -0.39341,-8.29836 -0.77911,-9.27414 -0.59269,-1.49945 -10.99456,4.89627 -67.17971,41.30625 -36.56315,23.69422 -66.90595,43.50508 -67.42845,44.02414 -1.29674,1.28821 21.36437,1.21957 40.47079,-0.12257 8.34894,-0.58648 15.37315,-0.87307 15.60935,-0.63687 0.2362,0.23619 -2.5077,2.34308 -6.09756,4.68196 -7.51131,4.89382 -13.08858,6.23933 -32.86966,7.92977 -13.83837,1.1826 -18.79328,1.20096 -28.42889,0.10533 z m 324.76372,-31.01738 c -3.65202,-5.69118 -9.96724,-19.68394 -9.98554,-22.12517 -0.0134,-1.78548 5.26595,-4.43548 6.86613,-3.44651 2.60456,1.60971 12.12166,22.29071 12.12166,26.3408 0,0.44175 -1.30415,1.57355 -2.8981,2.51513 l -2.8981,1.71195 -3.20605,-4.9962 z M 94.285719,686.3095 c -3.299944,-1.10409 -14.006423,-9.44632 -18.41143,-14.34574 -5.128346,-5.70396 -5.452903,-7.85932 -1.398189,-9.28528 2.384436,-0.83856 3.456102,-0.30753 9.990285,4.95038 8.521038,6.85669 16.819335,14.43935 16.819335,15.36884 0,1.21503 -5.49568,3.8151 -7.000001,3.3118 z M 576.81735,674.98681 c 2.23286,-6.3286 12.80342,-27.41666 18.75224,-37.41034 4.56985,-7.67711 6.29306,-9.62175 11.72346,-13.22992 3.50139,-2.32646 6.60024,-3.99584 6.88635,-3.70973 0.7453,0.7453 -15.89155,33.35021 -22.16534,43.43965 -3.94492,6.34418 -6.54343,9.32428 -10.24546,11.75 -2.728,1.7875 -5.28269,3.25 -5.67708,3.25 -0.3944,0 -0.0678,-1.84035 0.72583,-4.08966 z M 529.9816,653.38677 c -5.0484,-7.99718 -16.74564,-33.74133 -16.66456,-36.67658 0.0367,-1.32741 130.9302,-79.00553 131.7496,-78.18614 1.25462,1.25463 -28.48118,59.19107 -36.67303,71.45275 -3.44219,5.15232 -5.19234,6.34041 -38.10789,25.86965 -18.975,11.25812 -35.25422,20.68425 -36.17604,20.94696 -1.1387,0.32451 -2.46217,-0.76767 -4.12808,-3.40664 z M 161.67008,633.61166 c -6.47413,-3.25834 -18.38436,-13.29329 -18.38436,-15.48972 0,-0.54965 1.1194,-1.73282 2.48755,-2.62927 2.44299,-1.60071 2.74742,-1.46228 16.99286,7.72695 7.97792,5.14627 14.50852,9.59733 14.51245,9.89124 0.0115,0.86376 -5.66933,3.96561 -7.2628,3.96561 -0.80374,0 -4.55931,-1.55916 -8.3457,-3.46481 z M 46.55682,606.85977 c -1.865496,-2.32637 -5.300017,-9.72529 -8.333769,-17.95326 -1.642952,-4.45593 -3.236599,-8.50525 -3.541438,-8.99849 -0.304839,-0.49324 -2.05468,0.0305 -3.888534,1.1639 l -3.334281,2.0607 -1.58654,-6.97548 c -1.898316,-8.34626 -2.089971,-25.57099 -0.321797,-28.92103 1.328313,-2.51667 6.284315,-5.94392 7.229074,-4.99916 0.316064,0.31607 1.032086,3.41501 1.59116,6.88655 0.559075,3.47153 1.331168,6.86426 1.715762,7.53939 0.478388,0.83978 15.07119,-8.09491 46.199262,-28.28628 43.088931,-27.94983 46.109391,-30.10538 57.000001,-40.67792 16.71179,-16.22372 34.03952,-26.99804 52.65255,-32.73916 5.42958,-1.67474 15.07001,-7.42028 46.55755,-27.74757 21.84055,-14.09952 39.72805,-25.99789 39.75,-26.44081 0.0219,-0.44293 -2.5476,-1.93325 -5.7101,-3.31181 -3.1625,-1.37857 -7.28841,-3.18259 -9.16869,-4.00895 l -3.4187,-1.50245 4.4187,-2.95801 c 3.69588,-2.47413 5.07301,-2.86056 8.41869,-2.36235 8.55186,1.27348 22.72214,5.5333 29.09669,8.74695 l 6.68017,3.36771 -3.63843,2.24868 c -2.00114,1.23677 -3.63843,2.40506 -3.63843,2.5962 0,0.19114 5.2875,3.49362 11.75,7.33884 11.62162,6.91492 19.21867,12.50707 18.25,13.43373 -0.275,0.26307 -13.69026,9.01571 -29.81168,19.45031 l -29.31168,18.97198 -12.18832,-2.82111 c -13.90748,-3.21903 -30.33585,-5.36556 -35.12143,-4.58897 -1.78831,0.29021 -5.68494,2.0812 -8.65918,3.97999 -3.75801,2.39916 -7.96285,3.96853 -13.78342,5.14438 -25.18057,5.08686 -46.9498,19.29197 -63.66551,41.54373 -3.8677,5.14863 -8.20576,9.66306 -10.93079,11.37517 -2.48497,1.56129 -5.36909,4.03629 -6.40914,5.5 -3.88919,5.47339 -8.11885,25.06444 -8.11885,37.60508 l 0,5.29906 -32.193946,20.87858 c -17.70667,11.48322 -32.489132,21.00607 -32.849915,21.16188 -0.360783,0.15582 -1.119051,-0.29418 -1.685039,-1 z m 140.31562,-13.45326 -6.91328,-0.42886 5.36052,-3.60999 c 5.34658,-3.60059 5.39969,-3.61235 20.41328,-4.51751 15.49242,-0.93404 41.18091,-0.18437 42.05333,1.22724 0.27043,0.43756 -1.71691,2.21281 -4.41629,3.945 l -4.90798,3.14944 -22.33815,0.33177 c -12.28598,0.18247 -25.44913,0.13878 -29.25143,-0.0971 z m 299.48077,-4.23525 c -2.61443,-3.67163 -9.77489,-18.70934 -10.6279,-22.3197 -0.53638,-2.27021 -0.21454,-2.92051 1.92868,-3.89703 2.0248,-0.92256 2.9114,-0.89084 4.16428,0.14895 2.23817,1.85752 9.12059,14.5133 11.09433,20.40086 1.62868,4.85828 1.62023,4.95361 -0.59822,6.75 -2.99203,2.4228 -3.535,2.32415 -5.96117,-1.08308 z m 64.49322,-44.40163 c -1.93295,-4.01876 -4.31236,-10.35761 -5.28758,-14.08633 l -1.77313,-6.77948 2.36078,-1.91368 c 1.29844,-1.05252 2.68631,-1.91367 3.08417,-1.91367 0.75806,0 8.4213,15.86217 9.54152,19.75 0.35657,1.2375 1.44064,2.25 2.40905,2.25 1.28647,0 2.61083,-2.23794 4.91671,-8.3084 1.73579,-4.56961 5.97563,-13.9059 9.42187,-20.74729 5.32684,-10.57469 6.91186,-12.86741 10.57606,-15.29811 2.37059,-1.57256 4.57321,-2.59616 4.89471,-2.27467 1.0718,1.0718 -5.80779,18.95596 -12.81491,33.31358 l -6.92293,14.18512 -7.51898,4.56488 c -4.13544,2.51069 -7.93612,4.56489 -8.44594,4.56489 -0.50982,0 -2.50845,-3.28808 -4.4414,-7.30684 z M 294.28572,527.37474 c -4.125,-0.16738 -8.58081,-0.55368 -9.90179,-0.85845 -2.23407,-0.51542 -2.04357,-0.79536 2.72802,-4.00874 l 5.12982,-3.45462 21.27197,-0.5518 c 11.69959,-0.3035 24.86421,-0.1857 29.25472,0.26177 l 7.98273,0.81357 -5.26072,3.37221 c -4.78897,3.0698 -6.22222,3.44635 -15.98274,4.19908 -10.38617,0.80098 -19.61126,0.86043 -35.22201,0.22698 z m 154.06597,-37.79827 c -2.95009,-4.125 -5.72561,-7.5 -6.16783,-7.5 -0.44222,0 -1.93688,0.51616 -3.32147,1.14702 -1.92745,0.87821 -2.86431,0.85915 -3.99748,-0.0813 -2.21279,-1.83645 -7.48805,-11.58545 -10.27392,-18.98685 l -2.45987,-6.53526 2.18808,-1.77181 c 2.47152,-2.00131 5.19566,-2.25472 8.01545,-0.74561 1.59827,0.85537 7.15159,-2.07288 33.36183,-17.59158 l 31.44439,-18.61776 0.66398,-3.93009 c 0.49975,-2.95799 1.3711,-4.29576 3.52277,-5.40843 1.57233,-0.81308 3.10047,-1.47833 3.39587,-1.47833 1.10255,0 7.4585,13.84801 9.61576,20.95034 2.40646,7.92273 2.50716,7.51115 -2.58794,10.5773 -1.59748,0.96133 -1.56005,1.71944 0.58025,11.74979 1.25836,5.89718 2.10032,10.88712 1.87104,11.08876 -1.71408,1.5074 -58.50383,34.63381 -59.37394,34.63381 -0.61225,0 -3.52689,-3.375 -6.47697,-7.5 z M 686.3001,472.31723 c 0.0437,-5.28584 23.50601,-46.97652 29.07355,-51.66129 3.96066,-3.33268 8.91207,-5.93357 8.91207,-4.68136 0,1.81078 -16.59461,33.64793 -22.29504,42.77357 -4.52549,7.24471 -6.77715,9.81649 -10.71708,12.24076 -4.22474,2.59951 -4.98568,2.80274 -4.9735,1.32832 z M 480.75395,351.32647 c -6.27463,-7.27877 -9.32792,-11.85749 -8.38067,-12.56767 19.07634,-14.30193 36.46634,-26.68233 37.47906,-26.68233 1.64517,0 19.5164,14.26416 24.84776,19.83257 l 3.91437,4.08843 -11.91437,5.62237 c -32.60079,15.38425 -37.13066,17.45663 -38.15736,17.45663 -0.60937,0 -4.11433,-3.4875 -7.78879,-7.75 z m -120.46823,6.08386 c -7.57101,-1.1925 -7.57508,-1.19625 -4.08556,-3.77073 2.37279,-1.75059 5.09713,-2.50559 10.87569,-3.01397 12.47669,-1.09767 32.06952,-3.51047 41.14444,-5.06682 4.63902,-0.79559 8.5699,-1.31121 8.73529,-1.14582 0.16539,0.16539 -2.23382,2.16131 -5.33158,4.43538 -5.94357,4.36318 -12.5464,6.39877 -26.74,8.24369 -7.02777,0.91349 -19.77241,1.07839 -24.59828,0.31827 z m -83,-38.37331 c -5.63105,-3.03063 -9.40334,-3.73498 -10.5,-1.96055 -0.33992,0.55 -1.38217,1 -2.31611,1 -2.68249,0 -11.96259,-8.1881 -16.4512,-14.51536 l -4.09519,-5.77269 2.3077,-1.86866 c 1.26923,-1.02776 3.46104,-2.15813 4.87069,-2.51193 3.74211,-0.93921 51.1593,-36.24223 53.21172,-39.61715 0.95812,-1.57551 2.6714,-3.51551 3.80728,-4.31111 1.93561,-1.35576 2.61751,-0.93363 10.86517,6.72618 14.54812,13.51121 13.19586,11.66608 10.29994,14.05405 l -2.5,2.06149 6.24765,5.66846 6.24766,5.66847 -25.89402,19.20912 c -16.82274,12.47972 -26.71855,19.19523 -28.24766,19.16945 -1.29449,-0.0218 -4.82863,-1.37172 -7.85363,-2.99977 z m 223.53877,-45.03785 c 3.05551,-6.09252 8.47416,-18.13002 12.04145,-26.75 4.46277,-10.78385 7.33347,-16.373 9.20288,-17.91773 1.49429,-1.23477 2.98719,-2.24727 3.31756,-2.25 0.78503,-0.006 -0.47553,7.81038 -2.57938,15.99503 -1.84342,7.17149 -8.93037,22.84569 -13.66672,30.22664 -2.59558,4.04487 -11.29136,11.77336 -13.24689,11.77336 -0.34341,0 1.87559,-4.98479 4.9311,-11.0773 z M 374.46548,246.89192 c -6.04167,-3.98279 -6.47359,-4.11098 -9.79945,-2.90833 -2.93567,1.06155 -3.82299,1.01811 -5.67976,-0.27809 -4.49871,-3.14051 -7.15648,-5.50562 -6.68561,-5.94943 1.15207,-1.08585 55.08273,-27.6796 56.13271,-27.6796 0.63907,0 -3.6699,3.63782 -9.57548,8.08405 -5.90557,4.44622 -10.52233,8.29912 -10.25946,8.56199 0.26287,0.26287 5.9912,-2.02515 12.72963,-5.08448 9.72845,-4.41685 12.54391,-5.31991 13.67061,-4.38483 1.51191,1.25478 4.6535,6.82237 4.11079,7.28523 -4.88668,4.16761 -36.10189,26.53539 -37.02236,26.52898 -0.71576,-0.005 -4.14549,-1.88395 -7.62162,-4.17549 z M 208.16344,213.82647 c -0.73043,-2.90126 -1.30128,-10.34919 -1.27598,-16.64793 l 0.0458,-11.39793 3.36039,-3.00251 c 3.12775,-2.79464 3.412,-2.87094 4.10596,-1.10207 0.41006,1.04524 0.7772,8.97041 0.81585,17.61148 0.0668,14.92103 -0.0398,15.81358 -2.11827,17.75 -1.20371,1.12143 -2.50883,2.03896 -2.90026,2.03896 -0.39143,0 -1.30649,-2.3625 -2.03346,-5.25 z m 248.1619,-21.95145 c -3.26468,-13.19414 -3.63446,-13.76535 -7.33955,-11.33769 l -2.35641,1.54399 -3.6879,-13.75243 c -2.02834,-7.56383 -3.68066,-14.47018 -3.67183,-15.34743 0.026,-2.58565 3.63894,-5.21646 6.26027,-4.55855 1.88492,0.47309 7.22623,-3.05218 28.22952,-18.63148 21.63029,-16.04437 26.03827,-19.7321 26.71405,-22.349 0.44512,-1.72371 1.92691,-3.8663 3.29285,-4.76131 2.44971,-1.60511 2.53125,-1.56242 5.9871,3.13404 3.66594,4.98199 7.33191,13.44051 8.26458,19.06896 0.43867,2.64728 0.10765,3.61615 -1.65801,4.85287 -2.11972,1.48471 -2.18176,1.98171 -1.58457,12.69235 l 0.62154,11.14713 -25.21217,18.5 c -13.8667,10.175 -26.9185,19.75935 -29.00402,21.29855 l -3.79184,2.79855 -1.06361,-4.29855 z M 219.73007,157.67555 c 2.35704,-18.86507 12.8496,-43.17723 26.21561,-60.743827 8.79727,-11.562028 15.33928,-17.604369 34.74191,-32.088403 25.62489,-19.128933 35.11204,-23.807548 58.62601,-28.911561 8.74983,-1.899266 13.43248,-2.269505 28.47212,-2.251182 13.46506,0.0164 18.80306,0.383964 21.18748,1.45891 l 3.18748,1.436981 -85.10412,63 c -46.80726,34.650002 -85.76148,63.156542 -86.56493,63.347872 -1.20985,0.28811 -1.34068,-0.61361 -0.76156,-5.24879 z m 71.02714,-1.70425 c 2.06129,-10.08295 11.94622,-26.01873 22.70336,-36.60072 11.56992,-11.38155 18.34208,-15.78786 30.70516,-19.978329 8.20754,-2.781943 23.98747,-3.846347 26.0762,-1.758917 1.89103,1.889859 -3.9866,4.984886 -13.77475,7.253466 -21.15805,4.90376 -38.62154,18.4228 -53.84015,41.67936 -2.56119,3.91393 -6.43582,8.39507 -8.61028,9.9581 l -3.95356,2.84188 0.69402,-3.39484 z M 423.58065,41.233727 c -7.81279,-2.603738 -14.56279,-5.092568 -15,-5.530735 -0.43721,-0.438167 0.48263,-1.89626 2.0441,-3.240207 2.33811,-2.01241 3.48495,-2.326515 6.5,-1.780273 7.60199,1.377272 16.86163,4.716195 22.4687,8.101963 5.58093,3.369989 5.74084,3.580839 4.09501,5.399464 -2.39394,2.645279 -4.04468,2.403083 -20.10781,-2.950212 z"
         id="path3000"
         style="fill:#878787" />
      <path
         d="m 221.28572,725.6072 c 0,-0.2581 2.50513,-2.07178 5.56695,-4.03041 6.25895,-4.0038 15.84289,-5.86383 27.35799,-5.30957 l 6.42495,0.30925 -5.80073,3.84373 c -4.23384,2.80546 -7.45501,4.08311 -11.92495,4.7299 -6.45983,0.93472 -21.62421,1.25527 -21.62421,0.4571 z m -39.5,-14.01716 c -6.42579,-1.42162 -12.02372,-3.34799 -11.38869,-3.91908 0.21378,-0.19225 20.38259,-13.29236 44.81959,-29.11136 40.27005,-26.06835 45.11224,-28.93208 51.7065,-30.57996 4.00159,-0.99998 9.08798,-2.74275 11.3031,-3.87282 3.77336,-1.92502 4.37429,-2.86823 5.27057,-8.27255 0.17436,-1.05136 14.96088,-11.24409 37.28893,-25.70425 l 37,-23.96205 0.83863,3.18596 c 0.85246,3.23846 0.57531,21.21926 -0.33863,21.97015 -0.275,0.22594 -35.71654,23.21266 -78.75899,51.08159 l -78.25898,50.6708 -6.74102,-0.0795 c -3.70755,-0.0437 -9.44101,-0.67684 -12.74101,-1.40693 z m 353.58362,-22.87827 c -1.14373,-1.85059 -2.35875,-4.76094 -2.70005,-6.46745 -0.53236,-2.66181 -0.25264,-3.27038 1.96833,-4.28232 3.35377,-1.52808 4.96431,-0.24289 7.2738,5.80443 l 1.73094,4.53242 -2.42832,1.86657 c -3.23801,2.48896 -3.43892,2.43899 -5.8447,-1.45365 z M 85.785719,679.90949 c -2.760801,-1.52694 -6.498509,-4.98963 -7.608737,-7.04888 -0.707774,-1.31279 -0.351731,-2.09155 1.515625,-3.31509 2.174367,-1.4247 2.749133,-1.43817 5.266914,-0.12341 1.554409,0.81169 4.174061,2.8933 5.821449,4.62579 l 2.995251,3.14998 -2.495251,1.91706 c -2.912579,2.23768 -2.891498,2.23464 -5.495251,0.79455 z M 585.31163,659.01075 c 2.40969,-6.11343 7.81816,-14.66031 11.08826,-17.52251 2.89244,-2.53165 9.88583,-6.7916 9.88583,-6.02184 0,1.4953 -5.10974,11.77164 -8.41812,16.92992 -3.27057,5.09932 -11.02496,11.68015 -13.76307,11.68015 -0.43429,0 0.1089,-2.27957 1.2071,-5.06572 z m -222.79817,-11.6605 c -0.40026,-0.97558 -0.67514,-4.45451 -0.61086,-7.73096 0.1073,-5.46871 0.3912,-6.18619 3.46223,-8.75 1.83994,-1.53605 3.69984,-2.79282 4.13312,-2.79282 0.43327,0 0.7822,3.7125 0.77539,8.25 l -0.0124,8.25 -3.50988,2.27378 c -3.27312,2.12041 -3.55897,2.15414 -4.23762,0.5 z m 160.23148,-9.65912 c -2.00752,-4.06193 -3.4946,-8.14848 -3.30463,-9.08122 0.35287,-1.73249 112.6815,-69.03068 113.63271,-68.07948 1.83283,1.83284 -14.13962,30.21953 -19.06589,33.88445 -5.71461,4.2514 -84.63306,50.66159 -86.14777,50.66159 -0.82418,0 -3.06014,-3.22878 -5.11442,-7.38534 z m -365.10468,-7.2117 c -1.73001,-0.85333 -4.19921,-2.67317 -5.48711,-4.04408 l -2.34165,-2.49257 2.48711,-1.91092 c 1.36791,-1.051 2.84623,-1.92092 3.28515,-1.93315 1.12078,-0.0312 11.34417,6.58983 12.12435,7.85219 0.35365,0.57222 -0.69936,1.73456 -2.34003,2.58298 -3.63742,1.88098 -3.8064,1.87979 -7.72782,-0.0544 z M 40.192178,590.35825 c -1.112356,-2.59502 -2.264058,-7.43252 -2.559337,-10.75 l -0.536871,-6.03178 39.844874,-25.78159 c 25.018856,-16.18843 39.951846,-25.28096 40.132356,-24.43614 0.27173,1.27178 -4.41165,26.73142 -5.00742,27.22116 -1.51609,1.24625 -68.85854,44.49657 -69.28291,44.49657 -0.312524,0 -1.478335,-2.1232 -2.590692,-4.71822 z m 157.093542,2.32247 c 0,-0.21767 2.28633,-1.86289 5.08073,-3.65606 4.64442,-2.98031 5.92529,-3.30096 14.91546,-3.73387 5.4091,-0.26046 11.06608,-0.16452 12.57106,0.2132 2.73073,0.68537 2.72586,0.69383 -2.37601,4.12963 l -5.11234,3.44285 -12.53945,0 c -6.8967,0 -12.53945,-0.17809 -12.53945,-0.39575 z M 482.82837,581.7819 c -0.8269,-1.26201 -2.03218,-3.81126 -2.6784,-5.665 -1.06442,-3.05341 -0.96004,-3.54445 1.10979,-5.22049 2.75364,-2.22976 4.20766,-1.34427 7.09905,4.32332 2.37501,4.65541 2.40156,5.77594 0.17691,7.46469 -2.5363,1.92533 -4.00684,1.69279 -5.70735,-0.90252 z M 25.731146,570.36591 c -0.33686,-1.53419 -0.815744,-3.43007 -1.064187,-4.21306 -0.248444,-0.78298 -0.170761,-3.29715 0.172627,-5.58702 0.482979,-3.22074 1.303844,-4.56481 3.625426,-5.9362 3.845045,-2.27132 4.784037,-1.30858 5.501231,5.64036 0.652406,6.32121 -0.281293,8.59167 -4.563047,11.09592 l -3.059578,1.78943 -0.612472,-2.78943 z m 524.159484,-29.7096 c -3.02273,-6.36993 -3.07909,-9.03913 -0.23027,-10.90574 1.40524,-0.92076 2.74041,-1.6741 2.96703,-1.6741 0.67134,0 4.65833,9.73883 4.65833,11.37868 0,1.39006 -3.57195,4.62132 -5.10856,4.62132 -0.36496,0 -1.3939,-1.53907 -2.28653,-3.42016 z m 17.79055,-8.22201 c 0.36652,-1.57181 2.33998,-6.23283 4.38547,-10.35783 2.7753,-5.59677 4.79417,-8.24354 7.95569,-10.43005 2.33013,-1.61153 4.52798,-2.63868 4.8841,-2.28256 0.92702,0.92702 -3.18318,11.41055 -6.5524,16.71261 -1.65601,2.60602 -4.64403,5.49237 -7.0994,6.85783 l -4.23986,2.35782 0.6664,-2.85782 z m -266.77913,-6.17571 c -1.62219,-0.69073 -1.19358,-1.24491 3.08754,-3.9921 4.93207,-3.1649 5.07282,-3.19002 17.87033,-3.19002 l 12.8991,0 -5.47179,3.68492 c -5.32949,3.58909 -5.74526,3.69291 -15.98665,3.9921 -5.78317,0.16895 -11.36251,-0.0537 -12.39853,-0.4949 z M 130.28572,503.61153 c 0,-2.3167 6.52769,-11.12385 12.99663,-17.53506 16.5809,-16.43291 46.01354,-31.55795 58.06863,-29.84069 2.16933,0.30902 1.78069,0.79516 -3.56526,4.45959 -3.3,2.26202 -10.275,6.25444 -15.5,8.87206 -12.2415,6.13273 -20.89433,11.74612 -29.55227,19.17157 -10.07568,8.64139 -22.44773,16.83836 -22.44773,14.87253 z M 444.07686,480.2 c -4.60242,-6.45208 -5.59621,-6.95258 -9.16369,-4.61508 -2.08728,1.36763 -2.45383,1.34088 -3.92668,-0.2866 -1.59005,-1.75699 -4.70077,-8.35733 -4.70077,-9.97412 0,-0.44908 1.33219,-1.60346 2.96042,-2.56528 2.95511,-1.74563 2.96722,-1.74263 6.75,1.6719 l 3.78958,3.42066 31,-18.377 31,-18.377 0,-5.64304 c 0,-5.01998 0.31058,-5.87596 2.81296,-7.75276 l 2.81296,-2.10973 1.89003,2.49226 c 1.03951,1.37074 2.29463,4.06726 2.78917,5.99226 0.82977,3.22994 0.63596,3.73148 -2.51176,6.5 l -3.41091,3 1.55878,5.9601 c 2.91408,11.14225 5.08636,8.93473 -28.08426,28.5399 -16.28484,9.625 -29.98363,17.64383 -30.44175,17.81962 -0.45811,0.17579 -2.76395,-2.38745 -5.12408,-5.69609 z m 250.64225,-23.80558 c 0.73573,-3.02964 7.58951,-15.48914 10.38983,-18.88768 1.65026,-2.00279 11.17678,-8.09914 11.17678,-7.15241 0,1.40268 -4.82004,11.04573 -8.2085,16.42206 -2.73247,4.33551 -5.43139,7.13757 -8.97498,9.31796 l -5.06745,3.11803 0.68432,-2.81796 z m -444.43339,0.12994 c -0.825,-0.17606 -6.225,-1.06782 -12,-1.98169 -5.775,-0.91387 -11.03033,-1.95512 -11.67851,-2.31389 -0.66552,-0.36837 13.91665,-10.44631 33.5,-23.15231 39.09496,-25.36547 37.32756,-24.66267 48.36133,-19.23076 12.60003,6.20297 14.16191,4.20211 -21.15507,27.10074 -29.18404,18.92219 -32.32307,20.58191 -37.02775,19.57791 z m 32.7175,-57.53947 c -4.34158,-1.02232 -9.72114,-3.61747 -9.7098,-4.6841 0.004,-0.39838 1.7104,-1.69625 3.79148,-2.88417 3.20135,-1.82739 4.49737,-2.02654 8.41965,-1.29378 5.58941,1.04422 11.78117,3.52407 11.78117,4.71846 0,1.12697 -7.36329,5.2653 -9.13615,5.13472 -0.75012,-0.0553 -3.06597,-0.50126 -5.14635,-0.99113 z m 202.58916,-43.15842 c -1.12308,-1.2375 -2.80934,-3.4586 -3.74724,-4.93578 l -1.70528,-2.68578 17.65396,-13.10635 c 9.70968,-7.2085 18.46603,-13.6135 19.45856,-14.23334 1.49,-0.93052 2.69349,-0.47449 6.90337,2.61584 2.80431,2.05856 6.00598,5.01692 7.11482,6.57413 l 2.01606,2.83129 -6.96568,5.16387 c -6.69858,4.96586 -34.84876,20.02612 -37.43222,20.02612 -0.68991,0 -2.17327,-1.0125 -3.29635,-2.25 z M 369.23006,354.2643 c 2.83388,-2.43007 4.96067,-3.16784 12,-4.16276 4.70561,-0.66507 10.24806,-1.05529 12.31654,-0.86715 l 3.76088,0.34208 -4.93361,3.35378 c -4.68436,3.18434 -5.48061,3.37736 -15.76088,3.82068 l -10.82727,0.4669 3.44434,-2.95353 z M 269.4065,312.35459 c -5.04663,-2.60036 -5.40847,-2.64956 -8.10486,-1.10204 -2.61848,1.5028 -3.02806,1.49449 -5.66915,-0.11498 -1.56573,-0.95414 -3.51118,-2.98156 -4.32323,-4.50536 -1.38517,-2.59925 -1.32861,-2.89029 0.9148,-4.7069 1.3152,-1.06498 3.03392,-1.68973 3.81937,-1.38832 5.05748,1.94074 5.60536,1.63606 30.61324,-17.02426 l 24.87096,-18.55814 -0.54421,-3.35353 c -0.39464,-2.43189 -0.0627,-3.78927 1.20779,-4.93906 2.67828,-2.42381 4.33801,-1.94656 8.64156,2.48487 l 3.95295,4.0704 -2.25,1.83989 c -1.2375,1.01194 -2.25,2.17142 -2.25,2.57661 0,0.40519 1.63209,2.72847 3.62687,5.16284 1.99478,2.43436 3.23228,4.7669 2.75,5.18342 -3.83678,3.3136 -50.32169,37.09644 -51.0444,37.09644 -0.51107,0 -3.30633,-1.22484 -6.21169,-2.72188 z m 236.87922,-45.56255 c 0,-1.35637 4.16895,-12.12532 6.47975,-16.73805 2.53231,-5.05491 6.82106,-9.85552 8.88154,-9.94156 3.17795,-0.13269 -5.18276,19.84567 -9.73393,23.25975 -3.78337,2.83811 -5.62736,3.95874 -5.62736,3.41986 z m -135.25,-24.79567 c -0.9625,-0.5606 -1.75,-1.39352 -1.75,-1.85092 0,-0.92136 16.08041,-8.06898 18.15325,-8.06898 0.71851,0 -2.05954,2.46579 -6.17343,5.47954 -8.28138,6.06674 -7.79784,5.85686 -10.22982,4.44036 z m -16.75,-3.72063 c 0,-0.92236 9.03579,-5.49682 9.64814,-4.88447 0.22346,0.22347 -1.15093,1.59405 -3.0542,3.04575 -3.36096,2.56353 -6.59394,3.46505 -6.59394,1.83872 z M 207.90976,207.80258 c -0.3282,-1.22436 -0.60288,-4.55595 -0.61039,-7.40353 -0.0117,-4.42923 0.37257,-5.48122 2.65897,-7.27971 3.39577,-2.67111 4.2912,-1.47233 4.31207,5.77287 0.0168,5.83769 -1.05047,8.61391 -3.89722,10.13745 -1.52238,0.81475 -1.97677,0.58841 -2.46343,-1.22708 z m 247.47006,-28.97611 c -3.49295,-9.17697 -3.97575,-9.88371 -6.00872,-8.79569 -1.0857,0.58104 -2.28819,1.56482 -2.6722,2.18617 -0.99585,1.61132 -3.17134,-2.71935 -3.98348,-7.92977 -0.52395,-3.36144 -0.28473,-4.71342 1.10585,-6.25 2.25572,-2.49253 3.68969,-2.47429 5.99796,0.0763 1.01391,1.12037 2.35814,1.90787 2.98718,1.75 0.62903,-0.15786 12.69421,-8.82672 26.81151,-19.26414 l 25.6678,-18.9771 0,-5.10391 c 0,-4.46507 0.32346,-5.27701 2.58423,-6.48694 2.37995,-1.27371 2.73396,-1.18825 4.47825,1.08102 1.04171,1.35523 2.18797,3.97498 2.54725,5.82166 0.55561,2.85588 0.25304,3.67773 -2.02487,5.5 -2.59533,2.0762 -2.64363,2.30253 -1.56308,7.32492 2.2209,10.32269 3.4224,8.91627 -26.66074,31.20768 -14.92642,11.06039 -27.42506,20.1098 -27.77475,20.1098 -0.34968,0 -1.02117,-1.0125 -1.49219,-2.25 z M 224.28572,143.3413 c 0,-5.17376 7.00868,-22.17369 12.13345,-29.43036 1.03534,-1.46603 24.22746,-19.216923 51.53805,-39.446413 l 49.65562,-36.780891 8.08644,-1.779787 c 8.1205,-1.787283 24.1009,-2.434544 26.22171,-1.062068 0.68018,0.440174 -28.3511,22.582042 -72.42088,55.234687 -40.45589,29.975002 -73.92926,54.650002 -74.38528,54.833332 -0.45601,0.18334 -0.82911,-0.52249 -0.82911,-1.5685 z m 74,-1.29999 c 0,-2.83204 7.99849,-14.0447 15.09369,-21.15904 12.75013,-12.78453 27.00636,-20.933423 39.0718,-22.333525 l 5.33451,-0.619028 -3.5,3.052913 c -1.925,1.6791 -7.1,4.93161 -11.5,7.2278 -11.52996,6.01703 -15.83708,9.16659 -26.5,19.37797 -11.0434,10.57576 -18,16.16149 -18,14.45291 z m 128.5,-100.679504 c -2.99199,-0.722057 -8.50446,-3.422956 -8.46858,-4.149279 0.0173,-0.349833 1.15274,-1.452452 2.52323,-2.450265 2.33118,-1.697257 2.83642,-1.714024 7.83775,-0.260097 6.68033,1.942024 8.88559,4.166643 6.12872,6.182516 -1.90083,1.389925 -4.24684,1.58797 -8.02112,0.677125 z"
         id="path2998"
         style="fill:#7a7a7a" />
    </g>
  </g>
</svg>
